<svg width="26" height="26" viewBox="0 0 26 26" fill="none" xmlns="http://www.w3.org/2000/svg">
<path d="M15.3075 12.285C15.73 10.5083 14.1808 8.95912 12.4042 9.38162C11.57 9.58745 10.8875 10.27 10.6817 11.1041C10.2592 12.8808 11.8083 14.43 13.585 14.0075C14.43 13.8016 15.1125 13.1192 15.3075 12.285Z" stroke="#E5E5E5" stroke-width="1.5" stroke-linecap="round" stroke-linejoin="round"/>
<path d="M19.5109 18.6225C21.3634 16.8891 22.5225 14.4299 22.5225 11.6891C22.5225 6.4241 18.2542 2.16663 13 2.16663C7.74587 2.16663 3.47754 6.43494 3.47754 11.6891C3.47754 14.4408 4.64754 16.9216 6.5217 18.6549" stroke="#E5E5E5" stroke-width="1.5" stroke-linecap="round" stroke-linejoin="round"/>
<path d="M8.66666 15.7625C7.67 14.7009 7.05249 13.2709 7.05249 11.6892C7.05249 8.40669 9.7175 5.7417 13 5.7417C16.2825 5.7417 18.9475 8.40669 18.9475 11.6892C18.9475 13.2709 18.33 14.69 17.3333 15.7625" stroke="#E5E5E5" stroke-width="1.5" stroke-linecap="round" stroke-linejoin="round"/>
<path d="M11.1584 18.0483L9.59837 19.9876C8.36337 21.5367 9.45753 23.8225 11.44 23.8225H14.5492C16.5317 23.8225 17.6367 21.5259 16.3909 19.9876L14.8309 18.0483C13.8992 16.8675 12.1009 16.8675 11.1584 18.0483Z" stroke="#E5E5E5" stroke-width="1.5" stroke-linecap="round" stroke-linejoin="round"/>
</svg>
