<svg width="26" height="28" viewBox="0 0 26 28" fill="none" xmlns="http://www.w3.org/2000/svg">
<path d="M12.9862 12.6375C12.746 12.6375 12.5215 12.7026 12.3262 12.8148L12.9974 13.9396L11.8322 13.3244C11.7312 13.5108 11.6729 13.7241 11.6729 13.9508C11.6729 14.676 12.2611 15.2642 12.9862 15.2642C13.7114 15.2642 14.2996 14.676 14.2996 13.9508C14.2996 13.2257 13.7114 12.6375 12.9862 12.6375Z" fill="#E5E5E5"/>
<path d="M13.0138 8.97809L17.3198 16.4362H8.7078L13.0138 8.97809ZM13.0138 7.00244L6.99707 17.424H19.0306L13.0138 7.00244Z" fill="#E5E5E5"/>
<path d="M23.3108 7.99027L12.9902 25.8654L2.66972 7.99027H23.3108ZM25.0215 7.00244H0.958984L12.9902 27.841L25.0215 7.00244Z" fill="#E5E5E5"/>
<path d="M18.9933 3.54468C16.1736 3.54468 13.7422 5.21275 12.6309 7.61496C12.9744 7.65088 13.3178 7.69578 13.6658 7.74742C13.9465 7.2131 14.3057 6.72592 14.739 6.29262C15.2912 5.74034 15.9356 5.3048 16.6518 5.00172C17.3926 4.68741 18.1806 4.53026 18.9933 4.53026C19.8061 4.53026 20.5941 4.68966 21.3349 5.00172C22.0511 5.3048 22.6954 5.7381 23.2477 6.29262C23.8 6.84491 24.2355 7.48924 24.5364 8.20541C24.8507 8.94628 25.0101 9.73429 25.0101 10.547C25.0101 11.3597 24.8507 12.1477 24.5386 12.8886C24.2355 13.6048 23.8023 14.2491 23.25 14.8014C22.6977 15.3537 22.0534 15.7892 21.3372 16.0923C20.6839 16.3684 19.9946 16.5256 19.283 16.557C19.2538 16.7703 19.1662 17.0038 19.018 17.2148C18.9731 17.2597 18.9282 17.3046 18.9058 17.3495C18.8609 17.4101 18.825 17.482 18.7935 17.5493C18.8609 17.5516 18.9282 17.5516 18.9956 17.5516C22.8638 17.5516 26.0002 14.4152 26.0002 10.547C26.0002 6.67877 22.8616 3.54468 18.9933 3.54468Z" fill="#E5E5E5"/>
<path d="M18.9929 10.3699C18.8402 10.3699 18.6875 10.3766 18.5349 10.3856C18.5596 10.4417 18.5843 10.5001 18.6112 10.5495C18.7504 10.8077 18.8784 11.0793 18.9929 11.3577C19.8056 11.3577 20.5936 11.5171 21.3344 11.8292C22.0506 12.1322 22.6949 12.5655 23.2472 13.1201C23.7995 13.6723 24.2351 14.3167 24.5359 15.0329C24.8502 15.7737 25.0096 16.5617 25.0096 17.3744C25.0096 18.1872 24.8502 18.9752 24.5381 19.716C24.2351 20.4322 23.8018 21.0765 23.2495 21.6288C22.6972 22.1811 22.0529 22.6166 21.3367 22.9175C20.5958 23.2318 19.8078 23.3889 18.9951 23.3889C18.1824 23.3889 17.3944 23.2295 16.6535 22.9175C15.9373 22.6144 15.293 22.1811 14.7407 21.6288C14.3299 21.218 13.9841 20.7577 13.7102 20.2549C13.3465 20.2975 12.9739 20.3155 12.6191 20.2818C13.7237 22.6997 16.1618 24.3813 18.9929 24.3813C22.8611 24.3813 25.9974 21.2449 25.9974 17.3767C25.9974 13.5085 22.8611 10.3699 18.9929 10.3699Z" fill="#E5E5E5"/>
<path d="M7.00457 16.566C6.19186 16.566 5.40385 16.4066 4.66298 16.0945C3.94681 15.7915 3.30248 15.3582 2.75019 14.8036C2.19791 14.2513 1.76237 13.607 1.45929 12.8908C1.14498 12.15 0.987824 11.362 0.987824 10.5492C0.987824 9.73654 1.14722 8.94852 1.45929 8.20766C1.76237 7.49148 2.19566 6.84715 2.75019 6.29487C3.30248 5.74259 3.94681 5.30705 4.66298 5.00396C5.40385 4.68966 6.19186 4.5325 7.00457 4.5325C7.81728 4.5325 8.60529 4.6919 9.34616 5.00396C10.0623 5.30705 10.7067 5.74034 11.2589 6.29487C11.6451 6.68102 11.9729 7.10982 12.2378 7.5768C12.588 7.45781 12.9405 7.41964 13.2907 7.45556C12.148 5.13867 9.7615 3.54468 7.00457 3.54468C3.13634 3.54468 0 6.68102 0 10.5492C0 14.4175 3.13634 17.5538 7.00457 17.5538C7.2403 17.5538 7.47603 17.5426 7.70727 17.5201C7.47379 17.2171 7.26275 16.8983 7.10335 16.566C7.06968 16.566 7.03825 16.566 7.00457 16.566Z" fill="#E5E5E5"/>
<path d="M11.2589 21.6288C10.7067 22.1811 10.0623 22.6166 9.34616 22.9175C8.60529 23.2318 7.81728 23.3912 7.00457 23.3912C6.19186 23.3912 5.40385 23.2318 4.66298 22.9197C3.94681 22.6166 3.30248 22.1834 2.75019 21.6311C2.19791 21.0788 1.76237 20.4345 1.45929 19.7183C1.14498 18.9774 0.987824 18.1894 0.987824 17.3767C0.987824 16.564 1.14722 15.776 1.45929 15.0351C1.76237 14.3189 2.19566 13.6746 2.75019 13.1223C3.30248 12.57 3.94681 12.1345 4.66298 11.8314C5.40385 11.5171 6.19186 11.3599 7.00457 11.3599C7.01804 11.3599 7.02927 11.3599 7.04274 11.3599C7.10784 11.1736 7.20663 10.9805 7.31888 10.8211C7.41542 10.6707 7.52093 10.5315 7.63094 10.3991C7.4244 10.3811 7.21561 10.3699 7.00457 10.3699C3.13634 10.3699 0 13.5062 0 17.3744C0 21.2427 3.13634 24.379 7.00457 24.379C9.77048 24.379 12.1615 22.776 13.2997 20.4479C12.9427 20.403 12.5858 20.3806 12.2311 20.3581C11.9661 20.8206 11.6406 21.2472 11.2589 21.6288Z" fill="#E5E5E5"/>
<path d="M7.4544 9.34392C7.1401 8.60305 6.98294 7.81504 6.98294 7.00233C6.98294 6.18962 7.14234 5.4016 7.4544 4.66073C7.75749 3.94456 8.19078 3.30023 8.74531 2.74795C9.29759 2.19566 9.94192 1.76012 10.6581 1.45929C11.399 1.14498 12.187 0.985579 12.9997 0.985579C13.8124 0.985579 14.6004 1.14498 15.3413 1.45704C16.0575 1.76012 16.7018 2.19342 17.2541 2.74795C17.8064 3.30023 18.2419 3.94456 18.5427 4.66073C18.857 5.4016 19.0164 6.18962 19.0164 7.00233C19.0164 7.81504 18.857 8.60305 18.545 9.34392C18.4125 9.65823 18.2531 9.95906 18.069 10.2464C18.2194 10.6056 18.3676 10.9626 18.5158 11.3196C19.4475 10.1297 20.0043 8.63224 20.0043 7.00457C20.0043 3.13634 16.8679 0 12.9997 0C9.13146 0 5.99512 3.1341 5.99512 7.00233C5.99512 8.38528 6.39698 9.67394 7.08846 10.7605C7.24112 10.4193 7.42971 10.0983 7.67891 9.81538C7.59809 9.66272 7.524 9.50556 7.4544 9.34392Z" fill="#E5E5E5"/>
<path d="M12.9997 7.99027C13.8124 7.99027 14.6004 8.14966 15.3413 8.46173C16.0575 8.76481 16.7018 9.1981 17.2541 9.75263C17.8064 10.3049 18.2419 10.9492 18.5427 11.6654C18.857 12.4063 19.0164 13.1943 19.0164 14.007C19.0164 14.8197 18.857 15.6077 18.545 16.3486C18.2419 17.0648 17.8086 17.7091 17.2563 18.2614C16.704 18.8137 16.0597 19.2492 15.3435 19.5501C14.6027 19.8644 13.8146 20.0238 13.0019 20.0238C12.1892 20.0238 11.4012 19.8644 10.6603 19.5523C9.94417 19.2492 9.29984 18.8159 8.74755 18.2614C8.19527 17.7091 7.75973 17.0648 7.45665 16.3486C7.14234 15.6077 6.98519 14.8197 6.98519 14.007C6.98519 13.1943 7.14458 12.4063 7.45665 11.6654C7.75973 10.9492 8.19303 10.3049 8.74755 9.75263C9.29984 9.20035 9.94417 8.76481 10.6603 8.46173C11.399 8.14966 12.187 7.99027 12.9997 7.99027ZM12.9997 7.00244C9.13146 7.00244 5.99512 10.1388 5.99512 14.007C5.99512 17.8752 9.13146 21.0116 12.9997 21.0116C16.8679 21.0116 20.0043 17.8752 20.0043 14.007C20.0043 10.1388 16.8679 7.00244 12.9997 7.00244Z" fill="#E5E5E5"/>
<path d="M18.6303 16.667C18.5068 16.9409 18.3586 17.2058 18.1858 17.464C18.1521 17.5156 18.1184 17.565 18.0847 17.6144C18.2599 17.8928 18.4148 18.1846 18.5427 18.49C18.857 19.2308 19.0142 20.0189 19.0142 20.8316C19.0142 21.6443 18.8548 22.4323 18.5427 23.1732C18.2396 23.8893 17.8064 24.5337 17.2541 25.0859C16.7018 25.6382 16.0575 26.0738 15.3413 26.3746C14.6004 26.6889 13.8124 26.8483 12.9997 26.8483C12.187 26.8483 11.399 26.6889 10.6581 26.3769C9.94192 26.0738 9.29759 25.6405 8.74531 25.0882C8.19303 24.5359 7.75749 23.8916 7.4544 23.1754C7.1401 22.4345 6.98294 21.6465 6.98294 20.8338C6.98294 20.0211 7.14234 19.2331 7.4544 18.4922C7.56666 18.2296 7.69462 17.9759 7.84055 17.7334C7.76198 17.5964 7.67891 17.4617 7.58911 17.3315C7.5442 17.2642 7.5442 17.1519 7.4993 17.0846C7.4544 17.0172 7.43195 16.9274 7.4095 16.8601C7.37807 16.8129 7.36909 16.7456 7.35113 16.6917C6.49801 17.8501 5.99512 19.2825 5.99512 20.8316C5.99512 24.6998 9.13146 27.8361 12.9997 27.8361C16.8679 27.8361 20.0043 24.6998 20.0043 20.8316C20.0043 19.2713 19.4946 17.8299 18.6303 16.667Z" fill="#E5E5E5"/>
<path d="M16.7924 6.99117C16.7924 4.90102 15.0996 3.20825 13.0095 3.20825C10.9193 3.20825 9.22656 4.90102 9.22656 6.99117C9.22656 8.53577 10.1538 9.86484 11.4806 10.453C11.5547 10.3453 11.6355 10.242 11.7186 10.141C11.3077 9.9726 10.9283 9.72116 10.6028 9.39787C9.96294 8.75354 9.60822 7.90042 9.60822 6.99117C9.60822 6.08192 9.96294 5.2288 10.605 4.58672C11.2471 3.94463 12.1002 3.58991 13.0095 3.58991C13.9187 3.58991 14.7718 3.94463 15.4139 4.58672C16.056 5.2288 16.4107 6.08417 16.4107 6.99117C16.4107 7.89817 16.056 8.75354 15.4139 9.39562C15.0817 9.72789 14.6955 9.98158 14.2734 10.15C14.3363 10.2622 14.4014 10.3722 14.471 10.48C15.8338 9.90974 16.7924 8.56271 16.7924 6.99117Z" fill="#E5E5E5"/>
<path d="M19.0261 13.7827C18.2313 13.7827 17.4927 14.0274 16.8843 14.4473C16.9404 14.564 16.9921 14.683 17.0437 14.802C17.6184 14.3889 18.3054 14.1666 19.0261 14.1666C19.9353 14.1666 20.7884 14.5213 21.4305 15.1634C22.0726 15.8055 22.4273 16.6609 22.4273 17.5679C22.4273 18.4749 22.0726 19.3302 21.4305 19.9723C20.7884 20.6144 19.9331 20.9691 19.0261 20.9691C18.1191 20.9691 17.2637 20.6144 16.6216 19.9723C15.9795 19.3302 15.6248 18.4749 15.6248 17.5679C15.6248 17.395 15.6383 17.2244 15.663 17.056C15.535 17.0448 15.4093 17.0313 15.2836 17.0223C15.2566 17.2019 15.2432 17.3838 15.2432 17.5701C15.2432 19.6603 16.9359 21.353 19.0261 21.353C21.1162 21.353 22.809 19.6603 22.809 17.5701C22.809 15.48 21.1162 13.7827 19.0261 13.7827Z" fill="#E5E5E5"/>
<path d="M10.3941 17.5656C10.3941 18.4749 10.0394 19.328 9.39733 19.9701C8.75525 20.6122 7.90213 20.9669 6.99288 20.9669C6.08363 20.9669 5.23051 20.6122 4.58843 19.9701C3.94634 19.328 3.59162 18.4749 3.59162 17.5656C3.59162 16.6564 3.94634 15.8033 4.58843 15.1612C5.23051 14.5191 6.08363 14.1644 6.99288 14.1644C7.71803 14.1644 8.40726 14.3889 8.982 14.8065C9.03812 14.6897 9.09425 14.5752 9.15487 14.4607C8.54197 14.0342 7.79661 13.7827 6.99512 13.7827C4.90273 13.7827 3.20996 15.4755 3.20996 17.5656C3.20996 19.6558 4.90273 21.3485 6.99288 21.3485C9.08302 21.3485 10.7758 19.6558 10.7758 17.5656C10.7758 17.3613 10.7601 17.1615 10.7286 16.9662C10.5984 16.9595 10.4682 16.9527 10.338 16.9438C10.3739 17.1458 10.3941 17.3546 10.3941 17.5656Z" fill="#E5E5E5"/>
<path d="M13.1785 17.3745H12.8193V26.1078H13.1785V17.3745Z" fill="#E5E5E5"/>
<path d="M23.2212 7.81769L15.6582 12.1843L15.8378 12.4954L23.4008 8.12877L23.2212 7.81769Z" fill="#E5E5E5"/>
<path d="M2.75089 7.81783L2.57129 8.12891L10.1343 12.4955L10.3139 12.1845L2.75089 7.81783Z" fill="#E5E5E5"/>
<path d="M12.9884 11.8293C14.1716 11.8293 15.1324 12.7901 15.1324 13.9733C15.1324 15.1564 14.1716 16.1173 12.9884 16.1173C11.8053 16.1173 10.8444 15.1564 10.8444 13.9733C10.8444 12.7901 11.8053 11.8293 12.9884 11.8293ZM12.9884 11.1108C11.4079 11.1108 10.126 12.3928 10.126 13.9733C10.126 15.5538 11.4079 16.8357 12.9884 16.8357C14.5689 16.8357 15.8509 15.5538 15.8509 13.9733C15.8509 12.3928 14.5689 11.1108 12.9884 11.1108Z" fill="#E5E5E5"/>
</svg>
