<svg width="26" height="26" viewBox="0 0 26 26" fill="none" xmlns="http://www.w3.org/2000/svg">
<path d="M13.1625 17.875V20.15" stroke="#E5E5E5" stroke-width="1.5" stroke-linecap="round" stroke-linejoin="round"/>
<path d="M7.74585 23.8333H18.5792V22.75C18.5792 21.5583 17.6042 20.5833 16.4125 20.5833H9.91252C8.72085 20.5833 7.74585 21.5583 7.74585 22.75V23.8333V23.8333Z" stroke="#E5E5E5" stroke-width="1.5" stroke-miterlimit="10"/>
<path d="M6.66248 23.8333H19.6625" stroke="#E5E5E5" stroke-width="1.5" stroke-linecap="round" stroke-linejoin="round"/>
<path d="M13 17.3334C8.80746 17.3334 5.41663 13.9425 5.41663 9.75002V6.50002C5.41663 4.10585 7.35579 2.16669 9.74996 2.16669H16.25C18.6441 2.16669 20.5833 4.10585 20.5833 6.50002V9.75002C20.5833 13.9425 17.1925 17.3334 13 17.3334Z" stroke="#E5E5E5" stroke-width="1.5" stroke-linecap="round" stroke-linejoin="round"/>
<path d="M5.92579 12.6209C5.11329 12.3609 4.39829 11.8842 3.83496 11.3209C2.85996 10.2375 2.20996 8.93752 2.20996 7.42086C2.20996 5.90419 3.40163 4.71252 4.91829 4.71252H5.62246C5.40579 5.21086 5.29746 5.76336 5.29746 6.33752V9.58752C5.29746 10.6709 5.52496 11.6892 5.92579 12.6209Z" stroke="#E5E5E5" stroke-width="1.5" stroke-linecap="round" stroke-linejoin="round"/>
<path d="M20.0742 12.6209C20.8867 12.3609 21.6017 11.8842 22.1651 11.3209C23.1401 10.2375 23.7901 8.93752 23.7901 7.42086C23.7901 5.90419 22.5984 4.71252 21.0817 4.71252H20.3776C20.5942 5.21086 20.7026 5.76336 20.7026 6.33752V9.58752C20.7026 10.6709 20.4751 11.6892 20.0742 12.6209Z" stroke="#E5E5E5" stroke-width="1.5" stroke-linecap="round" stroke-linejoin="round"/>
</svg>
