<svg width="26" height="26" viewBox="0 0 26 26" fill="none" xmlns="http://www.w3.org/2000/svg">
<path d="M13 23.8333C18.983 23.8333 23.8333 18.983 23.8333 13C23.8333 7.01687 18.983 2.16663 13 2.16663C7.01687 2.16663 2.16663 7.01687 2.16663 13C2.16663 18.983 7.01687 23.8333 13 23.8333Z" stroke="#E5E5E5" stroke-width="1.5" stroke-linecap="round" stroke-linejoin="round"/>
<path d="M8.66669 3.25H9.75002C7.63752 9.57667 7.63752 16.4233 9.75002 22.75H8.66669" stroke="#E5E5E5" stroke-width="1.5" stroke-linecap="round" stroke-linejoin="round"/>
<path d="M16.25 3.25C18.3625 9.57667 18.3625 16.4233 16.25 22.75" stroke="#E5E5E5" stroke-width="1.5" stroke-linecap="round" stroke-linejoin="round"/>
<path d="M3.25 17.3333V16.25C9.57667 18.3625 16.4233 18.3625 22.75 16.25V17.3333" stroke="#E5E5E5" stroke-width="1.5" stroke-linecap="round" stroke-linejoin="round"/>
<path d="M3.25 9.75002C9.57667 7.63752 16.4233 7.63752 22.75 9.75002" stroke="#E5E5E5" stroke-width="1.5" stroke-linecap="round" stroke-linejoin="round"/>
</svg>
