<svg width="24" height="24" viewBox="0 0 24 24" fill="none" xmlns="http://www.w3.org/2000/svg">
<path d="M18.5434 13.6791C18.0884 14.1233 17.8284 14.7625 17.8934 15.445C17.9909 16.615 19.0634 17.4708 20.2334 17.4708H22.2917V18.76C22.2917 21.0025 20.4609 22.8333 18.2184 22.8333H5.78171C3.53921 22.8333 1.70837 21.0025 1.70837 18.76V11.4692C1.70837 9.22666 3.53921 7.39581 5.78171 7.39581H18.2184C20.4609 7.39581 22.2917 9.22666 22.2917 11.4692V13.0292H20.1034C19.4967 13.0292 18.9442 13.2675 18.5434 13.6791Z" stroke="#E5E5E5" stroke-width="1.5" stroke-linecap="round" stroke-linejoin="round"/>
<path d="M1.70837 12.4442V7.49339C1.70837 6.20422 2.49921 5.05584 3.70171 4.60084L12.3034 1.35084C13.6467 0.841671 15.0875 1.83837 15.0875 3.2792V7.39586" stroke="#E5E5E5" stroke-width="1.5" stroke-linecap="round" stroke-linejoin="round"/>
</svg>
