<svg width="26" height="26" viewBox="0 0 26 26" fill="none" xmlns="http://www.w3.org/2000/svg">
<g clip-path="url(#clip0_417_4401)">
<path d="M14.6826 13.2298L15.2155 13.759L25.2425 3.8297V6.67062L16.674 15.2073L17.1788 15.7086L23.8261 9.12161V11.865L18.5672 17.0873L19.1281 17.6444L24.5834 12.1714L24.5974 8.35568L25.9998 6.94914V1.99146L14.6826 13.2298Z" fill="#E5E5E5" stroke="#E5E5E5" stroke-width="0.1"/>
<path d="M12.1301 10.709L13.4764 12.0459V10.2634L11.3027 7.64526L12.1301 10.709Z" fill="#E5E5E5" stroke="#E5E5E5" stroke-width="0.1"/>
<path d="M13.7432 10.2634V11.9903L14.5565 10.8901L14.5425 8.55054L13.7432 10.2634Z" fill="#E5E5E5" stroke="#E5E5E5" stroke-width="0.1"/>
<path d="M13.9258 12.1296H14.5568L15.9172 10.7927L14.7251 11.0852L13.9258 12.1296Z" fill="#E5E5E5" stroke="#E5E5E5" stroke-width="0.1"/>
<path d="M5.7215 19.3016L11.3029 19.3294L10.5316 18.5635L4.9502 18.5496L5.7215 19.3016Z" fill="#E5E5E5" stroke="#E5E5E5" stroke-width="0.1"/>
<path d="M7.62873 21.1954H13.1961L12.4248 20.4434H6.85742L7.62873 21.1954Z" fill="#E5E5E5" stroke="#E5E5E5" stroke-width="0.1"/>
<path d="M18.9741 18.842L0 0V4.91591L2.59439 7.49223V11.1409L8.6246 17.1152H9.6904L3.3657 10.8345V8.24424L13.5469 18.3546H14.6408L0.757282 4.59561V1.82432L18.4272 19.3712C20.7691 21.6968 19.8155 23.9668 19.2967 24.8302L18.6936 24.2453C17.2913 22.8527 15.4401 22.1146 13.4628 22.1146H8.55448L9.25566 22.8109H13.4628C15.2298 22.8109 16.8986 23.5072 18.1467 24.7467L19.3808 25.9861L19.6473 25.6518C19.7033 25.624 22.3679 22.2121 18.9741 18.842Z" fill="#E5E5E5" stroke="#E5E5E5" stroke-width="0.1"/>
</g>
<defs>
<clipPath id="clip0_417_4401">
<rect width="26" height="26" fill="white"/>
</clipPath>
</defs>
</svg>
