<svg width="26" height="26" viewBox="0 0 26 26" fill="none" xmlns="http://www.w3.org/2000/svg">
<path d="M20.0092 18.2325L20.4317 21.6558C20.54 22.5549 19.5758 23.1833 18.8067 22.7174L14.2675 20.0199C13.7692 20.0199 13.2817 19.9875 12.805 19.9225C13.6067 18.98 14.0833 17.7883 14.0833 16.4991C14.0833 13.4224 11.4183 10.9308 8.125 10.9308C6.86833 10.9308 5.70917 11.2883 4.745 11.9166C4.7125 11.6458 4.70166 11.3749 4.70166 11.0933C4.70166 6.16412 8.98083 2.16663 14.2675 2.16663C19.5542 2.16663 23.8333 6.16412 23.8333 11.0933C23.8333 14.0183 22.3275 16.6075 20.0092 18.2325Z" stroke="#E5E5E5" stroke-width="1.5" stroke-linecap="round" stroke-linejoin="round"/>
<path d="M14.0833 16.4992C14.0833 17.7884 13.6066 18.9801 12.805 19.9226C11.7325 21.2226 10.0316 22.0567 8.12496 22.0567L5.29746 23.7359C4.82079 24.0284 4.21412 23.6275 4.27912 23.075L4.54996 20.9409C3.09829 19.9334 2.16663 18.3192 2.16663 16.4992C2.16663 14.5925 3.18496 12.9134 4.74496 11.9167C5.70913 11.2884 6.86829 10.9309 8.12496 10.9309C11.4183 10.9309 14.0833 13.4225 14.0833 16.4992Z" stroke="#E5E5E5" stroke-width="1.5" stroke-linecap="round" stroke-linejoin="round"/>
</svg>
