<svg width="26" height="26" viewBox="0 0 26 26" fill="none" xmlns="http://www.w3.org/2000/svg">
<path d="M19.5 7.75663C19.435 7.7458 19.3592 7.7458 19.2942 7.75663C17.7992 7.70246 16.6075 6.47829 16.6075 4.96163C16.6075 3.41246 17.8534 2.16663 19.4025 2.16663C20.9517 2.16663 22.1975 3.42329 22.1975 4.96163C22.1867 6.47829 20.995 7.70246 19.5 7.75663Z" stroke="#E5E5E5" stroke-width="1.5" stroke-linecap="round" stroke-linejoin="round"/>
<path d="M18.3842 15.6433C19.8684 15.8925 21.5042 15.6325 22.6525 14.8633C24.18 13.845 24.18 12.1767 22.6525 11.1583C21.4934 10.3892 19.8359 10.1292 18.3517 10.3892" stroke="#E5E5E5" stroke-width="1.5" stroke-linecap="round" stroke-linejoin="round"/>
<path d="M6.46752 7.75663C6.53252 7.7458 6.60835 7.7458 6.67335 7.75663C8.16835 7.70246 9.36002 6.47829 9.36002 4.96163C9.36002 3.41246 8.11419 2.16663 6.56502 2.16663C5.01585 2.16663 3.77002 3.42329 3.77002 4.96163C3.78085 6.47829 4.97252 7.70246 6.46752 7.75663Z" stroke="#E5E5E5" stroke-width="1.5" stroke-linecap="round" stroke-linejoin="round"/>
<path d="M7.58339 15.6433C6.09922 15.8925 4.46339 15.6325 3.31506 14.8633C1.78756 13.845 1.78756 12.1767 3.31506 11.1583C4.47423 10.3892 6.13172 10.1292 7.61589 10.3892" stroke="#E5E5E5" stroke-width="1.5" stroke-linecap="round" stroke-linejoin="round"/>
<path d="M13 15.8492C12.935 15.8383 12.8592 15.8383 12.7942 15.8492C11.2992 15.795 10.1075 14.5708 10.1075 13.0542C10.1075 11.505 11.3534 10.2592 12.9025 10.2592C14.4517 10.2592 15.6975 11.5158 15.6975 13.0542C15.6867 14.5708 14.495 15.8058 13 15.8492Z" stroke="#E5E5E5" stroke-width="1.5" stroke-linecap="round" stroke-linejoin="round"/>
<path d="M9.84753 19.2616C8.32003 20.28 8.32003 21.9483 9.84753 22.9666C11.5809 24.1258 14.4192 24.1258 16.1525 22.9666C17.68 21.9483 17.68 20.28 16.1525 19.2616C14.43 18.1133 11.5809 18.1133 9.84753 19.2616Z" stroke="#E5E5E5" stroke-width="1.5" stroke-linecap="round" stroke-linejoin="round"/>
</svg>
