<svg width="26" height="26" viewBox="0 0 26 26" fill="none" xmlns="http://www.w3.org/2000/svg">
<path d="M3.25 9.86916V16.12C3.25 18.4167 3.25 18.4167 5.41667 19.8792L11.375 23.3242C12.2742 23.8442 13.7367 23.8442 14.625 23.3242L20.5833 19.8792C22.75 18.4167 22.75 18.4167 22.75 16.1308V9.86916C22.75 7.58333 22.75 7.58333 20.5833 6.12083L14.625 2.67583C13.7367 2.15583 12.2742 2.15583 11.375 2.67583L5.41667 6.12083C3.25 7.58333 3.25 7.58333 3.25 9.86916Z" stroke="#E5E5E5" stroke-width="1.5" stroke-linecap="round" stroke-linejoin="round"/>
<path d="M13 16.25C14.7949 16.25 16.25 14.7949 16.25 13C16.25 11.2051 14.7949 9.75 13 9.75C11.2051 9.75 9.75 11.2051 9.75 13C9.75 14.7949 11.2051 16.25 13 16.25Z" stroke="#E5E5E5" stroke-width="1.5" stroke-linecap="round" stroke-linejoin="round"/>
</svg>
