<svg width="26" height="26" viewBox="0 0 26 26" fill="none" xmlns="http://www.w3.org/2000/svg">
<path d="M10.8875 2.74081L4.36585 6.99831C2.27502 8.36331 2.27502 11.4183 4.36585 12.7833L10.8875 17.0408C12.0575 17.81 13.9859 17.81 15.1559 17.0408L21.645 12.7833C23.725 11.4183 23.725 8.37414 21.645 7.00914L15.1559 2.75164C13.9859 1.97164 12.0575 1.97164 10.8875 2.74081Z" stroke="#E5E5E5" stroke-width="1.5" stroke-linecap="round" stroke-linejoin="round"/>
<path d="M6.09921 14.17L6.08838 19.2508C6.08838 20.6266 7.15005 22.1 8.45005 22.5333L11.9059 23.6816C12.5017 23.8766 13.4875 23.8766 14.0942 23.6816L17.55 22.5333C18.85 22.1 19.9117 20.6266 19.9117 19.2508V14.2241" stroke="#E5E5E5" stroke-width="1.5" stroke-linecap="round" stroke-linejoin="round"/>
<path d="M23.1833 16.25V9.75" stroke="#E5E5E5" stroke-width="1.5" stroke-linecap="round" stroke-linejoin="round"/>
</svg>
