<svg width="26" height="26" viewBox="0 0 26 26" fill="none" xmlns="http://www.w3.org/2000/svg">
<path d="M19.6517 23.4217C18.6984 23.7033 17.5717 23.8334 16.2501 23.8334H9.75006C8.42839 23.8334 7.30172 23.7033 6.34839 23.4217C6.58672 20.605 9.47922 18.3842 13.0001 18.3842C16.5209 18.3842 19.4134 20.605 19.6517 23.4217Z" stroke="#E5E5E5" stroke-width="1.5" stroke-linecap="round" stroke-linejoin="round"/>
<path d="M16.25 2.16669H9.74996C4.33329 2.16669 2.16663 4.33335 2.16663 9.75002V16.25C2.16663 20.345 3.40163 22.5875 6.34829 23.4217C6.58663 20.605 9.47913 18.3842 13 18.3842C16.5208 18.3842 19.4133 20.605 19.6516 23.4217C22.5983 22.5875 23.8333 20.345 23.8333 16.25V9.75002C23.8333 4.33335 21.6666 2.16669 16.25 2.16669ZM13 15.3508C10.855 15.3508 9.12162 13.6067 9.12162 11.4617C9.12162 9.31671 10.855 7.58335 13 7.58335C15.145 7.58335 16.8783 9.31671 16.8783 11.4617C16.8783 13.6067 15.145 15.3508 13 15.3508Z" stroke="#E5E5E5" stroke-width="1.5" stroke-linecap="round" stroke-linejoin="round"/>
<path d="M16.8784 11.4617C16.8784 13.6067 15.145 15.3508 13 15.3508C10.855 15.3508 9.1217 13.6067 9.1217 11.4617C9.1217 9.31666 10.855 7.58331 13 7.58331C15.145 7.58331 16.8784 9.31666 16.8784 11.4617Z" stroke="#E5E5E5" stroke-width="1.5" stroke-linecap="round" stroke-linejoin="round"/>
</svg>
