<svg width="24" height="19" viewBox="0 0 24 19" fill="none" xmlns="http://www.w3.org/2000/svg">
<path fill-rule="evenodd" clip-rule="evenodd" d="M11.8773 11.6158L11.9996 11.6159L12.2733 11.6168C14.3647 11.6306 19.1443 11.8418 19.1443 15.0814C19.1443 18.2997 14.5314 18.5096 12.3059 18.5233L11.4813 18.5233C9.38975 18.5095 4.60923 18.2985 4.60923 15.063C4.60923 11.8406 9.38975 11.6305 11.4813 11.6168L11.755 11.6159C11.7974 11.6158 11.8382 11.6158 11.8773 11.6158ZM11.8773 13.2408C9.30331 13.2408 6.23423 13.5571 6.23423 15.063C6.23423 16.5347 9.12013 16.8788 11.642 16.8983L11.8773 16.8992C14.4513 16.8992 17.5193 16.584 17.5193 15.0814C17.5193 13.5604 14.4513 13.2408 11.8773 13.2408ZM20.4937 11.1762C23.1186 11.5694 23.67 12.8023 23.67 13.7675C23.67 14.3569 23.4382 15.4326 21.889 16.023C21.7937 16.0588 21.6962 16.0761 21.5998 16.0761C21.2726 16.0761 20.9639 15.8768 20.8404 15.5529C20.68 15.1336 20.8913 14.6635 21.3105 14.5042C22.045 14.2247 22.045 13.9159 22.045 13.7675C22.045 13.293 21.4416 12.9615 20.2521 12.7839C19.809 12.7167 19.5025 12.304 19.5685 11.8587C19.6346 11.4145 20.0463 11.1188 20.4937 11.1762ZM4.185 11.8587C4.25108 12.304 3.9445 12.7167 3.50141 12.7839C2.31191 12.9615 1.7085 13.293 1.7085 13.7675C1.7085 13.9159 1.7085 14.2236 2.44408 14.5042C2.86333 14.6635 3.07458 15.1336 2.91425 15.5529C2.79075 15.8768 2.482 16.0761 2.15483 16.0761C2.05841 16.0761 1.96091 16.0588 1.86558 16.023C0.315329 15.4315 0.0834961 14.3558 0.0834961 13.7675C0.0834961 12.8034 0.634913 11.5694 3.26091 11.1762C3.70833 11.1199 4.11783 11.4145 4.185 11.8587ZM11.8773 0.333984C14.6073 0.333984 16.8271 2.55482 16.8271 5.28373C16.8271 8.01265 14.6073 10.2335 11.8773 10.2335H11.8481C10.5264 10.2291 9.28815 9.71132 8.36081 8.77532C7.43131 7.8404 6.92323 6.5989 6.9286 5.28048C6.9286 2.55482 9.1484 0.333984 11.8773 0.333984ZM11.8773 1.95898C10.0443 1.95898 8.55362 3.45073 8.55362 5.28373C8.5504 6.17207 8.89056 7.00298 9.51348 7.63023C10.1364 8.25748 10.9662 8.60523 11.8502 8.60848L11.8773 9.42098V8.60848C13.7103 8.60848 15.2021 7.11782 15.2021 5.28373C15.2021 3.45073 13.7103 1.95898 11.8773 1.95898ZM18.5821 1.39511C20.4866 1.70819 21.87 3.33753 21.87 5.26911C21.8656 7.21369 20.4129 8.88202 18.49 9.15178C18.4521 9.15719 18.4141 9.15936 18.3773 9.15936C17.9786 9.15936 17.6309 8.86578 17.5735 8.45953C17.5117 8.01428 17.8205 7.60369 18.2657 7.54194C19.3924 7.38378 20.2428 6.40661 20.245 5.26694C20.245 4.13703 19.4346 3.18153 18.3177 2.99844C17.8757 2.92586 17.5756 2.50769 17.6482 2.06461C17.7219 1.62153 18.1368 1.32469 18.5821 1.39511ZM6.1064 2.06461C6.17898 2.50769 5.8789 2.92586 5.4369 2.99844C4.31998 3.18153 3.50965 4.13703 3.50965 5.26911C3.51181 6.40661 4.36223 7.38486 5.48781 7.54194C5.93306 7.60369 6.24181 8.01428 6.18006 8.45953C6.12265 8.86578 5.7749 9.15936 5.37623 9.15936C5.3394 9.15936 5.30148 9.15719 5.26356 9.15178C3.34065 8.88202 1.88898 7.21369 1.88465 5.27128C1.88465 3.33753 3.26806 1.70819 5.17256 1.39511C5.62865 1.32361 6.03273 1.62369 6.1064 2.06461Z" fill="white"/>
</svg>
