<svg width="320" height="100" viewBox="0 0 320 100" fill="none" xmlns="http://www.w3.org/2000/svg">
<rect width="320" height="100" fill="white"/>
<path d="M101.02 53.5H93.58L92.04 57H89.98L96.32 43H98.3L104.66 57H102.56L101.02 53.5ZM100.32 51.9L97.3 45.04L94.28 51.9H100.32ZM110.991 57.12C109.911 57.12 108.944 56.8867 108.091 56.42C107.251 55.9533 106.591 55.3133 106.111 54.5C105.631 53.6733 105.391 52.74 105.391 51.7C105.391 50.66 105.631 49.7333 106.111 48.92C106.591 48.0933 107.251 47.4533 108.091 47C108.944 46.5333 109.911 46.3 110.991 46.3C111.951 46.3 112.804 46.4933 113.551 46.88C114.311 47.2667 114.897 47.8267 115.311 48.56L113.851 49.5C113.517 48.9933 113.104 48.6133 112.611 48.36C112.117 48.1067 111.571 47.98 110.971 47.98C110.277 47.98 109.651 48.1333 109.091 48.44C108.544 48.7467 108.111 49.1867 107.791 49.76C107.484 50.32 107.331 50.9667 107.331 51.7C107.331 52.4467 107.484 53.1067 107.791 53.68C108.111 54.24 108.544 54.6733 109.091 54.98C109.651 55.2867 110.277 55.44 110.971 55.44C111.571 55.44 112.117 55.3133 112.611 55.06C113.104 54.8067 113.517 54.4267 113.851 53.92L115.311 54.84C114.897 55.5733 114.311 56.14 113.551 56.54C112.804 56.9267 111.951 57.12 110.991 57.12ZM122.26 57.12C121.18 57.12 120.214 56.8867 119.36 56.42C118.52 55.9533 117.86 55.3133 117.38 54.5C116.9 53.6733 116.66 52.74 116.66 51.7C116.66 50.66 116.9 49.7333 117.38 48.92C117.86 48.0933 118.52 47.4533 119.36 47C120.214 46.5333 121.18 46.3 122.26 46.3C123.22 46.3 124.074 46.4933 124.82 46.88C125.58 47.2667 126.167 47.8267 126.58 48.56L125.12 49.5C124.787 48.9933 124.374 48.6133 123.88 48.36C123.387 48.1067 122.84 47.98 122.24 47.98C121.547 47.98 120.92 48.1333 120.36 48.44C119.814 48.7467 119.38 49.1867 119.06 49.76C118.754 50.32 118.6 50.9667 118.6 51.7C118.6 52.4467 118.754 53.1067 119.06 53.68C119.38 54.24 119.814 54.6733 120.36 54.98C120.92 55.2867 121.547 55.44 122.24 55.44C122.84 55.44 123.387 55.3133 123.88 55.06C124.374 54.8067 124.787 54.4267 125.12 53.92L126.58 54.84C126.167 55.5733 125.58 56.14 124.82 56.54C124.074 56.9267 123.22 57.12 122.26 57.12ZM133.45 57.12C132.397 57.12 131.45 56.8867 130.61 56.42C129.77 55.9533 129.11 55.3133 128.63 54.5C128.163 53.6733 127.93 52.74 127.93 51.7C127.93 50.66 128.163 49.7333 128.63 48.92C129.11 48.0933 129.77 47.4533 130.61 47C131.45 46.5333 132.397 46.3 133.45 46.3C134.503 46.3 135.443 46.5333 136.27 47C137.11 47.4533 137.763 48.0933 138.23 48.92C138.71 49.7333 138.95 50.66 138.95 51.7C138.95 52.74 138.71 53.6733 138.23 54.5C137.763 55.3133 137.11 55.9533 136.27 56.42C135.443 56.8867 134.503 57.12 133.45 57.12ZM133.45 55.44C134.13 55.44 134.737 55.2867 135.27 54.98C135.817 54.66 136.243 54.22 136.55 53.66C136.857 53.0867 137.01 52.4333 137.01 51.7C137.01 50.9667 136.857 50.32 136.55 49.76C136.243 49.1867 135.817 48.7467 135.27 48.44C134.737 48.1333 134.13 47.98 133.45 47.98C132.77 47.98 132.157 48.1333 131.61 48.44C131.077 48.7467 130.65 49.1867 130.33 49.76C130.023 50.32 129.87 50.9667 129.87 51.7C129.87 52.4333 130.023 53.0867 130.33 53.66C130.65 54.22 131.077 54.66 131.61 54.98C132.157 55.2867 132.77 55.44 133.45 55.44ZM151.485 46.4V57H149.665V55.4C149.278 55.9467 148.765 56.3733 148.125 56.68C147.498 56.9733 146.812 57.12 146.065 57.12C144.652 57.12 143.538 56.7333 142.725 55.96C141.912 55.1733 141.505 54.02 141.505 52.5V46.4H143.425V52.28C143.425 53.3067 143.672 54.0867 144.165 54.62C144.658 55.14 145.365 55.4 146.285 55.4C147.298 55.4 148.098 55.0933 148.685 54.48C149.272 53.8667 149.565 53 149.565 51.88V46.4H151.485ZM160.8 46.3C162.147 46.3 163.214 46.6933 164 47.48C164.8 48.2533 165.2 49.3933 165.2 50.9V57H163.28V51.12C163.28 50.0933 163.034 49.32 162.54 48.8C162.047 48.28 161.34 48.02 160.42 48.02C159.38 48.02 158.56 48.3267 157.96 48.94C157.36 49.54 157.06 50.4067 157.06 51.54V57H155.14V46.4H156.98V48C157.367 47.4533 157.887 47.0333 158.54 46.74C159.207 46.4467 159.96 46.3 160.8 46.3ZM174.714 56.38C174.434 56.62 174.087 56.8067 173.674 56.94C173.26 57.06 172.834 57.12 172.394 57.12C171.327 57.12 170.5 56.8333 169.914 56.26C169.327 55.6867 169.034 54.8667 169.034 53.8V47.98H167.234V46.4H169.034V44.08H170.954V46.4H173.994V47.98H170.954V53.72C170.954 54.2933 171.094 54.7333 171.374 55.04C171.667 55.3467 172.08 55.5 172.614 55.5C173.2 55.5 173.7 55.3333 174.114 55L174.714 56.38ZM186.766 57.16C185.713 57.16 184.693 57 183.706 56.68C182.733 56.3467 181.966 55.92 181.406 55.4L182.146 53.84C182.679 54.32 183.359 54.7133 184.186 55.02C185.026 55.3133 185.886 55.46 186.766 55.46C187.926 55.46 188.793 55.2667 189.366 54.88C189.939 54.48 190.226 53.9533 190.226 53.3C190.226 52.82 190.066 52.4333 189.746 52.14C189.439 51.8333 189.053 51.6 188.586 51.44C188.133 51.28 187.486 51.1 186.646 50.9C185.593 50.6467 184.739 50.3933 184.086 50.14C183.446 49.8867 182.893 49.5 182.426 48.98C181.973 48.4467 181.746 47.7333 181.746 46.84C181.746 46.0933 181.939 45.42 182.326 44.82C182.726 44.22 183.326 43.74 184.126 43.38C184.926 43.02 185.919 42.84 187.106 42.84C187.933 42.84 188.746 42.9467 189.546 43.16C190.346 43.3733 191.033 43.68 191.606 44.08L190.946 45.68C190.359 45.3067 189.733 45.0267 189.066 44.84C188.399 44.64 187.746 44.54 187.106 44.54C185.973 44.54 185.119 44.7467 184.546 45.16C183.986 45.5733 183.706 46.1067 183.706 46.76C183.706 47.24 183.866 47.6333 184.186 47.94C184.506 48.2333 184.899 48.4667 185.366 48.64C185.846 48.8 186.493 48.9733 187.306 49.16C188.359 49.4133 189.206 49.6667 189.846 49.92C190.486 50.1733 191.033 50.56 191.486 51.08C191.953 51.6 192.186 52.3 192.186 53.18C192.186 53.9133 191.986 54.5867 191.586 55.2C191.186 55.8 190.579 56.28 189.766 56.64C188.953 56.9867 187.953 57.16 186.766 57.16ZM204.408 51.76C204.408 51.9067 204.394 52.1 204.368 52.34H195.768C195.888 53.2733 196.294 54.0267 196.988 54.6C197.694 55.16 198.568 55.44 199.608 55.44C200.874 55.44 201.894 55.0133 202.668 54.16L203.728 55.4C203.248 55.96 202.648 56.3867 201.928 56.68C201.221 56.9733 200.428 57.12 199.548 57.12C198.428 57.12 197.434 56.8933 196.568 56.44C195.701 55.9733 195.028 55.3267 194.548 54.5C194.081 53.6733 193.848 52.74 193.848 51.7C193.848 50.6733 194.074 49.7467 194.528 48.92C194.994 48.0933 195.628 47.4533 196.428 47C197.241 46.5333 198.154 46.3 199.168 46.3C200.181 46.3 201.081 46.5333 201.868 47C202.668 47.4533 203.288 48.0933 203.728 48.92C204.181 49.7467 204.408 50.6933 204.408 51.76ZM199.168 47.92C198.248 47.92 197.474 48.2 196.848 48.76C196.234 49.32 195.874 50.0533 195.768 50.96H202.568C202.461 50.0667 202.094 49.34 201.468 48.78C200.854 48.2067 200.088 47.92 199.168 47.92ZM213.034 56.38C212.754 56.62 212.407 56.8067 211.994 56.94C211.581 57.06 211.154 57.12 210.714 57.12C209.647 57.12 208.821 56.8333 208.234 56.26C207.647 55.6867 207.354 54.8667 207.354 53.8V47.98H205.554V46.4H207.354V44.08H209.274V46.4H212.314V47.98H209.274V53.72C209.274 54.2933 209.414 54.7333 209.694 55.04C209.987 55.3467 210.401 55.5 210.934 55.5C211.521 55.5 212.021 55.3333 212.434 55L213.034 56.38ZM221.061 56.38C220.781 56.62 220.435 56.8067 220.021 56.94C219.608 57.06 219.181 57.12 218.741 57.12C217.675 57.12 216.848 56.8333 216.261 56.26C215.675 55.6867 215.381 54.8667 215.381 53.8V47.98H213.581V46.4H215.381V44.08H217.301V46.4H220.341V47.98H217.301V53.72C217.301 54.2933 217.441 54.7333 217.721 55.04C218.015 55.3467 218.428 55.5 218.961 55.5C219.548 55.5 220.048 55.3333 220.461 55L221.061 56.38ZM223.383 46.4H225.303V57H223.383V46.4ZM224.343 44.36C223.969 44.36 223.656 44.24 223.403 44C223.163 43.76 223.043 43.4667 223.043 43.12C223.043 42.7733 223.163 42.48 223.403 42.24C223.656 41.9867 223.969 41.86 224.343 41.86C224.716 41.86 225.023 41.98 225.263 42.22C225.516 42.4467 225.643 42.7333 225.643 43.08C225.643 43.44 225.516 43.7467 225.263 44C225.023 44.24 224.716 44.36 224.343 44.36ZM234.628 46.3C235.975 46.3 237.042 46.6933 237.828 47.48C238.628 48.2533 239.028 49.3933 239.028 50.9V57H237.108V51.12C237.108 50.0933 236.862 49.32 236.368 48.8C235.875 48.28 235.168 48.02 234.248 48.02C233.208 48.02 232.388 48.3267 231.788 48.94C231.188 49.54 230.888 50.4067 230.888 51.54V57H228.968V46.4H230.808V48C231.195 47.4533 231.715 47.0333 232.368 46.74C233.035 46.4467 233.788 46.3 234.628 46.3ZM252.78 46.4V55.56C252.78 57.4133 252.32 58.78 251.4 59.66C250.48 60.5533 249.107 61 247.28 61C246.28 61 245.327 60.86 244.42 60.58C243.514 60.3133 242.78 59.9267 242.22 59.42L243.14 57.94C243.634 58.3667 244.24 58.7 244.96 58.94C245.694 59.1933 246.447 59.32 247.22 59.32C248.46 59.32 249.374 59.0267 249.96 58.44C250.56 57.8533 250.86 56.96 250.86 55.76V54.92C250.407 55.4667 249.847 55.88 249.18 56.16C248.527 56.4267 247.814 56.56 247.04 56.56C246.027 56.56 245.107 56.3467 244.28 55.92C243.467 55.48 242.827 54.8733 242.36 54.1C241.894 53.3133 241.66 52.42 241.66 51.42C241.66 50.42 241.894 49.5333 242.36 48.76C242.827 47.9733 243.467 47.3667 244.28 46.94C245.107 46.5133 246.027 46.3 247.04 46.3C247.84 46.3 248.58 46.4467 249.26 46.74C249.954 47.0333 250.52 47.4667 250.96 48.04V46.4H252.78ZM247.26 54.88C247.954 54.88 248.574 54.7333 249.12 54.44C249.68 54.1467 250.114 53.74 250.42 53.22C250.74 52.6867 250.9 52.0867 250.9 51.42C250.9 50.3933 250.56 49.5667 249.88 48.94C249.2 48.3 248.327 47.98 247.26 47.98C246.18 47.98 245.3 48.3 244.62 48.94C243.94 49.5667 243.6 50.3933 243.6 51.42C243.6 52.0867 243.754 52.6867 244.06 53.22C244.38 53.74 244.814 54.1467 245.36 54.44C245.92 54.7333 246.554 54.88 247.26 54.88Z" fill="#00B4EE"/>
<path opacity="0.4" d="M68.9167 42.8751V57.125C68.9167 59.4584 67.6667 61.6251 65.6458 62.8126L53.2708 69.9584C51.25 71.1251 48.75 71.1251 46.7083 69.9584L34.3333 62.8126C32.3125 61.6459 31.0625 59.4792 31.0625 57.125V42.8751C31.0625 40.5418 32.3125 38.375 34.3333 37.1875L46.7083 30.0417C48.7292 28.875 51.2292 28.875 53.2708 30.0417L65.6458 37.1875C67.6667 38.375 68.9167 40.5209 68.9167 42.8751Z" fill="#00B4EE"/>
<path d="M50.0007 50C52.6815 50 54.8548 47.8267 54.8548 45.1458C54.8548 42.4649 52.6815 40.2917 50.0007 40.2917C47.3198 40.2917 45.1465 42.4649 45.1465 45.1458C45.1465 47.8267 47.3198 50 50.0007 50Z" fill="#00B4EE"/>
<path d="M55.5841 59.7083C57.2716 59.7083 58.2507 57.8334 57.3132 56.4376C55.8966 54.3334 53.1466 52.9167 50.0007 52.9167C46.8549 52.9167 44.1049 54.3334 42.6882 56.4376C41.7507 57.8334 42.7299 59.7083 44.4174 59.7083H55.5841Z" fill="#00B4EE"/>
</svg>
