<svg width="20" height="20" viewBox="0 0 20 20" fill="none" xmlns="http://www.w3.org/2000/svg">
<path fill-rule="evenodd" clip-rule="evenodd" d="M0 10C0 4.47715 4.47715 0 10 0C12.6522 0 15.1957 1.05357 17.0711 2.92893C18.9464 4.8043 20 7.34784 20 10C20 15.5228 15.5228 20 10 20C4.47715 20 0 15.5228 0 10ZM13.5 11C13.7761 11 14 10.7761 14 10.5V9.5C14 9.22386 13.7761 9 13.5 9H11V6.5C11 6.22386 10.7761 6 10.5 6H9.5C9.22386 6 9 6.22386 9 6.5V9H6.5C6.22386 9 6 9.22386 6 9.5V10.5C6 10.7761 6.22386 11 6.5 11H9V13.5C9 13.7761 9.22386 14 9.5 14H10.5C10.7761 14 11 13.7761 11 13.5V11H13.5Z" fill="#0599CA"/>
</svg>
