<svg width="20" height="20" viewBox="0 0 20 20" fill="none" xmlns="http://www.w3.org/2000/svg">
<path d="M14.9998 4.99935C14.4915 4.99935 14.0248 4.70768 13.7915 4.25768L13.1915 3.04935C12.8081 2.29102 11.8081 1.66602 10.9581 1.66602H9.04981C8.19148 1.66602 7.19148 2.29102 6.80815 3.04935L6.20815 4.25768C5.97481 4.70768 5.50815 4.99935 4.99981 4.99935C3.19148 4.99935 1.75815 6.52435 1.87481 8.32435L2.30815 15.2077C2.40815 16.9243 3.33315 18.3327 5.63315 18.3327H14.3665C16.6665 18.3327 17.5831 16.9243 17.6915 15.2077L18.1248 8.32435C18.2415 6.52435 16.8081 4.99935 14.9998 4.99935ZM8.74981 6.04102H11.2498C11.5915 6.04102 11.8748 6.32435 11.8748 6.66602C11.8748 7.00768 11.5915 7.29102 11.2498 7.29102H8.74981C8.40815 7.29102 8.12481 7.00768 8.12481 6.66602C8.12481 6.32435 8.40815 6.04102 8.74981 6.04102ZM9.99981 15.0993C8.44981 15.0993 7.18315 13.841 7.18315 12.2827C7.18315 10.7243 8.44148 9.46602 9.99981 9.46602C11.5581 9.46602 12.8165 10.7243 12.8165 12.2827C12.8165 13.841 11.5498 15.0993 9.99981 15.0993Z" fill="white"/>
</svg>
