<svg width="320" height="100" viewBox="0 0 320 100" fill="none" xmlns="http://www.w3.org/2000/svg">
<rect width="320" height="100" fill="white"/>
<path d="M98.36 57.16C96.96 57.16 95.6933 56.8533 94.56 56.24C93.44 55.6133 92.56 54.76 91.92 53.68C91.28 52.5867 90.96 51.36 90.96 50C90.96 48.64 91.28 47.42 91.92 46.34C92.56 45.2467 93.4467 44.3933 94.58 43.78C95.7133 43.1533 96.98 42.84 98.38 42.84C99.4733 42.84 100.473 43.0267 101.38 43.4C102.287 43.76 103.06 44.3 103.7 45.02L102.4 46.28C101.347 45.1733 100.033 44.62 98.46 44.62C97.42 44.62 96.48 44.8533 95.64 45.32C94.8 45.7867 94.14 46.4333 93.66 47.26C93.1933 48.0733 92.96 48.9867 92.96 50C92.96 51.0133 93.1933 51.9333 93.66 52.76C94.14 53.5733 94.8 54.2133 95.64 54.68C96.48 55.1467 97.42 55.38 98.46 55.38C100.02 55.38 101.333 54.82 102.4 53.7L103.7 54.96C103.06 55.68 102.28 56.2267 101.36 56.6C100.453 56.9733 99.4533 57.16 98.36 57.16ZM111.933 46.3C113.28 46.3 114.346 46.6933 115.133 47.48C115.933 48.2533 116.333 49.3933 116.333 50.9V57H114.413V51.12C114.413 50.0933 114.166 49.32 113.673 48.8C113.18 48.28 112.473 48.02 111.553 48.02C110.513 48.02 109.693 48.3267 109.093 48.94C108.493 49.54 108.193 50.4067 108.193 51.54V57H106.273V42.16H108.193V47.9C108.593 47.3933 109.113 47 109.753 46.72C110.406 46.44 111.133 46.3 111.933 46.3ZM129.525 51.76C129.525 51.9067 129.512 52.1 129.485 52.34H120.885C121.005 53.2733 121.412 54.0267 122.105 54.6C122.812 55.16 123.685 55.44 124.725 55.44C125.992 55.44 127.012 55.0133 127.785 54.16L128.845 55.4C128.365 55.96 127.765 56.3867 127.045 56.68C126.338 56.9733 125.545 57.12 124.665 57.12C123.545 57.12 122.552 56.8933 121.685 56.44C120.818 55.9733 120.145 55.3267 119.665 54.5C119.198 53.6733 118.965 52.74 118.965 51.7C118.965 50.6733 119.192 49.7467 119.645 48.92C120.112 48.0933 120.745 47.4533 121.545 47C122.358 46.5333 123.272 46.3 124.285 46.3C125.298 46.3 126.198 46.5333 126.985 47C127.785 47.4533 128.405 48.0933 128.845 48.92C129.298 49.7467 129.525 50.6933 129.525 51.76ZM124.285 47.92C123.365 47.92 122.592 48.2 121.965 48.76C121.352 49.32 120.992 50.0533 120.885 50.96H127.685C127.578 50.0667 127.212 49.34 126.585 48.78C125.972 48.2067 125.205 47.92 124.285 47.92ZM136.811 57.12C135.731 57.12 134.764 56.8867 133.911 56.42C133.071 55.9533 132.411 55.3133 131.931 54.5C131.451 53.6733 131.211 52.74 131.211 51.7C131.211 50.66 131.451 49.7333 131.931 48.92C132.411 48.0933 133.071 47.4533 133.911 47C134.764 46.5333 135.731 46.3 136.811 46.3C137.771 46.3 138.624 46.4933 139.371 46.88C140.131 47.2667 140.718 47.8267 141.131 48.56L139.671 49.5C139.338 48.9933 138.924 48.6133 138.431 48.36C137.938 48.1067 137.391 47.98 136.791 47.98C136.098 47.98 135.471 48.1333 134.911 48.44C134.364 48.7467 133.931 49.1867 133.611 49.76C133.304 50.32 133.151 50.9667 133.151 51.7C133.151 52.4467 133.304 53.1067 133.611 53.68C133.931 54.24 134.364 54.6733 134.911 54.98C135.471 55.2867 136.098 55.44 136.791 55.44C137.391 55.44 137.938 55.3133 138.431 55.06C138.924 54.8067 139.338 54.4267 139.671 53.92L141.131 54.84C140.718 55.5733 140.131 56.14 139.371 56.54C138.624 56.9267 137.771 57.12 136.811 57.12ZM147.6 52.06L145.4 54.1V57H143.48V42.16H145.4V51.68L151.18 46.4H153.5L149.04 50.78L153.94 57H151.58L147.6 52.06ZM155.668 46.4H157.588V57H155.668V46.4ZM156.628 44.36C156.254 44.36 155.941 44.24 155.688 44C155.448 43.76 155.328 43.4667 155.328 43.12C155.328 42.7733 155.448 42.48 155.688 42.24C155.941 41.9867 156.254 41.86 156.628 41.86C157.001 41.86 157.308 41.98 157.548 42.22C157.801 42.4467 157.928 42.7333 157.928 43.08C157.928 43.44 157.801 43.7467 157.548 44C157.308 44.24 157.001 44.36 156.628 44.36ZM166.914 46.3C168.26 46.3 169.327 46.6933 170.114 47.48C170.914 48.2533 171.314 49.3933 171.314 50.9V57H169.394V51.12C169.394 50.0933 169.147 49.32 168.654 48.8C168.16 48.28 167.454 48.02 166.534 48.02C165.494 48.02 164.674 48.3267 164.074 48.94C163.474 49.54 163.174 50.4067 163.174 51.54V57H161.254V46.4H163.094V48C163.48 47.4533 164 47.0333 164.654 46.74C165.32 46.4467 166.074 46.3 166.914 46.3ZM185.065 46.4V55.56C185.065 57.4133 184.605 58.78 183.685 59.66C182.765 60.5533 181.392 61 179.565 61C178.565 61 177.612 60.86 176.705 60.58C175.799 60.3133 175.065 59.9267 174.505 59.42L175.425 57.94C175.919 58.3667 176.525 58.7 177.245 58.94C177.979 59.1933 178.732 59.32 179.505 59.32C180.745 59.32 181.659 59.0267 182.245 58.44C182.845 57.8533 183.145 56.96 183.145 55.76V54.92C182.692 55.4667 182.132 55.88 181.465 56.16C180.812 56.4267 180.099 56.56 179.325 56.56C178.312 56.56 177.392 56.3467 176.565 55.92C175.752 55.48 175.112 54.8733 174.645 54.1C174.179 53.3133 173.945 52.42 173.945 51.42C173.945 50.42 174.179 49.5333 174.645 48.76C175.112 47.9733 175.752 47.3667 176.565 46.94C177.392 46.5133 178.312 46.3 179.325 46.3C180.125 46.3 180.865 46.4467 181.545 46.74C182.239 47.0333 182.805 47.4667 183.245 48.04V46.4H185.065ZM179.545 54.88C180.239 54.88 180.859 54.7333 181.405 54.44C181.965 54.1467 182.399 53.74 182.705 53.22C183.025 52.6867 183.185 52.0867 183.185 51.42C183.185 50.3933 182.845 49.5667 182.165 48.94C181.485 48.3 180.612 47.98 179.545 47.98C178.465 47.98 177.585 48.3 176.905 48.94C176.225 49.5667 175.885 50.3933 175.885 51.42C175.885 52.0867 176.039 52.6867 176.345 53.22C176.665 53.74 177.099 54.1467 177.645 54.44C178.205 54.7333 178.839 54.88 179.545 54.88Z" fill="#00B4EE"/>
<path opacity="0.4" d="M47.834 29.2916L36.3757 33.5833C34.1882 34.4166 32.3965 37 32.3965 39.3541V56.2291C32.3965 57.9166 33.5007 60.1458 34.8548 61.1458L46.3132 69.7083C48.334 71.2291 51.6465 71.2291 53.6673 69.7083L65.1257 61.1458C66.4798 60.125 67.584 57.9166 67.584 56.2291V39.3541C67.584 37.0208 65.7923 34.4166 63.6048 33.6041L52.1465 29.3125C50.9798 28.8541 49.0215 28.8541 47.834 29.2916Z" fill="#00B4EE"/>
<path d="M54.026 50.0334C53.746 50.3067 53.586 50.7001 53.626 51.1201C53.686 51.8401 54.346 52.3667 55.066 52.3667H56.3327V53.1601C56.3327 54.5401 55.206 55.6667 53.826 55.6667H46.1727C44.7927 55.6667 43.666 54.5401 43.666 53.1601V48.6734C43.666 47.2934 44.7927 46.1667 46.1727 46.1667H53.826C55.206 46.1667 56.3327 47.2934 56.3327 48.6734V49.6334H54.986C54.6127 49.6334 54.2727 49.7801 54.026 50.0334Z" stroke="#00B4EE" stroke-width="1.5" stroke-linecap="round" stroke-linejoin="round"/>
<path d="M43.666 49.2734V46.2267C43.666 45.4334 44.1527 44.7267 44.8927 44.4467L50.186 42.4467C51.0127 42.1334 51.8993 42.7467 51.8993 43.6334V46.1667" stroke="#00B4EE" stroke-width="1.5" stroke-linecap="round" stroke-linejoin="round"/>
<path d="M57.0386 50.3134V51.6868C57.0386 52.0534 56.7452 52.3534 56.3719 52.3667H55.0652C54.3452 52.3667 53.6852 51.8401 53.6252 51.1201C53.5852 50.7001 53.7452 50.3067 54.0252 50.0334C54.2719 49.7801 54.6119 49.6334 54.9852 49.6334H56.3719C56.7452 49.6468 57.0386 49.9467 57.0386 50.3134Z" stroke="#00B4EE" stroke-width="1.5" stroke-linecap="round" stroke-linejoin="round"/>
<path d="M46.666 49H51.3327" stroke="#00B4EE" stroke-width="1.5" stroke-linecap="round" stroke-linejoin="round"/>
</svg>
