<svg width="320" height="100" viewBox="0 0 320 100" fill="none" xmlns="http://www.w3.org/2000/svg">
<rect width="320" height="100" fill="white"/>
<path d="M98.36 57.16C96.96 57.16 95.6933 56.8533 94.56 56.24C93.44 55.6133 92.56 54.76 91.92 53.68C91.28 52.5867 90.96 51.36 90.96 50C90.96 48.64 91.28 47.42 91.92 46.34C92.56 45.2467 93.4467 44.3933 94.58 43.78C95.7133 43.1533 96.98 42.84 98.38 42.84C99.4733 42.84 100.473 43.0267 101.38 43.4C102.287 43.76 103.06 44.3 103.7 45.02L102.4 46.28C101.347 45.1733 100.033 44.62 98.46 44.62C97.42 44.62 96.48 44.8533 95.64 45.32C94.8 45.7867 94.14 46.4333 93.66 47.26C93.1933 48.0733 92.96 48.9867 92.96 50C92.96 51.0133 93.1933 51.9333 93.66 52.76C94.14 53.5733 94.8 54.2133 95.64 54.68C96.48 55.1467 97.42 55.38 98.46 55.38C100.02 55.38 101.333 54.82 102.4 53.7L103.7 54.96C103.06 55.68 102.28 56.2267 101.36 56.6C100.453 56.9733 99.4533 57.16 98.36 57.16ZM108.113 48.18C108.446 47.5667 108.94 47.1 109.593 46.78C110.246 46.46 111.04 46.3 111.973 46.3V48.16C111.866 48.1467 111.72 48.14 111.533 48.14C110.493 48.14 109.673 48.4533 109.073 49.08C108.486 49.6933 108.193 50.5733 108.193 51.72V57H106.273V46.4H108.113V48.18ZM123.822 51.76C123.822 51.9067 123.809 52.1 123.782 52.34H115.182C115.302 53.2733 115.709 54.0267 116.402 54.6C117.109 55.16 117.982 55.44 119.022 55.44C120.289 55.44 121.309 55.0133 122.082 54.16L123.142 55.4C122.662 55.96 122.062 56.3867 121.342 56.68C120.635 56.9733 119.842 57.12 118.962 57.12C117.842 57.12 116.849 56.8933 115.982 56.44C115.115 55.9733 114.442 55.3267 113.962 54.5C113.495 53.6733 113.262 52.74 113.262 51.7C113.262 50.6733 113.489 49.7467 113.942 48.92C114.409 48.0933 115.042 47.4533 115.842 47C116.655 46.5333 117.569 46.3 118.582 46.3C119.595 46.3 120.495 46.5333 121.282 47C122.082 47.4533 122.702 48.0933 123.142 48.92C123.595 49.7467 123.822 50.6933 123.822 51.76ZM118.582 47.92C117.662 47.92 116.889 48.2 116.262 48.76C115.649 49.32 115.289 50.0533 115.182 50.96H121.982C121.875 50.0667 121.509 49.34 120.882 48.78C120.269 48.2067 119.502 47.92 118.582 47.92ZM136.488 42.16V57H134.648V55.32C134.221 55.9067 133.681 56.3533 133.028 56.66C132.375 56.9667 131.655 57.12 130.868 57.12C129.841 57.12 128.921 56.8933 128.108 56.44C127.295 55.9867 126.655 55.3533 126.188 54.54C125.735 53.7133 125.508 52.7667 125.508 51.7C125.508 50.6333 125.735 49.6933 126.188 48.88C126.655 48.0667 127.295 47.4333 128.108 46.98C128.921 46.5267 129.841 46.3 130.868 46.3C131.628 46.3 132.328 46.4467 132.968 46.74C133.608 47.02 134.141 47.44 134.568 48V42.16H136.488ZM131.028 55.44C131.695 55.44 132.301 55.2867 132.848 54.98C133.395 54.66 133.821 54.22 134.128 53.66C134.435 53.0867 134.588 52.4333 134.588 51.7C134.588 50.9667 134.435 50.32 134.128 49.76C133.821 49.1867 133.395 48.7467 132.848 48.44C132.301 48.1333 131.695 47.98 131.028 47.98C130.348 47.98 129.735 48.1333 129.188 48.44C128.655 48.7467 128.228 49.1867 127.908 49.76C127.601 50.32 127.448 50.9667 127.448 51.7C127.448 52.4333 127.601 53.0867 127.908 53.66C128.228 54.22 128.655 54.66 129.188 54.98C129.735 55.2867 130.348 55.44 131.028 55.44ZM140.121 46.4H142.041V57H140.121V46.4ZM141.081 44.36C140.707 44.36 140.394 44.24 140.141 44C139.901 43.76 139.781 43.4667 139.781 43.12C139.781 42.7733 139.901 42.48 140.141 42.24C140.394 41.9867 140.707 41.86 141.081 41.86C141.454 41.86 141.761 41.98 142.001 42.22C142.254 42.4467 142.381 42.7333 142.381 43.08C142.381 43.44 142.254 43.7467 142.001 44C141.761 44.24 141.454 44.36 141.081 44.36ZM151.667 56.38C151.387 56.62 151.04 56.8067 150.627 56.94C150.213 57.06 149.787 57.12 149.347 57.12C148.28 57.12 147.453 56.8333 146.867 56.26C146.28 55.6867 145.987 54.8667 145.987 53.8V47.98H144.187V46.4H145.987V44.08H147.907V46.4H150.947V47.98H147.907V53.72C147.907 54.2933 148.047 54.7333 148.327 55.04C148.62 55.3467 149.033 55.5 149.567 55.5C150.153 55.5 150.653 55.3333 151.067 55L151.667 56.38ZM165.899 57.16C164.499 57.16 163.232 56.8533 162.099 56.24C160.979 55.6133 160.099 54.76 159.459 53.68C158.819 52.5867 158.499 51.36 158.499 50C158.499 48.64 158.819 47.42 159.459 46.34C160.099 45.2467 160.986 44.3933 162.119 43.78C163.252 43.1533 164.519 42.84 165.919 42.84C167.012 42.84 168.012 43.0267 168.919 43.4C169.826 43.76 170.599 44.3 171.239 45.02L169.939 46.28C168.886 45.1733 167.572 44.62 165.999 44.62C164.959 44.62 164.019 44.8533 163.179 45.32C162.339 45.7867 161.679 46.4333 161.199 47.26C160.732 48.0733 160.499 48.9867 160.499 50C160.499 51.0133 160.732 51.9333 161.199 52.76C161.679 53.5733 162.339 54.2133 163.179 54.68C164.019 55.1467 164.959 55.38 165.999 55.38C167.559 55.38 168.872 54.82 169.939 53.7L171.239 54.96C170.599 55.68 169.819 56.2267 168.899 56.6C167.992 56.9733 166.992 57.16 165.899 57.16ZM177.535 46.3C179.002 46.3 180.122 46.66 180.895 47.38C181.682 48.1 182.075 49.1733 182.075 50.6V57H180.255V55.6C179.935 56.0933 179.475 56.4733 178.875 56.74C178.289 56.9933 177.589 57.12 176.775 57.12C175.589 57.12 174.635 56.8333 173.915 56.26C173.209 55.6867 172.855 54.9333 172.855 54C172.855 53.0667 173.195 52.32 173.875 51.76C174.555 51.1867 175.635 50.9 177.115 50.9H180.155V50.52C180.155 49.6933 179.915 49.06 179.435 48.62C178.955 48.18 178.249 47.96 177.315 47.96C176.689 47.96 176.075 48.0667 175.475 48.28C174.875 48.48 174.369 48.7533 173.955 49.1L173.155 47.66C173.702 47.22 174.355 46.8867 175.115 46.66C175.875 46.42 176.682 46.3 177.535 46.3ZM177.095 55.64C177.829 55.64 178.462 55.48 178.995 55.16C179.529 54.8267 179.915 54.36 180.155 53.76V52.28H177.195C175.569 52.28 174.755 52.8267 174.755 53.92C174.755 54.4533 174.962 54.8733 175.375 55.18C175.789 55.4867 176.362 55.64 177.095 55.64ZM187.469 48.18C187.802 47.5667 188.295 47.1 188.949 46.78C189.602 46.46 190.395 46.3 191.329 46.3V48.16C191.222 48.1467 191.075 48.14 190.889 48.14C189.849 48.14 189.029 48.4533 188.429 49.08C187.842 49.6933 187.549 50.5733 187.549 51.72V57H185.629V46.4H187.469V48.18ZM203.597 42.16V57H201.757V55.32C201.331 55.9067 200.791 56.3533 200.137 56.66C199.484 56.9667 198.764 57.12 197.977 57.12C196.951 57.12 196.031 56.8933 195.217 56.44C194.404 55.9867 193.764 55.3533 193.297 54.54C192.844 53.7133 192.617 52.7667 192.617 51.7C192.617 50.6333 192.844 49.6933 193.297 48.88C193.764 48.0667 194.404 47.4333 195.217 46.98C196.031 46.5267 196.951 46.3 197.977 46.3C198.737 46.3 199.437 46.4467 200.077 46.74C200.717 47.02 201.251 47.44 201.677 48V42.16H203.597ZM198.137 55.44C198.804 55.44 199.411 55.2867 199.957 54.98C200.504 54.66 200.931 54.22 201.237 53.66C201.544 53.0867 201.697 52.4333 201.697 51.7C201.697 50.9667 201.544 50.32 201.237 49.76C200.931 49.1867 200.504 48.7467 199.957 48.44C199.411 48.1333 198.804 47.98 198.137 47.98C197.457 47.98 196.844 48.1333 196.297 48.44C195.764 48.7467 195.337 49.1867 195.017 49.76C194.711 50.32 194.557 50.9667 194.557 51.7C194.557 52.4333 194.711 53.0867 195.017 53.66C195.337 54.22 195.764 54.66 196.297 54.98C196.844 55.2867 197.457 55.44 198.137 55.44Z" fill="#00B4EE"/>
<path opacity="0.4" d="M70.8327 43.75V59.2917C70.8327 64.0625 66.9577 67.9167 62.1869 67.9167H37.8118C33.041 67.9167 29.166 64.0625 29.166 59.2917V43.75H70.8327Z" fill="#00B4EE"/>
<path d="M70.8327 40.7084V43.75H29.166V40.7084C29.166 35.9375 33.041 32.0834 37.8118 32.0834H62.1869C66.9577 32.0834 70.8327 35.9375 70.8327 40.7084Z" fill="#00B4EE"/>
<path d="M41.6667 60.9375H37.5C36.6458 60.9375 35.9375 60.2292 35.9375 59.375C35.9375 58.5208 36.6458 57.8125 37.5 57.8125H41.6667C42.5208 57.8125 43.2292 58.5208 43.2292 59.375C43.2292 60.2292 42.5208 60.9375 41.6667 60.9375Z" fill="#00B4EE"/>
<path d="M55.2083 60.9375H46.875C46.0208 60.9375 45.3125 60.2292 45.3125 59.375C45.3125 58.5208 46.0208 57.8125 46.875 57.8125H55.2083C56.0625 57.8125 56.7708 58.5208 56.7708 59.375C56.7708 60.2292 56.0625 60.9375 55.2083 60.9375Z" fill="#00B4EE"/>
</svg>
