<svg width="27" height="16" viewBox="0 0 27 16" fill="none" xmlns="http://www.w3.org/2000/svg">
<path fill-rule="evenodd" clip-rule="evenodd" d="M-3.71547e-07 7.51633C-3.82494e-07 7.29486 0.101587 7.08247 0.282414 6.92587C0.463241 6.76927 0.708496 6.68129 0.964224 6.68129L23.7064 6.68129L17.6376 1.42724C17.4565 1.27044 17.3548 1.05778 17.3548 0.836031C17.3548 0.614286 17.4565 0.401622 17.6376 0.244825C17.8186 0.0880273 18.0642 -6.07797e-05 18.3203 -6.07896e-05C18.5763 -6.07995e-05 18.8219 0.0880272 19.0029 0.244825L26.7167 6.92512C26.8065 7.00269 26.8778 7.09484 26.9264 7.19628C26.975 7.29773 27 7.40649 27 7.51633C27 7.62616 26.975 7.73492 26.9264 7.83637C26.8778 7.93782 26.8065 8.02997 26.7167 8.10753L19.0029 14.7878C18.8219 14.9446 18.5763 15.0327 18.3203 15.0327C18.0642 15.0327 17.8186 14.9446 17.6376 14.7878C17.4565 14.631 17.3548 14.4184 17.3548 14.1966C17.3548 13.9749 17.4565 13.7622 17.6376 13.6054L23.7064 8.35136L0.964224 8.35136C0.708496 8.35136 0.463241 8.26339 0.282414 8.10679C0.101587 7.95019 -3.60599e-07 7.73779 -3.71547e-07 7.51633Z" fill="#212529"/>
</svg>
