<svg width="18" height="16" viewBox="0 0 18 16" fill="none" xmlns="http://www.w3.org/2000/svg">
<path d="M8.35777 3.99137V0.650521C8.35777 0.295292 8.6411 -0.000732422 8.99943 -0.000732422C9.32027 -0.000732422 9.59208 0.24801 9.63516 0.563085L9.6411 0.650521V3.99137L13.6243 3.99162C15.6077 3.99162 17.2371 5.61575 17.3286 7.64127L17.3327 7.82101V12.0204C17.3327 14.0601 15.7599 15.7344 13.806 15.8284L13.6327 15.8326H4.36602C2.38268 15.8326 0.76109 14.2166 0.670047 12.1836L0.666016 12.0032V7.8124C0.666016 5.77269 2.23094 4.09028 4.18434 3.99581L4.35768 3.99162H8.35768V9.32695L7.02435 7.95009C6.77435 7.69193 6.36602 7.69193 6.11602 7.95009C5.99102 8.07917 5.93268 8.25128 5.93268 8.42338C5.93268 8.55419 5.97002 8.69049 6.04895 8.80587L6.11602 8.88807L8.54102 11.4008C8.65768 11.5299 8.82435 11.5988 8.99935 11.5988C9.13824 11.5988 9.27713 11.551 9.38708 11.4603L9.44935 11.4008L11.8743 8.88807C12.1243 8.62991 12.1243 8.20825 11.8743 7.95009C11.6471 7.7154 11.2889 7.69406 11.0379 7.88608L10.966 7.95009L9.64102 9.32695V3.99162L8.35777 3.99137Z" fill="#1B92FB"/>
</svg>
