<svg width="16" height="16" viewBox="0 0 16 16" fill="none" xmlns="http://www.w3.org/2000/svg">
<path d="M14.6581 13.7944C15.1224 13.7944 15.5 14.1769 15.5 14.6472C15.5 15.1184 15.1224 15.5 14.6581 15.5H9.89974C9.43548 15.5 9.05789 15.1184 9.05789 14.6472C9.05789 14.1769 9.43548 13.7944 9.89974 13.7944H14.6581ZM11.3582 1.08255L12.5874 2.05899C13.0914 2.45314 13.4275 2.97271 13.5424 3.51916C13.6751 4.12025 13.5336 4.71059 13.1357 5.2212L5.81366 14.6899C5.47763 15.1199 4.98242 15.3618 4.45185 15.3707L1.53366 15.4066C1.37449 15.4066 1.24184 15.2991 1.20647 15.1468L0.543249 12.2712C0.42829 11.7427 0.543249 11.1963 0.879282 10.7752L6.07011 4.05664C6.15854 3.94915 6.31771 3.93213 6.42383 4.01185L8.60805 5.74973C8.74953 5.86618 8.94408 5.92889 9.14747 5.90201C9.58077 5.84827 9.87259 5.45411 9.82838 5.03308C9.80185 4.81808 9.69573 4.63892 9.55424 4.50455C9.51003 4.46872 7.43193 2.80251 7.43193 2.80251C7.29929 2.69501 7.27276 2.49793 7.37887 2.36446L8.20127 1.29755C8.96177 0.321114 10.2882 0.231533 11.3582 1.08255Z" fill="#1B92FB"/>
</svg>
