<?xml version="1.0" encoding="UTF-8"?>
<svg width="32px" height="32px" viewBox="0 0 32 32" version="1.1" xmlns="http://www.w3.org/2000/svg" xmlns:xlink="http://www.w3.org/1999/xlink">
    <!-- Generator: Sketch 56 (81588) - https://sketch.com -->
    <title>Facebook icon</title>
    <desc>Created with Sketch.</desc>
    <g id="Page-1" stroke="none" stroke-width="1" fill="none" fill-rule="evenodd">
        <g id="8.-My-Website" transform="translate(-461.000000, -452.000000)">
            <g id="Facebook-icon" transform="translate(461.000000, 452.000000)">
                <path d="M17.3671875,7.8125 C17.1067695,7.8125 16.6022173,7.94596221 15.8535156,8.21289062 C15.104814,8.47981904 14.7304688,9.2512957 14.7304688,10.5273438 L14.7304688,13.4375 L12.2304688,13.4375 L12.2304688,15.3125 L14.7304688,15.3125 L14.7304688,24.6875 L16.6054688,24.6875 L16.6054688,15.3125 L19.3203125,15.3125 L19.7695313,13.4375 L16.6054688,13.4375 L16.6054688,10.46875 L16.7128906,10.0878906 C16.7845056,9.83398311 17.0416645,9.70703125 17.484375,9.70703125 L19.1054688,9.70703125 L19.1054688,7.83203125 L17.484375,7.83203125 L17.4550781,7.82226562 C17.4355468,7.81575518 17.4062502,7.8125 17.3671875,7.8125 Z M17.3671875,6.5625 C17.3932293,6.5625 17.4192707,6.56575518 17.4453125,6.57226562 C17.4713543,6.57877607 17.4973957,6.58203125 17.5234375,6.58203125 L19.125,6.58203125 C19.4635434,6.58203125 19.753254,6.70247275 19.9941406,6.94335938 C20.2350272,7.184246 20.3554688,7.48046699 20.3554688,7.83203125 C20.3554688,7.84505215 20.3554688,7.85481768 20.3554688,7.86132812 C20.3554688,7.86783857 20.3554688,7.8776041 20.3554688,7.890625 L20.3554688,9.70703125 C20.3554688,10.0455746 20.2317721,10.3385404 19.984375,10.5859375 C19.7369779,10.8333346 19.4440121,10.9570312 19.1054688,10.9570312 L17.8554688,10.9570312 L17.8554688,12.1875 L19.7695313,12.1875 C19.9648447,12.1875 20.1503897,12.2298173 20.3261719,12.3144531 C20.501954,12.399089 20.6484369,12.5260408 20.765625,12.6953125 C20.8828131,12.8515633 20.9609373,13.0240876 21,13.2128906 C21.0390627,13.4016937 21.026042,13.593749 20.9609375,13.7890625 L20.53125,15.6640625 C20.4531246,15.9244805 20.3033865,16.1393221 20.0820313,16.3085938 C19.860676,16.4778654 19.6067723,16.5625 19.3203125,16.5625 L17.8554688,16.5625 L17.8554688,24.6679688 C17.8554688,25.019533 17.7317721,25.315754 17.484375,25.5566406 C17.2369779,25.7975272 16.9440121,25.9179688 16.6054688,25.9179688 L14.7304688,25.9179688 C14.3789045,25.9179688 14.0826835,25.7975272 13.8417969,25.5566406 C13.6009103,25.315754 13.4804688,25.019533 13.4804688,24.6679688 L13.4804688,16.5625 L12.2304688,16.5625 C11.8919254,16.5625 11.5989596,16.4388033 11.3515625,16.1914062 C11.1041654,15.9440092 10.9804688,15.6510434 10.9804688,15.3125 L10.9804688,13.4375 C10.9804688,13.2682283 11.0130205,13.1087247 11.078125,12.9589844 C11.1432295,12.809244 11.2343744,12.6757818 11.3515625,12.5585938 C11.4687506,12.4414057 11.6022128,12.3502607 11.7519531,12.2851562 C11.9016935,12.2200518 12.0611971,12.1875 12.2304688,12.1875 L13.4804688,12.1875 L13.4804688,10.5273438 C13.4804688,9.56379727 13.6692689,8.81836201 14.046875,8.29101562 C14.4244811,7.76366924 14.8085918,7.38281367 15.1992188,7.1484375 C15.6158875,6.90104043 16.0260396,6.74153682 16.4296875,6.66992188 C16.8333354,6.59830693 17.1458322,6.5625 17.3671875,6.5625 Z" id="" fill="#1C67FF" fill-rule="nonzero"></path>
                <rect id="Rectangle" stroke="#246CFF" x="0.5" y="0.5" width="31" height="31" rx="5"></rect>
            </g>
        </g>
    </g>
</svg>