<svg width="15" height="16" viewBox="0 0 15 16" fill="none" xmlns="http://www.w3.org/2000/svg">
<path fill-rule="evenodd" clip-rule="evenodd" d="M7.68919 0.416992C8.19636 0.416992 8.68935 0.625242 9.04281 0.9872C9.39556 1.35128 9.59035 1.85066 9.57548 2.35712C9.5769 2.47116 9.61444 2.60291 9.68244 2.71837C9.79506 2.90962 9.97286 3.0442 10.1839 3.09945C10.395 3.15187 10.616 3.12353 10.8037 3.01233C11.7104 2.49453 12.8643 2.80478 13.3821 3.70437L13.8234 4.46866C13.8347 4.4892 13.8446 4.50903 13.8531 4.52957C14.322 5.4157 14.0089 6.53132 13.1377 7.04062C13.0109 7.11357 12.9082 7.21558 12.8374 7.33882C12.7276 7.52937 12.6971 7.75603 12.7524 7.96428C12.809 8.17678 12.9443 8.35316 13.1349 8.46224C13.5648 8.70945 13.8857 9.12595 14.0139 9.60691C14.1421 10.0872 14.072 10.6085 13.8219 11.0384L13.3516 11.8219C12.8338 12.7115 11.6799 13.0197 10.7825 12.5012C10.6628 12.4324 10.5246 12.3949 10.3872 12.3914H10.383C10.1783 12.3914 9.9679 12.4785 9.8149 12.6308C9.65977 12.7859 9.57477 12.9927 9.57619 13.2123C9.57123 14.2529 8.72477 15.0944 7.68919 15.0944H6.80165C5.76111 15.0944 4.91465 14.2486 4.91465 13.2081C4.91323 13.0799 4.8764 12.9467 4.80769 12.8312C4.69648 12.6372 4.51656 12.4983 4.30902 12.4431C4.1029 12.3878 3.87694 12.4183 3.69136 12.526C3.24652 12.7739 2.72306 12.8341 2.24423 12.6995C1.76611 12.5642 1.35315 12.2355 1.1109 11.7999L0.668189 11.037C0.150397 10.1389 0.458522 8.98782 1.35527 8.46933C1.60956 8.3227 1.76752 8.04928 1.76752 7.75603C1.76752 7.46278 1.60956 7.18866 1.35527 7.04203C0.457814 6.5207 0.150397 5.36683 0.66748 4.46866L1.14773 3.68028C1.65844 2.79203 2.81302 2.47895 3.71331 2.99603C3.83586 3.06899 3.96902 3.10583 4.10431 3.10724C4.54561 3.10724 4.91465 2.74316 4.92173 2.29549C4.9189 1.80178 5.11369 1.32791 5.46856 0.9702C5.82485 0.613201 6.29802 0.416992 6.80165 0.416992H7.68919ZM7.68919 1.47949H6.80165C6.58206 1.47949 6.37665 1.5652 6.22152 1.71962C6.06711 1.87474 5.98281 2.08087 5.98423 2.30045C5.96936 3.33603 5.1229 4.16974 4.09794 4.16974C3.76927 4.1662 3.45265 4.07766 3.17781 3.91333C2.79177 3.69374 2.28744 3.82903 2.06148 4.22216L1.58194 5.01053C1.36236 5.39162 1.49694 5.89524 1.88794 6.12262C2.46806 6.45837 2.83002 7.08453 2.83002 7.75603C2.83002 8.42753 2.46806 9.05299 1.88652 9.38945C1.49765 9.6147 1.36306 10.1155 1.58831 10.5051L2.03527 11.2757C2.14577 11.4748 2.3264 11.6186 2.53536 11.6774C2.74361 11.7354 2.97311 11.7107 3.16436 11.6044C3.44556 11.4394 3.77281 11.3537 4.10148 11.3537C4.26369 11.3537 4.4259 11.3742 4.58456 11.4167C5.0634 11.5456 5.47919 11.8658 5.72569 12.2957C5.88577 12.5656 5.97431 12.8808 5.97715 13.2024C5.97715 13.6628 6.3469 14.0319 6.80165 14.0319H7.68919C8.14181 14.0319 8.51156 13.6649 8.51369 13.2123C8.51086 12.7122 8.70636 12.2369 9.06406 11.8792C9.41681 11.5265 9.90981 11.3147 10.4028 11.3289C10.7258 11.3367 11.0368 11.4238 11.3109 11.5796C11.7054 11.8056 12.2091 11.671 12.4371 11.2814L12.9075 10.4973C13.0123 10.3167 13.0428 10.09 12.9868 9.88103C12.9316 9.67207 12.7927 9.49074 12.6057 9.38378C12.168 9.13162 11.8556 8.72503 11.726 8.2377C11.5978 7.75957 11.6679 7.23753 11.9179 6.80758C12.0809 6.52424 12.3196 6.28553 12.6057 6.1212C12.9896 5.89666 13.1242 5.39445 12.9011 5.00345C12.8919 4.98787 12.8834 4.97158 12.8763 4.95458L12.4612 4.23491C12.2353 3.84178 11.7324 3.70649 11.3378 3.93103C10.9114 4.1832 10.4042 4.25545 9.9169 4.12724C9.43027 4.00116 9.02227 3.69303 8.76798 3.25812C8.60506 2.98612 8.51652 2.66949 8.51369 2.3472C8.52006 2.10495 8.43506 1.88749 8.28065 1.72812C8.12694 1.56945 7.9109 1.47949 7.68919 1.47949ZM7.24853 5.35698C8.57099 5.35698 9.64695 6.43365 9.64695 7.7561C9.64695 9.07856 8.57099 10.1538 7.24853 10.1538C5.92608 10.1538 4.85012 9.07856 4.85012 7.7561C4.85012 6.43365 5.92608 5.35698 7.24853 5.35698ZM7.24853 6.41948C6.51187 6.41948 5.91262 7.01944 5.91262 7.7561C5.91262 8.49277 6.51187 9.09131 7.24853 9.09131C7.9852 9.09131 8.58445 8.49277 8.58445 7.7561C8.58445 7.01944 7.9852 6.41948 7.24853 6.41948Z" fill="#7F8FA3"/>
</svg>
