<svg width="27" height="16" viewBox="0 0 27 16" fill="none" xmlns="http://www.w3.org/2000/svg">
<path fill-rule="evenodd" clip-rule="evenodd" d="M27 7.51633C27 7.29486 26.8984 7.08247 26.7176 6.92587C26.5368 6.76927 26.2915 6.68129 26.0358 6.68129L3.29359 6.68129L9.36241 1.42724C9.54347 1.27044 9.64518 1.05778 9.64518 0.836031C9.64518 0.614286 9.54347 0.401622 9.36241 0.244825C9.18136 0.0880271 8.93579 -6.09625e-05 8.67974 -6.0975e-05C8.42369 -6.09874e-05 8.17813 0.088027 7.99707 0.244824L0.283278 6.92512C0.193482 7.00269 0.12224 7.09484 0.0736316 7.19628C0.0250228 7.29773 2.89729e-07 7.40649 2.85557e-07 7.51633C2.81384e-07 7.62616 0.0250228 7.73492 0.0736316 7.83637C0.12224 7.93782 0.193482 8.02997 0.283278 8.10753L7.99707 14.7878C8.17813 14.9446 8.42369 15.0327 8.67974 15.0327C8.93579 15.0327 9.18136 14.9446 9.36241 14.7878C9.54347 14.631 9.64518 14.4184 9.64518 14.1966C9.64518 13.9749 9.54347 13.7622 9.36241 13.6054L3.29359 8.35136L26.0358 8.35136C26.2915 8.35136 26.5368 8.26339 26.7176 8.10679C26.8984 7.95019 27 7.73779 27 7.51633Z" fill="#7F8FA3"/>
</svg>
