<?xml version="1.0" encoding="UTF-8"?>
<svg width="32px" height="32px" viewBox="0 0 32 32" version="1.1" xmlns="http://www.w3.org/2000/svg" xmlns:xlink="http://www.w3.org/1999/xlink">
    <!-- Generator: Sketch 56 (81588) - https://sketch.com -->
    <title>LinkedIn Icon</title>
    <desc>Created with Sketch.</desc>
    <g id="Page-1" stroke="none" stroke-width="1" fill="none" fill-rule="evenodd">
        <g id="8.-My-Website" transform="translate(-381.000000, -452.000000)">
            <g id="LinkedIn-Icon" transform="translate(381.000000, 452.000000)">
                <path d="M25.4921875,25.8203125 L21.4296875,25.8203125 C21.2864576,25.8203125 21.1627609,25.7714849 21.0585938,25.6738281 C20.9544266,25.5761714 20.9023438,25.4557299 20.9023438,25.3125 L20.9023438,18.7695312 C20.9023438,17.649734 20.6940125,16.9954437 20.2773438,16.8066406 C19.860675,16.6178376 19.5546885,16.5234375 19.359375,16.5234375 C18.85156,16.5234375 18.4772147,16.6731756 18.2363281,16.9726562 C17.9954415,17.2721369 17.8359379,17.5065096 17.7578125,17.6757812 C17.7317707,17.7539066 17.7089845,17.8613274 17.6894531,17.9980469 C17.6699218,18.1347663 17.6601562,18.2942699 17.6601562,18.4765625 L17.6601562,25.3125 C17.6601562,25.4557299 17.6080734,25.5794266 17.5039062,25.6835938 C17.3997391,25.7877609 17.2760424,25.8398438 17.1328125,25.8398438 L13.0703125,25.8398438 C13.005208,25.8398438 12.9401045,25.826823 12.875,25.8007812 C12.8098955,25.7747395 12.7513023,25.7356773 12.6992188,25.6835938 C12.6601561,25.6315102 12.6243491,25.572917 12.5917969,25.5078125 C12.5592446,25.442708 12.5494791,25.3776045 12.5625,25.3125 L12.5625,23.515625 C12.5625,22.3437441 12.5657552,21.0351635 12.5722656,19.5898438 C12.5787761,18.144524 12.5820312,16.7708398 12.5820312,15.46875 C12.5820312,14.1666602 12.5755209,13.3789076 12.5625,13.1054688 C12.5494791,13.0273434 12.5559895,12.9557295 12.5820312,12.890625 C12.608073,12.8255205 12.6471352,12.7669273 12.6992188,12.7148438 C12.7513023,12.6627602 12.8098955,12.623698 12.875,12.5976562 C12.9401045,12.5716145 13.005208,12.5585938 13.0703125,12.5585938 L17.1328125,12.5585938 C17.2760424,12.5585938 17.3997391,12.6106766 17.5039062,12.7148438 C17.6080734,12.8190109 17.6601562,12.9427076 17.6601562,13.0859375 L17.6601562,13.3789062 C17.9986996,13.0794256 18.4251276,12.8190115 18.9394531,12.5976562 C19.4537786,12.376301 20.0755172,12.265625 20.8046875,12.265625 C21.6250041,12.265625 22.3541635,12.4023424 22.9921875,12.6757812 C23.6302115,12.9492201 24.1738259,13.3463516 24.6230469,13.8671875 C25.0722679,14.3880234 25.4140613,15.0195275 25.6484375,15.7617188 C25.8828137,16.50391 26,17.3502557 26,18.3007812 L26,25.3125 C26,25.4557299 25.9511724,25.5761714 25.8535156,25.6738281 C25.7558589,25.7714849 25.6354174,25.8203125 25.4921875,25.8203125 Z M21.9375,24.7851562 L24.9648438,24.7851562 L24.9648438,18.3007812 C24.9648438,17.5065064 24.8736988,16.8001333 24.6914062,16.1816406 C24.5091137,15.5631479 24.2389341,15.0423198 23.8808594,14.6191406 C23.5227847,14.1959614 23.0865911,13.873699 22.5722656,13.6523438 C22.0579401,13.4309885 21.4687533,13.3203125 20.8046875,13.3203125 C19.9192664,13.3203125 19.2389347,13.4993472 18.7636719,13.8574219 C18.2884091,14.2154966 17.9140639,14.5963521 17.640625,15 C17.6145832,15.1041672 17.55599,15.1920569 17.4648438,15.2636719 C17.3736975,15.3352868 17.2695318,15.3710938 17.1523438,15.3710938 L17.1132812,15.3710938 C17.022135,15.3710938 16.9375004,15.3483075 16.859375,15.3027344 C16.7812496,15.2571612 16.7161461,15.1888025 16.6640625,15.0976562 C16.6249998,15.0325518 16.6022136,14.9641931 16.5957031,14.8925781 C16.5891927,14.8209632 16.5989582,14.7526045 16.625,14.6875 L16.625,13.59375 L13.5976562,13.59375 C13.6106771,14.1406277 13.6171875,14.9348906 13.6171875,15.9765625 L13.6171875,19.2480469 C13.6171875,20.3873755 13.6139323,21.471349 13.6074219,22.5 C13.6009114,23.528651 13.5976562,24.2903621 13.5976562,24.7851562 L16.625,24.7851562 L16.625,18.4765625 C16.625,18.2161445 16.6380207,17.9882822 16.6640625,17.7929688 C16.6901043,17.5976553 16.7356768,17.4283861 16.8007812,17.2851562 C17.0221365,16.7252576 17.3606748,16.2825537 17.8164062,15.9570312 C18.2721377,15.6315088 18.7864555,15.46875 19.359375,15.46875 C20.1796916,15.46875 20.8144509,15.7552055 21.2636719,16.328125 C21.7128929,16.9010445 21.9375,17.7148385 21.9375,18.7695312 L21.9375,24.7851562 Z M10.8242188,25.8203125 L6.76171875,25.8203125 C6.61848887,25.8203125 6.49479219,25.7714849 6.390625,25.6738281 C6.28645781,25.5761714 6.234375,25.4557299 6.234375,25.3125 L6.234375,13.0859375 C6.234375,12.9427076 6.28645781,12.8190109 6.390625,12.7148438 C6.49479219,12.6106766 6.61848887,12.5585938 6.76171875,12.5585938 L10.8242188,12.5585938 C10.9674486,12.5585938 11.0911453,12.6106766 11.1953125,12.7148438 C11.2994797,12.8190109 11.3515625,12.9427076 11.3515625,13.0859375 L11.3515625,25.3125 C11.3515625,25.4557299 11.2994797,25.5761714 11.1953125,25.6738281 C11.0911453,25.7714849 10.9674486,25.8203125 10.8242188,25.8203125 Z M7.2890625,24.7851562 L10.3164062,24.7851562 L10.3164062,13.59375 L7.2890625,13.59375 L7.2890625,24.7851562 Z M8.79296875,11.9335938 L8.7734375,11.9335938 C7.9661418,11.9335938 7.30208594,11.6829452 6.78125,11.1816406 C6.26041406,10.680336 6,10.0520871 6,9.296875 C6,8.52864199 6.26692441,7.89713789 6.80078125,7.40234375 C7.33463809,6.90754961 8.01171465,6.66015625 8.83203125,6.66015625 C9.62630605,6.66015625 10.2838516,6.90429443 10.8046875,7.39257812 C11.3255234,7.88086182 11.5924479,8.50911074 11.6054688,9.27734375 C11.6054688,10.0455768 11.3417995,10.680336 10.8144531,11.1816406 C10.2871067,11.6829452 9.61328535,11.9335938 8.79296875,11.9335938 Z M8.83203125,7.6953125 C8.29817441,7.6953125 7.86523604,7.84179541 7.53320312,8.13476562 C7.20117021,8.42773584 7.03515625,8.81510176 7.03515625,9.296875 C7.03515625,9.76562734 7.19791504,10.1497381 7.5234375,10.4492188 C7.84895996,10.7486994 8.26562246,10.8984375 8.7734375,10.8984375 L8.79296875,10.8984375 C9.32682559,10.8984375 9.75650879,10.7519546 10.0820312,10.4589844 C10.4075537,10.1660142 10.5703125,9.77864824 10.5703125,9.296875 C10.5572916,8.81510176 10.3945328,8.42773584 10.0820312,8.13476562 C9.76952969,7.84179541 9.35286719,7.6953125 8.83203125,7.6953125 Z" id="" fill="#1C67FF" fill-rule="nonzero"></path>
                <rect id="Rectangle" stroke="#246CFF" x="0.5" y="0.5" width="31" height="31" rx="5"></rect>
            </g>
        </g>
    </g>
</svg>