<svg width="150" height="69" viewBox="0 0 150 69" fill="none" xmlns="http://www.w3.org/2000/svg">
<path d="M113.45 66.3227C113.924 66.939 113.253 67.6785 112.587 68.0377C111.921 68.3957 106.796 69.7913 106.042 66.1643C105.236 62.2801 110.622 61.8787 111.493 62.2402C112.435 62.6334 111.972 63.569 111.515 63.4669C110.983 63.3471 109.733 63.0795 108.288 63.8483C106.84 64.616 107.508 66.5857 107.799 66.7934C108.695 67.432 109.82 67.5318 112.14 66.6221C112.697 66.014 113.134 65.9142 113.45 66.3239V66.3227Z" fill="white"/>
<path d="M142.604 56.4616C143.078 57.0778 142.407 57.8173 141.741 58.1754C141.076 58.5345 135.951 59.9279 135.197 56.3031C134.391 52.419 139.777 52.0164 140.647 52.3791C141.589 52.7711 141.127 53.7078 140.668 53.6034C140.135 53.486 138.888 53.2172 137.442 53.986C135.993 54.7549 136.661 56.7233 136.953 56.9311C137.849 57.5697 138.972 57.6683 141.294 56.7586C141.852 56.1505 142.288 56.0519 142.604 56.4616Z" fill="white"/>
<path fill-rule="evenodd" clip-rule="evenodd" d="M130.139 58.2951C130.247 58.9102 130.213 61.0195 128.551 61.7402C128.489 61.7684 128.409 61.8013 128.308 61.8365C128.307 61.8365 128.305 61.8376 128.304 61.8388C127.002 62.2919 122.744 63.1194 122.065 59.8398C121.524 57.234 123.769 56.1963 125.57 55.904C125.572 55.9029 125.576 55.9029 125.578 55.9017C128.967 55.1246 130.027 57.6495 130.139 58.2939V58.2951ZM128.362 60.1567C129.147 59.3269 128.747 58.0333 128.374 57.7223C128.09 57.4863 127.713 57.2316 127.235 57.079C126.611 56.9652 125.543 56.8759 124.329 57.5145C124.316 57.5215 124.302 57.5298 124.288 57.5368C122.873 58.3139 123.557 60.226 123.821 60.4678C124.544 61.1263 126.847 61.2425 128.363 60.1567H128.362Z" fill="white"/>
<path fill-rule="evenodd" clip-rule="evenodd" d="M148.976 54.4602C148.31 54.817 143.184 56.2115 142.432 52.588C141.625 48.7038 147.013 48.3 147.884 48.6639C148.663 49.1147 148.856 49.8131 148.461 50.7568C147.411 51.9647 146.198 52.8767 144.824 53.4942C145.626 53.7489 146.734 53.7465 148.53 53.0434C149.086 52.4342 149.523 52.3356 149.841 52.7453C150.315 53.3603 149.643 54.101 148.976 54.4602ZM143.909 52.6631C144.124 52.6185 144.397 52.5575 144.519 52.5035C144.735 52.4096 147.738 50.454 147.079 49.9445C146.572 49.5548 145.35 49.6969 144.676 50.2697C143.82 50.9975 143.76 52.0292 143.909 52.6631Z" fill="white"/>
<path d="M121.446 64.6077C121.281 64.8202 120.268 65.123 120.18 64.0654C120.094 63.0043 119.472 61.4243 118.911 60.848C118.349 60.2705 116.757 59.5274 115.453 60.7811C115.227 60.9935 115.268 61.4795 115.575 62.2366C116.035 63.3729 116.771 66.8579 116.256 67.014C115.741 67.1701 114.941 67.365 114.869 66.3344C114.797 65.3026 114.277 62.0159 112.441 58.6706C110.603 55.324 108.317 52.5855 108.445 52.1477C108.489 51.4915 108.848 51.2568 109.521 51.4422C110.196 51.6277 111.806 54.4214 114.349 59.8244C115.637 58.4839 117.098 58.1412 118.735 58.7985C121.19 59.7845 121.704 64.2826 121.446 64.6089V64.6077Z" fill="white"/>
<path d="M132.136 54.1949C132.381 54.3979 134.502 58.8713 134.487 59.4101C134.468 60.0287 133.657 60.321 133.269 60.0416L133.265 60.044C133.019 59.8421 130.9 55.3663 130.914 54.8287C130.933 54.2101 131.744 53.9179 132.134 54.196H132.136V54.1949Z" fill="white"/>
<path d="M130.663 52.4424C130.164 52.6384 129.601 52.3942 129.405 51.8966C129.207 51.3989 129.453 50.8343 129.952 50.6371C130.448 50.4399 131.013 50.684 131.21 51.1829C131.406 51.6806 131.162 52.244 130.664 52.4412L130.663 52.4424Z" fill="white"/>
<path fill-rule="evenodd" clip-rule="evenodd" d="M57.4087 22.0149L65.0842 21.7179V41.9215C65.0842 42.9557 65.1535 43.6517 65.2908 44.0098C65.4281 44.3678 65.6406 44.626 65.9258 44.7856C66.2123 44.9453 66.7616 45.0251 67.5762 45.0251V46.4947L61.2212 46.6931L60.7587 43.6893C59.7903 44.9547 58.9123 45.7963 58.1259 46.2153C57.3394 46.6332 56.3569 46.8422 55.1796 46.8422C53.0667 46.8422 51.3448 46.132 50.0125 44.7129C48.6814 43.2937 48.0146 41.3675 48.0146 38.9354C48.0146 36.2509 48.7189 34.1216 50.1275 32.5475C51.5361 30.9734 53.2862 30.1869 55.3768 30.1869C56.499 30.1869 57.4979 30.4323 58.3724 30.9218C59.2469 31.4112 60.0427 32.2071 60.7575 33.3069V26.2746C60.7575 25.4389 60.6801 24.8391 60.5263 24.4752C60.3725 24.1125 60.1659 23.8624 59.9077 23.7239C59.6495 23.5866 59.1177 23.5173 58.3148 23.5173H57.4075V22.0149H57.4087ZM56.8804 32.3151C55.6045 32.3151 54.6526 32.8761 54.0246 33.9983C53.5069 34.9115 53.2487 36.3647 53.2487 38.3567C53.2487 40.0188 53.3919 41.2595 53.6783 42.0788C53.9647 42.8981 54.3744 43.5097 54.9084 43.9111C55.4425 44.3126 56.0506 44.5133 56.7325 44.5133C57.8547 44.5133 58.7574 44.0344 59.4394 43.0777C60.3526 41.8229 60.8092 40.216 60.8092 38.2581C60.8092 36.4422 60.4136 34.9984 59.6213 33.9255C58.829 32.8527 57.9157 32.3162 56.8816 32.3162L56.8804 32.3151Z" fill="white"/>
<path fill-rule="evenodd" clip-rule="evenodd" d="M87.0062 44.579L87.7 45.7669C87.0285 46.2294 86.4264 46.5486 85.8923 46.7247C85.3582 46.9008 84.7725 46.9888 84.1339 46.9888C83.1866 46.9888 82.4225 46.7881 81.8391 46.3867C81.2557 45.9852 80.7216 45.2281 80.238 44.1165C79.1159 45.2281 78.1087 45.984 77.2178 46.3867C76.3269 46.7881 75.3198 46.9888 74.1976 46.9888C72.6458 46.9888 71.4344 46.6308 70.5658 45.916C69.696 45.2011 69.2617 44.2926 69.2617 43.1927C69.2617 41.5318 70.0646 40.1995 71.6716 39.1982C72.9592 38.4059 75.7822 37.6136 80.1394 36.8213V34.5934C80.1394 33.713 79.8483 32.9946 79.2649 32.4394C78.6816 31.8842 77.901 31.606 76.9208 31.606C76.1719 31.606 75.5123 31.7657 74.9406 32.0849C74.5544 32.2939 74.3631 32.5028 74.3631 32.7118C74.3631 32.8221 74.4347 32.9864 74.5779 33.2071C74.8854 33.7025 75.0404 34.1919 75.0404 34.6767C75.0404 35.293 74.8361 35.7907 74.43 36.171C74.0227 36.5501 73.478 36.7403 72.7961 36.7403C72.0695 36.7403 71.4861 36.5337 71.0459 36.1217C70.6057 35.7085 70.3862 35.1779 70.3862 34.5288C70.3862 33.4618 70.9637 32.5204 72.1199 31.7058C73.5614 30.694 75.355 30.1869 77.5007 30.1869C79.1182 30.1869 80.555 30.4404 81.8086 30.9463C82.6115 31.2656 83.2629 31.8244 83.7642 32.6214C84.2654 33.4196 84.5154 34.402 84.5154 35.5676V43.4087C84.5154 44.0027 84.6246 44.4323 84.8452 44.6964C85.0659 44.9605 85.3676 45.0919 85.7526 45.0919C86.0719 45.0919 86.4897 44.9217 87.0074 44.5802L87.0062 44.579ZM80.1394 38.2568C77.7848 38.5761 76.1919 39.0679 75.3608 39.7347C74.5298 40.4002 74.1143 41.2782 74.1143 42.3675C74.1143 43.1376 74.3091 43.7292 74.7 44.1423C75.0897 44.5555 75.6379 44.7609 76.3422 44.7609C77.4314 44.7609 78.3365 44.3701 79.0572 43.5895C79.7779 42.8077 80.1383 41.7407 80.1383 40.3873V38.258L80.1394 38.2568Z" fill="white"/>
<path d="M90.1262 31.0439L96.993 30.7305V43.8537C96.993 44.2059 97.1057 44.4782 97.331 44.6707C97.5564 44.8632 97.9003 44.9595 98.3628 44.9595H99.4028V46.4948H90.1262V44.9595H91.1497C91.7003 44.9595 92.0876 44.8327 92.313 44.5803C92.5384 44.3268 92.651 43.8866 92.651 43.2598V34.313C92.651 33.7519 92.4879 33.3176 92.1639 33.0089C91.8388 32.7014 91.3904 32.5464 90.8187 32.5464H90.125V31.0439H90.1262ZM94.3683 22.13C95.1055 22.13 95.7382 22.3918 96.2664 22.9141C96.7946 23.4365 97.0587 24.0727 97.0587 24.8204C97.0587 25.5693 96.7946 26.2043 96.2664 26.7266C95.7382 27.249 95.1055 27.5108 94.3683 27.5108C93.6194 27.5108 92.9821 27.2466 92.4538 26.7184C91.9256 26.1902 91.6615 25.5575 91.6615 24.8204C91.6615 24.0727 91.9256 23.4365 92.4538 22.9141C92.9821 22.3918 93.6194 22.13 94.3683 22.13Z" fill="white"/>
<path d="M101.961 22.0806L109.207 21.7179V43.6881C109.207 44.0849 109.333 44.3959 109.586 44.6213C109.839 44.8467 110.202 44.9594 110.675 44.9594H111.649V46.4947H102.34V44.9594H103.396C103.88 44.9594 104.241 44.8302 104.477 44.5708C104.714 44.3114 104.832 43.9182 104.832 43.39V25.3344C104.832 24.7722 104.678 24.3402 104.369 24.0373C104.061 23.7345 103.643 23.5831 103.114 23.5831H101.959V22.0806H101.961Z" fill="white"/>
<path d="M113.78 31.0439H122.908V32.463H122.034C121.506 32.463 121.131 32.5405 120.912 32.6942C120.691 32.848 120.582 33.0464 120.582 33.2882C120.582 33.5629 120.676 33.8774 120.863 34.2296L124.711 41.7126L127.944 34.9386C128.12 34.5641 128.208 34.2237 128.208 33.915C128.208 33.4748 128.043 33.1227 127.713 32.8586C127.383 32.5945 126.898 32.463 126.261 32.463H125.782V31.0439H132.5V32.463C131.84 32.4853 131.316 32.6308 130.931 32.9008C130.546 33.1708 130.205 33.6133 129.908 34.2296L123.756 47.1239C122.71 49.3236 121.603 50.9235 120.436 51.9248C119.544 52.6737 118.543 53.0469 117.43 53.0469C116.274 53.0469 115.361 52.7664 114.688 52.2053C114.017 51.6442 113.681 50.9505 113.681 50.1253C113.681 49.5091 113.876 49.0055 114.267 48.6146C114.658 48.2238 115.15 48.0289 115.745 48.0289C116.35 48.0289 116.846 48.2191 117.231 48.5982C117.616 48.9773 117.808 49.4539 117.808 50.0256C117.808 50.2122 117.77 50.4493 117.693 50.7357C117.649 50.9012 117.628 51.0268 117.628 51.1149C117.628 51.379 117.771 51.5104 118.057 51.5104C118.563 51.5104 119.196 51.1008 119.955 50.2803C120.715 49.461 121.546 48.1463 122.448 46.3374L115.864 33.6826C115.621 33.2095 115.374 32.8879 115.12 32.7165C114.867 32.5463 114.564 32.4606 114.211 32.4606H113.781V31.0415L113.78 31.0439Z" fill="white"/>
<path d="M38.1454 50.7755C37.5773 50.2649 38.8908 47.7694 39.6514 46.5674C41.0177 44.4088 42.1352 43.7996 42.3136 43.823C42.4251 43.8383 42.2537 44.4663 41.8007 45.7094C39.4765 51.7615 38.6161 51.1969 38.1454 50.7743V50.7755Z" fill="white"/>
<path d="M37.6852 53.3392C34.5652 54.5611 31.1729 55.2396 27.6198 55.2396C12.3661 55.2396 0 42.8746 0 27.6198C0 12.3661 12.3661 0 27.6198 0C40.1009 0 50.6488 8.28007 54.0716 19.6461L48.8705 19.5287C45.5838 26.7476 40.9402 33.4266 39.9706 33.8891C39.4225 34.1497 39.2405 33.5241 39.4236 32.011C39.6784 29.5261 40.8252 25.1536 42.8664 18.8937L37.9564 19.5287C36.6264 25.1243 35.9022 28.3123 35.7848 29.0953C35.7308 29.4533 35.5688 30.1681 35.4562 31.0191L33.7224 29.1504C30.8043 32.2223 29.2326 33.5792 29.0096 33.2224C28.8018 32.8914 29.3699 31.2516 29.8101 30.0754C30.7879 27.4543 31.4182 25.3508 31.6988 23.7662C31.9723 20.8516 30.9029 19.443 28.4896 19.5404C25.6724 19.247 22.347 24.6172 21.9855 24.4317C21.9115 24.3942 21.9186 24.1723 22.0043 23.7662C22.4938 20.949 21.496 19.5404 19.0111 19.5404C16.1939 19.247 13.4261 22.3811 12.7218 23.218C11.9095 24.184 11.4623 24.8954 11.3813 25.3508L12.1583 20.0499L7.8305 20.7436L3.98626 36.6781H7.88919C11.1536 29.9463 14.1926 25.5703 17.0062 23.5514C17.3125 23.2638 17.5731 23.2192 17.7879 23.414C18.1107 23.7075 17.8654 24.3237 17.572 25.1454C17.3759 25.6936 16.026 29.5378 13.5223 36.6781H13.6702L18.0391 36.6546C21.057 29.6517 23.9728 25.1395 26.7864 23.1206C27.1585 22.9245 27.4519 22.9245 27.6667 23.1206C27.9895 23.414 27.5505 24.3237 27.2571 25.1454C25.0726 30.2186 24.1007 33.6062 24.3413 35.3083C24.5996 37.1312 26.7805 37.5092 28.6844 36.7955C30.8466 35.9855 34.1955 32.9278 35.3763 31.8091C35.2413 33.625 35.489 35.7343 37.3695 36.4609C40.4801 37.6641 43.647 34.3187 44.3724 33.4384C44.8572 32.8515 45.1448 32.3819 45.234 32.0298L44.3173 37.1605C39.6596 40.6209 36.7955 43.9299 35.7261 47.0863C33.875 52.5504 37.4364 53.2946 37.6864 53.3392H37.6852Z" fill="white"/>
</svg>
