<?xml version="1.0" encoding="UTF-8"?>
<svg width="32px" height="32px" viewBox="0 0 32 32" version="1.1" xmlns="http://www.w3.org/2000/svg" xmlns:xlink="http://www.w3.org/1999/xlink">
    <!-- Generator: Sketch 56 (81588) - https://sketch.com -->
    <title>Mail icon</title>
    <desc>Created with Sketch.</desc>
    <g id="Page-1" stroke="none" stroke-width="1" fill="none" fill-rule="evenodd">
        <g id="8.-My-Website" transform="translate(-501.000000, -452.000000)">
            <g id="Mail-icon" transform="translate(501.000000, 452.000000)">
                <path d="M25.9804688,10.78125 C25.9934896,10.8072918 25.9999999,10.8333332 25.9999999,10.859375 L25.9999999,20.9375 C25.9999999,21.4583359 25.869793,21.9531227 25.609375,22.421875 C25.348957,22.8906273 24.9583359,23.125 24.4375,23.125 L8.1875,23.125 C7.66666406,23.125 7.17187734,22.8906273 6.703125,22.421875 C6.23437266,21.9531227 5.9999999,21.4583359 5.9999999,20.9375 L5.9999999,10.859375 C5.9999999,10.8333332 6.00651035,10.8072918 6.01953125,10.78125 C5.99348945,10.6901037 5.99348945,10.602214 6.01953125,10.5175781 C6.04557305,10.4329423 6.09114551,10.3515629 6.15625,10.2734375 C6.1692709,10.2604166 6.1822916,10.2441407 6.1953125,10.2246094 C6.2083334,10.205078 6.22786445,10.1888021 6.25390625,10.1757812 C6.44921973,9.91536328 6.72590967,9.71679756 7.08398438,9.58007812 C7.44205908,9.44335869 7.80989395,9.375 8.1875,9.375 L24.4375,9.375 C24.8541688,9.375 25.1894519,9.46288975 25.4433594,9.63867188 C25.6972669,9.814454 25.8632809,10.0781232 25.9414063,10.4296875 C25.967448,10.4817711 25.9837239,10.5371091 25.9902344,10.5957031 C25.9967448,10.6542972 25.9934896,10.7161455 25.9804688,10.78125 Z M7.89453125,10.625 C7.79036406,10.625 7.68619844,10.6315104 7.58203125,10.6445312 L16,17.3632812 L24.4375,10.625 L7.89453125,10.625 Z M24.4375,21.875 C24.6067717,21.875 24.7011718,21.7610688 24.7207031,21.5332031 C24.7402345,21.3053374 24.75,21.1067717 24.75,20.9375 L24.75,11.9921875 L16.4101563,18.6523438 C16.3450518,18.7044273 16.2799482,18.7434895 16.2148438,18.7695312 C16.1497393,18.795573 16.0781254,18.8085938 16,18.8085938 C15.9218746,18.8085938 15.8502607,18.795573 15.7851563,18.7695312 C15.7200518,18.7434895 15.6549482,18.7044273 15.5898438,18.6523438 L7.25,11.9921875 L7.25,20.9375 C7.25,21.1067717 7.36393115,21.3053374 7.59179688,21.5332031 C7.8196626,21.7610688 8.01822832,21.875 8.1875,21.875 L24.4375,21.875 Z" id="" fill="#1C67FF" fill-rule="nonzero"></path>
                <rect id="Rectangle" stroke="#246CFF" x="0.5" y="0.5" width="31" height="31" rx="5"></rect>
            </g>
        </g>
    </g>
</svg>