<svg width="20" height="20" viewBox="0 0 20 20" fill="none" xmlns="http://www.w3.org/2000/svg">
<path d="M13.6836 5.35068V6.31735L7.61689 12.384C6.81689 11.659 6.31689 10.5924 6.31689 9.45068V5.35068C6.31689 3.63402 7.48356 2.20902 9.06689 1.80068C9.22523 1.75902 9.37523 1.89235 9.37523 2.05068V3.33402C9.37523 3.67568 9.65856 3.95902 10.0002 3.95902C10.3419 3.95902 10.6252 3.67568 10.6252 3.33402V2.05068C10.6252 1.89235 10.7752 1.75902 10.9336 1.80068C12.5169 2.20902 13.6836 3.63402 13.6836 5.35068Z" fill="white"/>
<path d="M16.5083 8.17461V9.49961C16.5083 12.8913 13.9 15.6829 10.5833 15.9746V17.7496C10.5833 18.0746 10.325 18.3329 9.99997 18.3329C9.67497 18.3329 9.41663 18.0746 9.41663 17.7496V15.9746C8.5083 15.8913 7.64997 15.6246 6.8833 15.1996L7.74163 14.3413C8.42497 14.6579 9.19163 14.8413 9.99997 14.8413C12.95 14.8413 15.35 12.4413 15.35 9.49961V8.17461C15.35 7.85794 15.6083 7.59961 15.9333 7.59961C16.25 7.59961 16.5083 7.85794 16.5083 8.17461Z" fill="white"/>
<path d="M13.6835 8.40039V9.60872C13.6835 11.7587 11.8335 13.4837 9.63353 13.2754C9.4002 13.2504 9.16686 13.2087 8.9502 13.1337L13.6835 8.40039Z" fill="white"/>
<path d="M18.1418 1.85742C17.8918 1.60742 17.4834 1.60742 17.2334 1.85742L6.0251 13.0658C5.16676 12.1241 4.6501 10.8741 4.6501 9.49909V8.17409C4.6501 7.85742 4.39176 7.59909 4.06676 7.59909C3.7501 7.59909 3.49176 7.85742 3.49176 8.17409V9.49909C3.49176 11.1908 4.14176 12.7324 5.2001 13.8908L1.8501 17.2408C1.6001 17.4908 1.6001 17.8991 1.8501 18.1491C1.98343 18.2658 2.14176 18.3324 2.30843 18.3324C2.4751 18.3324 2.63343 18.2658 2.75843 18.1408L18.1418 2.75742C18.4001 2.50742 18.4001 2.10742 18.1418 1.85742Z" fill="white"/>
</svg>
