<svg width="447" height="256" viewBox="0 0 447 256" fill="none" xmlns="http://www.w3.org/2000/svg">
<g clip-path="url(#clip0_176_7512)">
<path d="M149.333 24.0513C151.766 27.4723 149.754 31.9287 147.333 34.4315C144.356 37.5128 141.328 37.0349 139.948 39.7599C138.261 43.0508 141.829 45.474 139.978 48.9158C138.843 51.012 137.283 50.5257 135.022 53.2087C132.272 56.4787 134.967 57.401 133.019 59.8032C126.743 67.4877 124.229 62.1593 120.408 64.18C115.461 66.796 112.146 69.0346 109.725 68.5106C100.202 66.4522 103.154 60.2266 98.5148 57.8286C92.2685 54.5838 89.2361 41.3152 93.5043 36.6408C95.7481 34.1925 97.9707 33.8949 98.1774 31.8532C98.4811 28.9186 94.0104 28.055 93.538 24.5167C93.0235 20.5005 98.3841 18.5553 97.5869 15.1637C96.8067 11.856 91.3069 11.9775 90.9527 9.61309C90.4255 6.03288 102.167 -0.38133 114.327 0.000168774C120.138 0.193014 129.611 2.05858 131.197 6.87134C132.108 9.65502 129.742 11.4451 131.075 15.0379C132.045 17.6497 134.191 19.1128 137.034 20.9952C139.721 22.7979 145.026 17.9977 149.333 24.0513Z" fill="#EEEEEE"/>
<path d="M120.278 21.8963C122.188 21.7999 123.163 34.4732 122.053 36.1501C120.944 37.827 118.861 39.0386 118.722 40.8539C118.582 42.6691 119.401 74.8114 120.075 74.3587C120.75 73.9059 126.351 65.4668 125.234 63.5048C124.116 61.5428 122.846 58.5076 123.125 55.9587C123.403 53.4098 123.39 49.7415 124.112 49.8296C124.833 49.9176 124.23 56.2144 124.732 57.4344C125.234 58.6543 125.322 59.6102 126.043 59.6311C126.765 59.6521 126.781 52.9947 127.882 53.1079C128.983 53.2211 128.236 63.0395 127.857 64.8463C127.477 66.6532 126.17 72.9333 124.989 75.2432C123.808 77.5532 120.164 79.9721 120.075 80.7603C119.987 81.5484 120.569 100.275 120.569 100.275L111.054 100.447C111.054 100.447 114.567 63.5216 113.787 62.2974C113.007 61.0733 108.022 51.0705 106.95 50.0518C105.879 49.033 105.263 42.8159 105.812 42.7278C106.36 42.6398 106.685 48.6976 107.853 48.7983C109.021 48.8989 109.645 37.0598 110.489 37.173C111.332 37.2862 109.671 49.4439 110.126 50.1943C110.582 50.9447 113.234 55.4472 114.116 55.3508C114.997 55.2544 113.631 22.1437 114.386 21.7706C115.141 21.3974 115.71 21.7077 116.178 25.1705C116.647 28.6333 117.541 36.2046 118.064 36.1962C118.587 36.1878 119.89 35.0475 119.919 34.2887C119.949 33.5299 119.426 21.9382 120.278 21.8963Z" fill="#BDBDBD"/>
<path d="M326.418 59.4972C325.039 61.4382 326.178 63.9578 327.549 65.3664C329.236 67.1146 330.952 66.8421 331.733 68.3849C332.677 70.2504 330.665 71.6213 331.733 73.5665C332.374 74.7655 333.259 74.4805 334.537 75.9981C336.094 77.8511 334.567 78.3793 335.672 79.7334C339.227 84.085 340.649 81.0665 342.812 82.211C345.613 83.6909 347.489 84.9612 348.86 84.6635C354.254 83.4981 352.593 79.9724 355.212 78.6141C358.75 76.7778 360.475 69.2652 358.05 66.6199C356.785 65.2323 355.52 65.0646 355.402 63.9075C355.233 62.2306 357.764 61.7568 358.021 59.7529C358.312 57.4807 355.275 56.3781 355.731 54.4581C356.186 52.538 359.282 52.6554 359.484 51.318C359.788 49.289 353.158 45.6585 346.258 45.8681C342.964 45.9771 337.603 47.0293 336.709 49.7585C336.195 51.3306 337.553 52.3494 336.781 54.37C336.228 55.8457 335.014 56.6758 333.407 57.7239C331.859 58.7887 328.856 56.0721 326.418 59.4972Z" fill="#EEEEEE"/>
<path d="M342.871 58.2729C341.787 58.2226 341.234 65.3998 341.863 66.3389C342.491 67.278 343.672 67.9739 343.748 69.0052C343.824 70.0365 343.364 88.2352 342.985 87.9711C342.605 87.707 339.429 82.9404 340.062 81.8294C340.695 80.7184 341.416 78.9996 341.264 77.5491C341.112 76.0985 341.116 74.0275 340.707 74.0779C340.298 74.1282 340.64 77.6916 340.357 78.3791C340.075 79.0667 340.024 79.6117 339.615 79.6368C339.206 79.662 339.193 75.8638 338.573 75.9434C337.953 76.0231 338.375 81.5653 338.573 82.5966C338.771 83.6279 339.522 87.1746 340.197 88.4658C340.872 89.757 342.93 91.1447 342.981 91.5891C343.031 92.0334 342.702 102.636 342.702 102.636L348.088 102.732C348.088 102.732 346.097 81.8294 346.54 81.1335C346.983 80.4376 349.796 74.7905 350.395 74.212C350.994 73.6335 351.357 70.1161 351.04 70.0658C350.724 70.0155 350.547 73.4448 349.885 73.5035C349.223 73.5622 348.872 66.8587 348.392 66.9174C347.911 66.9761 348.856 73.8682 348.598 74.2917C348.341 74.7151 346.84 77.2682 346.338 77.2263C345.836 77.1843 346.616 58.4238 346.186 58.21C345.756 57.9962 345.435 58.1765 345.174 60.1385C344.912 62.1005 344.398 66.385 344.102 66.3808C343.852 66.2991 343.626 66.1578 343.444 65.9693C343.262 65.7807 343.129 65.5507 343.056 65.2992C343.052 64.8632 343.352 58.3023 342.871 58.2729Z" fill="#BDBDBD"/>
<path d="M222.998 212C322.96 212 403.996 183.484 403.996 148.307C403.996 113.13 322.96 84.6133 222.998 84.6133C123.036 84.6133 42 113.13 42 148.307C42 183.484 123.036 212 222.998 212Z" fill="url(#paint0_linear_176_7512)"/>
<path d="M246.132 69.7138H235.558C234.505 69.6259 233.522 69.1477 232.807 68.3739C232.091 67.6002 231.693 66.5873 231.693 65.5361C231.693 64.4849 232.091 63.4721 232.807 62.6983C233.522 61.9246 234.505 61.4464 235.558 61.3585H246.132C250.241 61.3541 254.181 59.7295 257.087 56.8411C259.993 53.9528 261.627 50.0366 261.632 45.9519V22.8481C261.579 22.2683 261.649 21.6841 261.836 21.1325C262.024 20.581 262.324 20.0743 262.72 19.6447C263.115 19.2151 263.596 18.872 264.132 18.6372C264.667 18.4025 265.247 18.2812 265.832 18.2812C266.418 18.2812 266.997 18.4025 267.533 18.6372C268.069 18.872 268.55 19.2151 268.945 19.6447C269.34 20.0743 269.641 20.581 269.828 21.1325C270.016 21.6841 270.085 22.2683 270.033 22.8481V45.9519C270.027 52.2515 267.508 58.2915 263.027 62.7464C258.546 67.2013 252.47 69.7071 246.132 69.7138Z" fill="url(#paint1_linear_176_7512)"/>
<path d="M243.622 49.7168H189.092C185.025 49.7168 181.729 52.994 181.729 57.0365V76.4007C181.729 80.4433 185.025 83.7205 189.092 83.7205H243.622C247.689 83.7205 250.986 80.4433 250.986 76.4007V57.0365C250.986 52.994 247.689 49.7168 243.622 49.7168Z" fill="url(#paint2_linear_176_7512)"/>
<path d="M181.125 19.5654C180.445 19.5654 179.792 19.8338 179.31 20.3117C178.829 20.7896 178.558 21.4379 178.557 22.1143V43.9478H194.111V32.4735C194.111 29.0501 192.743 25.7668 190.308 23.3461C187.872 20.9254 184.569 19.5654 181.125 19.5654Z" fill="#F2DAD4"/>
<path d="M218.717 19.5654C219.398 19.5654 220.051 19.8338 220.532 20.3117C221.014 20.7896 221.285 21.438 221.286 22.1144V43.9478H205.719V32.4735C205.719 30.7773 206.055 29.0978 206.708 27.5309C207.362 25.964 208.32 24.5405 209.527 23.3417C210.734 22.1429 212.167 21.1923 213.744 20.5444C215.321 19.8964 217.011 19.5638 218.717 19.5654Z" fill="#E64D4E"/>
<path d="M211.66 36.389H215.54C215.708 36.389 215.869 36.3228 215.988 36.2049C216.106 36.0869 216.173 35.927 216.173 35.7602V26.185C216.173 26.0182 216.106 25.8583 215.988 25.7403C215.869 25.6224 215.708 25.5562 215.54 25.5562C214.343 25.5562 213.195 26.0286 212.348 26.8697C211.501 27.7109 211.025 28.8518 211.023 30.0419V35.7602C211.025 35.9274 211.092 36.0873 211.211 36.2051C211.331 36.3229 211.492 36.389 211.66 36.389Z" fill="url(#paint3_linear_176_7512)"/>
<path d="M181.125 19.5654C180.445 19.5654 179.792 19.8338 179.31 20.3117C178.829 20.7896 178.558 21.4379 178.557 22.1143V43.9478H194.111V32.4735C194.111 29.0501 192.743 25.7668 190.308 23.3461C187.872 20.9254 184.569 19.5654 181.125 19.5654Z" fill="#E64D4E"/>
<path d="M188.169 36.389H184.289C184.121 36.389 183.96 36.3228 183.842 36.2049C183.723 36.0869 183.656 35.927 183.656 35.7602V26.185C183.656 26.0182 183.723 25.8583 183.842 25.7403C183.96 25.6224 184.121 25.5562 184.289 25.5562C185.486 25.5562 186.634 26.0288 187.48 26.87C188.326 27.7112 188.802 28.8522 188.802 30.0419V35.7602C188.802 35.927 188.735 36.0869 188.616 36.2049C188.498 36.3228 188.337 36.389 188.169 36.389Z" fill="url(#paint4_linear_176_7512)"/>
<path d="M214.423 29.3335H185.402C181.621 29.3335 178.557 32.3798 178.557 36.1376V54.1267C178.557 57.8845 181.621 60.9308 185.402 60.9308H214.423C218.204 60.9308 221.268 57.8845 221.268 54.1267V36.1376C221.268 32.3798 218.204 29.3335 214.423 29.3335Z" fill="#E64D4E"/>
<path d="M204.596 60.9311H195.469C194.107 60.9311 192.8 60.3931 191.837 59.4355C190.873 58.4779 190.332 57.1791 190.332 55.8249C190.334 54.4721 190.876 53.1754 191.84 52.2197C192.803 51.2639 194.108 50.727 195.469 50.7271H204.596C205.958 50.7271 207.265 51.265 208.228 52.2226C209.192 53.1802 209.733 54.479 209.733 55.8333C209.731 57.1861 209.188 58.4827 208.225 59.4385C207.262 60.3943 205.957 60.9311 204.596 60.9311Z" fill="#E28D91"/>
<path d="M194.47 49.4988C194.26 49.4989 194.054 49.4388 193.878 49.3258C193.701 49.2128 193.561 49.0516 193.474 48.8615C193.42 48.7567 192.821 47.6751 191.07 47.6751C189.32 47.6751 188.671 48.849 188.662 48.8615C188.608 49.0001 188.526 49.1262 188.421 49.2322C188.316 49.3381 188.191 49.4216 188.052 49.4776C187.914 49.5336 187.765 49.5608 187.616 49.5576C187.466 49.5544 187.319 49.5208 187.183 49.459C187.047 49.3971 186.926 49.3083 186.825 49.198C186.725 49.0876 186.649 48.9581 186.601 48.8173C186.553 48.6766 186.534 48.5275 186.547 48.3794C186.559 48.2313 186.601 48.0872 186.671 47.956C186.718 47.8554 187.84 45.4951 191.07 45.4951C194.301 45.4951 195.423 47.8554 195.465 47.956C195.541 48.1219 195.574 48.3041 195.561 48.486C195.548 48.6679 195.49 48.8437 195.391 48.9972C195.292 49.1507 195.155 49.277 194.995 49.3647C194.834 49.4523 194.653 49.4984 194.47 49.4988Z" fill="#192B59"/>
<path d="M205.359 49.5071C205.199 49.5064 205.041 49.4721 204.895 49.4065C204.632 49.2836 204.428 49.0623 204.327 48.7907C204.227 48.5191 204.239 48.2192 204.36 47.956C204.406 47.8554 205.532 45.4951 208.759 45.4951C211.985 45.4951 213.111 47.8554 213.157 47.956C213.258 48.2151 213.256 48.5027 213.151 48.7601C213.046 49.0175 212.845 49.2252 212.591 49.3408C212.337 49.4565 212.048 49.4712 211.783 49.3821C211.519 49.2931 211.298 49.1068 211.167 48.8615C211.112 48.7567 210.513 47.6751 208.759 47.6751C207.004 47.6751 206.409 48.7567 206.346 48.8783C206.26 49.0665 206.121 49.2259 205.946 49.3374C205.771 49.449 205.567 49.5079 205.359 49.5071Z" fill="#192B59"/>
<path d="M203.382 56.0051C203.203 55.7778 202.94 55.6306 202.651 55.596C202.363 55.5614 202.072 55.6422 201.843 55.8206C201.524 56.06 201.155 56.2248 200.763 56.3028V54.8396C201.022 54.703 201.237 54.4967 201.383 54.2443L202.13 52.9573C202.267 52.7219 202.339 52.4548 202.34 52.1828C202.34 51.9108 202.268 51.6435 202.131 51.408C201.994 51.1724 201.797 50.9769 201.56 50.8412C201.323 50.7054 201.054 50.6342 200.78 50.6348H199.283C199.01 50.635 198.741 50.7067 198.505 50.8428C198.268 50.9788 198.072 51.1744 197.935 51.4098C197.799 51.6452 197.727 51.9122 197.728 52.1838C197.728 52.4555 197.801 52.7223 197.938 52.9573L198.684 54.2443C198.83 54.4967 199.045 54.703 199.304 54.8396V56.3195C198.905 56.2514 198.526 56.0952 198.195 55.8626C198.08 55.7683 197.947 55.6983 197.804 55.6568C197.661 55.6154 197.51 55.6034 197.362 55.6216C197.215 55.6397 197.072 55.6877 196.943 55.7625C196.815 55.8373 196.703 55.9374 196.614 56.0567C196.526 56.176 196.463 56.312 196.429 56.4563C196.395 56.6006 196.391 56.7502 196.418 56.8961C196.444 57.0419 196.5 57.1809 196.582 57.3045C196.664 57.4281 196.771 57.5337 196.896 57.6149C197.795 58.2603 198.882 58.596 199.992 58.5708C201.147 58.5934 202.276 58.2287 203.197 57.5353C203.426 57.3568 203.574 57.0953 203.608 56.8084C203.643 56.5214 203.562 56.2325 203.382 56.0051Z" fill="#192B59"/>
<path d="M176.748 63.4966H257.388V102.267C257.388 102.712 257.211 103.138 256.894 103.453C256.578 103.767 256.149 103.944 255.701 103.944H178.439C177.992 103.944 177.563 103.767 177.246 103.453C176.93 103.138 176.752 102.712 176.752 102.267V63.4966H176.748Z" fill="url(#paint5_linear_176_7512)"/>
<path d="M257.519 76.7193H176.604C176.345 76.7199 176.089 76.6642 175.854 76.5562C175.619 76.4482 175.411 76.2904 175.244 76.0939C175.077 75.8974 174.955 75.6669 174.887 75.4186C174.819 75.1704 174.806 74.9103 174.85 74.6567L176.748 63.501H257.388L259.29 74.6567C259.333 74.9116 259.32 75.1728 259.25 75.422C259.181 75.6712 259.057 75.9022 258.889 76.0988C258.72 76.2955 258.51 76.4529 258.273 76.5601C258.036 76.6673 257.779 76.7216 257.519 76.7193Z" fill="#4E9CFF"/>
</g>
<defs>
<linearGradient id="paint0_linear_176_7512" x1="223.002" y1="55.7494" x2="223.002" y2="155.765" gradientUnits="userSpaceOnUse">
<stop stop-color="#E5E5E5"/>
<stop offset="0.48" stop-color="#F4F4F4"/>
<stop offset="1" stop-color="white"/>
</linearGradient>
<linearGradient id="paint1_linear_176_7512" x1="231.358" y1="44.1953" x2="270.037" y2="44.1953" gradientUnits="userSpaceOnUse">
<stop stop-color="#A50404"/>
<stop offset="1" stop-color="#E64D4E"/>
</linearGradient>
<linearGradient id="paint2_linear_176_7512" x1="22963.8" y1="-184.909" x2="24788.4" y2="7121.33" gradientUnits="userSpaceOnUse">
<stop stop-color="#A50404"/>
<stop offset="1" stop-color="#E64D4E"/>
</linearGradient>
<linearGradient id="paint3_linear_176_7512" x1="2279.13" y1="1023.26" x2="2489.04" y2="749.858" gradientUnits="userSpaceOnUse">
<stop stop-color="#A50404"/>
<stop offset="1" stop-color="#E64D4E"/>
</linearGradient>
<linearGradient id="paint4_linear_176_7512" x1="1946.85" y1="923.711" x2="1871.51" y2="678.57" gradientUnits="userSpaceOnUse">
<stop stop-color="#A50404"/>
<stop offset="1" stop-color="#E64D4E"/>
</linearGradient>
<linearGradient id="paint5_linear_176_7512" x1="217.861" y1="114.181" x2="217.103" y2="83.8793" gradientUnits="userSpaceOnUse">
<stop stop-color="#4E9CFF"/>
<stop offset="0.19" stop-color="#4190F5"/>
<stop offset="0.71" stop-color="#2274DD"/>
<stop offset="1" stop-color="#176AD4"/>
</linearGradient>
<clipPath id="clip0_176_7512">
<rect width="362" height="212" fill="white" transform="translate(42)"/>
</clipPath>
</defs>
</svg>
