<svg width="53" height="22" viewBox="0 0 53 22" fill="none" xmlns="http://www.w3.org/2000/svg">
<path d="M12.888 4.4V17H10.962L4.014 8.468V17H1.692V4.4H3.618L10.566 12.932V4.4H12.888ZM20.3683 17.126C19.3963 17.126 18.5203 16.916 17.7403 16.496C16.9603 16.076 16.3483 15.494 15.9043 14.75C15.4723 13.994 15.2563 13.142 15.2563 12.194C15.2563 11.246 15.4723 10.4 15.9043 9.656C16.3483 8.912 16.9603 8.33 17.7403 7.91C18.5203 7.49 19.3963 7.28 20.3683 7.28C21.3523 7.28 22.2343 7.49 23.0143 7.91C23.7943 8.33 24.4003 8.912 24.8323 9.656C25.2763 10.4 25.4983 11.246 25.4983 12.194C25.4983 13.142 25.2763 13.994 24.8323 14.75C24.4003 15.494 23.7943 16.076 23.0143 16.496C22.2343 16.916 21.3523 17.126 20.3683 17.126ZM20.3683 15.2C21.1963 15.2 21.8803 14.924 22.4203 14.372C22.9603 13.82 23.2303 13.094 23.2303 12.194C23.2303 11.294 22.9603 10.568 22.4203 10.016C21.8803 9.464 21.1963 9.188 20.3683 9.188C19.5403 9.188 18.8563 9.464 18.3163 10.016C17.7883 10.568 17.5243 11.294 17.5243 12.194C17.5243 13.094 17.7883 13.82 18.3163 14.372C18.8563 14.924 19.5403 15.2 20.3683 15.2Z" fill="#FF5050"/>
<path d="M42.0009 11L46.807 15.8061M37.1948 15.8061L42.0009 11L37.1948 15.8061ZM46.807 6.19391L42 11L46.807 6.19391ZM42 11L37.1948 6.19391L42 11Z" stroke="#FF5050" stroke-width="2" stroke-linecap="round" stroke-linejoin="round"/>
</svg>
