<svg width="30" height="30" viewBox="0 0 30 30" fill="none" xmlns="http://www.w3.org/2000/svg">
<path d="M15.0252 3.63745C10.8877 3.63745 7.52523 6.99995 7.52523 11.1375V14.75C7.52523 15.5125 7.20023 16.675 6.81273 17.325L5.37523 19.7125C4.48773 21.1875 5.10023 22.825 6.72523 23.375C12.1127 25.175 17.9252 25.175 23.3127 23.375C24.8252 22.875 25.4877 21.0875 24.6627 19.7125L23.2252 17.325C22.8502 16.675 22.5252 15.5125 22.5252 14.75V11.1375C22.5252 7.01245 19.1502 3.63745 15.0252 3.63745Z" stroke="#384971" stroke-width="1.5" stroke-miterlimit="10" stroke-linecap="round"/>
<path d="M17.3375 4.00005C16.95 3.88755 16.55 3.80005 16.1375 3.75005C14.9375 3.60005 13.7875 3.68755 12.7125 4.00005C13.075 3.07505 13.975 2.42505 15.025 2.42505C16.075 2.42505 16.975 3.07505 17.3375 4.00005Z" stroke="#384971" stroke-width="1.5" stroke-miterlimit="10" stroke-linecap="round" stroke-linejoin="round"/>
<path d="M18.775 23.825C18.775 25.8875 17.0875 27.575 15.025 27.575C14 27.575 13.05 27.15 12.375 26.475C11.7 25.8 11.275 24.85 11.275 23.825" stroke="#384971" stroke-width="1.5" stroke-miterlimit="10"/>
</svg>
