<svg width="34" height="34" viewBox="0 0 34 34" fill="none" xmlns="http://www.w3.org/2000/svg">
<path d="M16.9577 2.83398C9.13768 2.83398 2.79102 9.18065 2.79102 17.0007C2.79102 24.8207 9.13768 31.1673 16.9577 31.1673C24.7777 31.1673 31.1243 24.8207 31.1243 17.0007C31.1243 9.18065 24.7918 2.83398 16.9577 2.83398ZM15.1868 21.2932C15.1868 21.9732 14.9035 22.2423 14.181 22.2423H12.3393C11.6168 22.2423 11.3335 21.9732 11.3335 21.2932V12.7082C11.3335 12.0282 11.6168 11.759 12.3393 11.759H14.1668C14.8893 11.759 15.1727 12.0282 15.1727 12.7082V21.2932H15.1868ZM22.6668 21.2932C22.6668 21.9732 22.3835 22.2423 21.661 22.2423H19.8335C19.111 22.2423 18.8277 21.9732 18.8277 21.2932V12.7082C18.8277 12.0282 19.111 11.759 19.8335 11.759H21.661C22.3835 11.759 22.6668 12.0282 22.6668 12.7082V21.2932Z" fill="white"/>
</svg>
