<svg width="20" height="20" viewBox="0 0 20 20" fill="none" xmlns="http://www.w3.org/2000/svg">
<path d="M18.6497 1.36674C18.1912 0.896134 17.5126 0.720811 16.8799 0.905361L2.12465 5.19615C1.45704 5.38162 0.983848 5.91405 0.856379 6.59042C0.726159 7.2788 1.18101 8.15264 1.77525 8.51805L6.38889 11.3537C6.86209 11.6443 7.47284 11.5714 7.86441 11.1765L13.1475 5.86053C13.4134 5.5837 13.8536 5.5837 14.1196 5.86053C14.3855 6.12813 14.3855 6.56182 14.1196 6.83864L8.82731 12.1555C8.43481 12.5495 8.36145 13.1632 8.65032 13.6393L11.4693 18.2992C11.7994 18.8529 12.368 19.1666 12.9916 19.1666C13.065 19.1666 13.1475 19.1666 13.2209 19.1574C13.9361 19.0651 14.5047 18.576 14.7156 17.884L19.0899 3.14764C19.2825 2.52017 19.1083 1.83734 18.6497 1.36674Z" fill="white"/>
</svg>
