<svg width="17" height="18" viewBox="0 0 17 18" fill="none" xmlns="http://www.w3.org/2000/svg">
<path fill-rule="evenodd" clip-rule="evenodd" d="M9.2226 0.667053C9.81927 0.667053 10.3993 0.912053 10.8151 1.33789C11.2301 1.76622 11.4593 2.35372 11.4418 2.94955C11.4434 3.08372 11.4876 3.23872 11.5676 3.37455C11.7001 3.59955 11.9093 3.75789 12.1576 3.82289C12.4059 3.88455 12.6659 3.85122 12.8868 3.72039C13.9534 3.11122 15.3109 3.47622 15.9201 4.53455L16.4393 5.43372C16.4526 5.45789 16.4643 5.48122 16.4743 5.50539C17.0259 6.54789 16.6576 7.86039 15.6326 8.45955C15.4834 8.54539 15.3626 8.66539 15.2793 8.81039C15.1501 9.03455 15.1143 9.30122 15.1793 9.54622C15.2459 9.79622 15.4051 10.0037 15.6293 10.1321C16.1351 10.4229 16.5126 10.9129 16.6634 11.4787C16.8143 12.0437 16.7318 12.6571 16.4376 13.1629L15.8843 14.0846C15.2751 15.1312 13.9176 15.4937 12.8618 14.8837C12.7209 14.8029 12.5584 14.7587 12.3968 14.7546H12.3918C12.1509 14.7546 11.9034 14.8571 11.7234 15.0362C11.5409 15.2187 11.4409 15.4621 11.4426 15.7204C11.4368 16.9446 10.4409 17.9346 9.2226 17.9346H8.17844C6.95427 17.9346 5.95844 16.9396 5.95844 15.7154C5.95677 15.5646 5.91344 15.4079 5.8326 15.2721C5.70177 15.0437 5.4901 14.8804 5.24594 14.8154C5.00344 14.7504 4.7376 14.7862 4.51927 14.9129C3.99594 15.2046 3.3801 15.2754 2.81677 15.1171C2.25427 14.9579 1.76844 14.5712 1.48344 14.0587L0.962604 13.1612C0.353437 12.1046 0.715937 10.7504 1.77094 10.1404C2.0701 9.96789 2.25594 9.64622 2.25594 9.30122C2.25594 8.95622 2.0701 8.63372 1.77094 8.46122C0.715104 7.84789 0.353437 6.49039 0.96177 5.43372L1.52677 4.50622C2.1276 3.46122 3.48594 3.09289 4.5451 3.70122C4.68927 3.78705 4.84594 3.83039 5.0051 3.83205C5.52427 3.83205 5.95844 3.40372 5.96677 2.87705C5.96344 2.29622 6.1926 1.73872 6.6101 1.31789C7.02927 0.897887 7.58594 0.667053 8.17844 0.667053H9.2226ZM9.2226 1.91705H8.17844C7.9201 1.91705 7.67844 2.01789 7.49594 2.19955C7.31427 2.38205 7.2151 2.62455 7.21677 2.88289C7.19927 4.10122 6.20344 5.08205 4.9976 5.08205C4.61094 5.07789 4.23844 4.97372 3.9151 4.78039C3.46094 4.52205 2.8676 4.68122 2.60177 5.14372L2.0376 6.07122C1.77927 6.51955 1.9376 7.11205 2.3976 7.37955C3.0801 7.77455 3.50594 8.51122 3.50594 9.30122C3.50594 10.0912 3.0801 10.8271 2.39594 11.2229C1.93844 11.4879 1.7801 12.0771 2.0451 12.5354L2.57094 13.4421C2.70094 13.6762 2.91344 13.8454 3.15927 13.9146C3.40427 13.9829 3.67427 13.9537 3.89927 13.8287C4.2301 13.6346 4.6151 13.5337 5.00177 13.5337C5.1926 13.5337 5.38344 13.5579 5.5701 13.6079C6.13344 13.7596 6.6226 14.1362 6.9126 14.6421C7.10094 14.9596 7.2051 15.3304 7.20844 15.7087C7.20844 16.2504 7.64344 16.6846 8.17844 16.6846H9.2226C9.7551 16.6846 10.1901 16.2529 10.1926 15.7204C10.1893 15.1321 10.4193 14.5729 10.8401 14.1521C11.2551 13.7371 11.8351 13.4879 12.4151 13.5046C12.7951 13.5137 13.1609 13.6162 13.4834 13.7996C13.9476 14.0654 14.5401 13.9071 14.8084 13.4487L15.3618 12.5262C15.4851 12.3137 15.5209 12.0471 15.4551 11.8012C15.3901 11.5554 15.2268 11.3421 15.0068 11.2162C14.4918 10.9196 14.1243 10.4412 13.9718 9.86789C13.8209 9.30539 13.9034 8.69122 14.1976 8.18539C14.3893 7.85205 14.6701 7.57122 15.0068 7.37789C15.4584 7.11372 15.6168 6.52289 15.3543 6.06289C15.3434 6.04455 15.3334 6.02539 15.3251 6.00539L14.8368 5.15872C14.5709 4.69622 13.9793 4.53705 13.5151 4.80122C13.0134 5.09789 12.4168 5.18289 11.8434 5.03205C11.2709 4.88372 10.7909 4.52122 10.4918 4.00955C10.3001 3.68955 10.1959 3.31705 10.1926 2.93789C10.2001 2.65289 10.1001 2.39705 9.91844 2.20955C9.7376 2.02289 9.48344 1.91705 9.2226 1.91705ZM8.70419 6.4788C10.26 6.4788 11.5259 7.74547 11.5259 9.3013C11.5259 10.8571 10.26 12.1221 8.70419 12.1221C7.14835 12.1221 5.88252 10.8571 5.88252 9.3013C5.88252 7.74547 7.14835 6.4788 8.70419 6.4788ZM8.70419 7.7288C7.83752 7.7288 7.13252 8.43464 7.13252 9.3013C7.13252 10.168 7.83752 10.8721 8.70419 10.8721C9.57085 10.8721 10.2759 10.168 10.2759 9.3013C10.2759 8.43464 9.57085 7.7288 8.70419 7.7288Z" fill="#212529"/>
</svg>
