<svg width="320" height="100" viewBox="0 0 320 100" fill="none" xmlns="http://www.w3.org/2000/svg">
<rect width="320" height="100" fill="#00B4EE"/>
<path d="M96.18 57.16C95.1267 57.16 94.1067 57 93.12 56.68C92.1467 56.3467 91.38 55.92 90.82 55.4L91.56 53.84C92.0933 54.32 92.7733 54.7133 93.6 55.02C94.44 55.3133 95.3 55.46 96.18 55.46C97.34 55.46 98.2067 55.2667 98.78 54.88C99.3533 54.48 99.64 53.9533 99.64 53.3C99.64 52.82 99.48 52.4333 99.16 52.14C98.8533 51.8333 98.4667 51.6 98 51.44C97.5467 51.28 96.9 51.1 96.06 50.9C95.0067 50.6467 94.1533 50.3933 93.5 50.14C92.86 49.8867 92.3067 49.5 91.84 48.98C91.3867 48.4467 91.16 47.7333 91.16 46.84C91.16 46.0933 91.3533 45.42 91.74 44.82C92.14 44.22 92.74 43.74 93.54 43.38C94.34 43.02 95.3333 42.84 96.52 42.84C97.3467 42.84 98.16 42.9467 98.96 43.16C99.76 43.3733 100.447 43.68 101.02 44.08L100.36 45.68C99.7733 45.3067 99.1467 45.0267 98.48 44.84C97.8133 44.64 97.16 44.54 96.52 44.54C95.3867 44.54 94.5333 44.7467 93.96 45.16C93.4 45.5733 93.12 46.1067 93.12 46.76C93.12 47.24 93.28 47.6333 93.6 47.94C93.92 48.2333 94.3133 48.4667 94.78 48.64C95.26 48.8 95.9067 48.9733 96.72 49.16C97.7733 49.4133 98.62 49.6667 99.26 49.92C99.9 50.1733 100.447 50.56 100.9 51.08C101.367 51.6 101.6 52.3 101.6 53.18C101.6 53.9133 101.4 54.5867 101 55.2C100.6 55.8 99.9933 56.28 99.18 56.64C98.3667 56.9867 97.3667 57.16 96.18 57.16ZM109.902 46.3C111.249 46.3 112.315 46.6933 113.102 47.48C113.902 48.2533 114.302 49.3933 114.302 50.9V57H112.382V51.12C112.382 50.0933 112.135 49.32 111.642 48.8C111.149 48.28 110.442 48.02 109.522 48.02C108.482 48.02 107.662 48.3267 107.062 48.94C106.462 49.54 106.162 50.4067 106.162 51.54V57H104.242V42.16H106.162V47.9C106.562 47.3933 107.082 47 107.722 46.72C108.375 46.44 109.102 46.3 109.902 46.3ZM117.855 46.4H119.775V57H117.855V46.4ZM118.815 44.36C118.442 44.36 118.128 44.24 117.875 44C117.635 43.76 117.515 43.4667 117.515 43.12C117.515 42.7733 117.635 42.48 117.875 42.24C118.128 41.9867 118.442 41.86 118.815 41.86C119.188 41.86 119.495 41.98 119.735 42.22C119.988 42.4467 120.115 42.7333 120.115 43.08C120.115 43.44 119.988 43.7467 119.735 44C119.495 44.24 119.188 44.36 118.815 44.36ZM129.061 46.3C130.088 46.3 131.008 46.5267 131.821 46.98C132.634 47.4333 133.268 48.0667 133.721 48.88C134.188 49.6933 134.421 50.6333 134.421 51.7C134.421 52.7667 134.188 53.7133 133.721 54.54C133.268 55.3533 132.634 55.9867 131.821 56.44C131.008 56.8933 130.088 57.12 129.061 57.12C128.301 57.12 127.601 56.9733 126.961 56.68C126.334 56.3867 125.801 55.96 125.361 55.4V60.88H123.441V46.4H125.281V48.08C125.708 47.4933 126.248 47.0533 126.901 46.76C127.554 46.4533 128.274 46.3 129.061 46.3ZM128.901 55.44C129.581 55.44 130.188 55.2867 130.721 54.98C131.268 54.66 131.694 54.22 132.001 53.66C132.321 53.0867 132.481 52.4333 132.481 51.7C132.481 50.9667 132.321 50.32 132.001 49.76C131.694 49.1867 131.268 48.7467 130.721 48.44C130.188 48.1333 129.581 47.98 128.901 47.98C128.234 47.98 127.628 48.14 127.081 48.46C126.548 48.7667 126.121 49.2 125.801 49.76C125.494 50.32 125.341 50.9667 125.341 51.7C125.341 52.4333 125.494 53.0867 125.801 53.66C126.108 54.22 126.534 54.66 127.081 54.98C127.628 55.2867 128.234 55.44 128.901 55.44ZM142.694 46.3C143.721 46.3 144.641 46.5267 145.454 46.98C146.267 47.4333 146.901 48.0667 147.354 48.88C147.821 49.6933 148.054 50.6333 148.054 51.7C148.054 52.7667 147.821 53.7133 147.354 54.54C146.901 55.3533 146.267 55.9867 145.454 56.44C144.641 56.8933 143.721 57.12 142.694 57.12C141.934 57.12 141.234 56.9733 140.594 56.68C139.967 56.3867 139.434 55.96 138.994 55.4V60.88H137.074V46.4H138.914V48.08C139.341 47.4933 139.881 47.0533 140.534 46.76C141.187 46.4533 141.907 46.3 142.694 46.3ZM142.534 55.44C143.214 55.44 143.821 55.2867 144.354 54.98C144.901 54.66 145.327 54.22 145.634 53.66C145.954 53.0867 146.114 52.4333 146.114 51.7C146.114 50.9667 145.954 50.32 145.634 49.76C145.327 49.1867 144.901 48.7467 144.354 48.44C143.821 48.1333 143.214 47.98 142.534 47.98C141.867 47.98 141.261 48.14 140.714 48.46C140.181 48.7667 139.754 49.2 139.434 49.76C139.127 50.32 138.974 50.9667 138.974 51.7C138.974 52.4333 139.127 53.0867 139.434 53.66C139.741 54.22 140.167 54.66 140.714 54.98C141.261 55.2867 141.867 55.44 142.534 55.44ZM150.707 46.4H152.627V57H150.707V46.4ZM151.667 44.36C151.293 44.36 150.98 44.24 150.727 44C150.487 43.76 150.367 43.4667 150.367 43.12C150.367 42.7733 150.487 42.48 150.727 42.24C150.98 41.9867 151.293 41.86 151.667 41.86C152.04 41.86 152.347 41.98 152.587 42.22C152.84 42.4467 152.967 42.7333 152.967 43.08C152.967 43.44 152.84 43.7467 152.587 44C152.347 44.24 152.04 44.36 151.667 44.36ZM161.953 46.3C163.299 46.3 164.366 46.6933 165.153 47.48C165.953 48.2533 166.353 49.3933 166.353 50.9V57H164.433V51.12C164.433 50.0933 164.186 49.32 163.693 48.8C163.199 48.28 162.493 48.02 161.573 48.02C160.533 48.02 159.713 48.3267 159.113 48.94C158.513 49.54 158.213 50.4067 158.213 51.54V57H156.293V46.4H158.133V48C158.519 47.4533 159.039 47.0333 159.693 46.74C160.359 46.4467 161.113 46.3 161.953 46.3ZM180.105 46.4V55.56C180.105 57.4133 179.645 58.78 178.725 59.66C177.805 60.5533 176.431 61 174.605 61C173.605 61 172.651 60.86 171.745 60.58C170.838 60.3133 170.105 59.9267 169.545 59.42L170.465 57.94C170.958 58.3667 171.565 58.7 172.285 58.94C173.018 59.1933 173.771 59.32 174.545 59.32C175.785 59.32 176.698 59.0267 177.285 58.44C177.885 57.8533 178.185 56.96 178.185 55.76V54.92C177.731 55.4667 177.171 55.88 176.505 56.16C175.851 56.4267 175.138 56.56 174.365 56.56C173.351 56.56 172.431 56.3467 171.605 55.92C170.791 55.48 170.151 54.8733 169.685 54.1C169.218 53.3133 168.985 52.42 168.985 51.42C168.985 50.42 169.218 49.5333 169.685 48.76C170.151 47.9733 170.791 47.3667 171.605 46.94C172.431 46.5133 173.351 46.3 174.365 46.3C175.165 46.3 175.905 46.4467 176.585 46.74C177.278 47.0333 177.845 47.4667 178.285 48.04V46.4H180.105ZM174.585 54.88C175.278 54.88 175.898 54.7333 176.445 54.44C177.005 54.1467 177.438 53.74 177.745 53.22C178.065 52.6867 178.225 52.0867 178.225 51.42C178.225 50.3933 177.885 49.5667 177.205 48.94C176.525 48.3 175.651 47.98 174.585 47.98C173.505 47.98 172.625 48.3 171.945 48.94C171.265 49.5667 170.925 50.3933 170.925 51.42C170.925 52.0867 171.078 52.6867 171.385 53.22C171.705 53.74 172.138 54.1467 172.685 54.44C173.245 54.7333 173.878 54.88 174.585 54.88ZM198.344 53.5H190.904L189.364 57H187.304L193.644 43H195.624L201.984 57H199.884L198.344 53.5ZM197.644 51.9L194.624 45.04L191.604 51.9H197.644ZM213.695 42.16V57H211.855V55.32C211.428 55.9067 210.888 56.3533 210.235 56.66C209.582 56.9667 208.862 57.12 208.075 57.12C207.048 57.12 206.128 56.8933 205.315 56.44C204.502 55.9867 203.862 55.3533 203.395 54.54C202.942 53.7133 202.715 52.7667 202.715 51.7C202.715 50.6333 202.942 49.6933 203.395 48.88C203.862 48.0667 204.502 47.4333 205.315 46.98C206.128 46.5267 207.048 46.3 208.075 46.3C208.835 46.3 209.535 46.4467 210.175 46.74C210.815 47.02 211.348 47.44 211.775 48V42.16H213.695ZM208.235 55.44C208.902 55.44 209.508 55.2867 210.055 54.98C210.602 54.66 211.028 54.22 211.335 53.66C211.642 53.0867 211.795 52.4333 211.795 51.7C211.795 50.9667 211.642 50.32 211.335 49.76C211.028 49.1867 210.602 48.7467 210.055 48.44C209.508 48.1333 208.902 47.98 208.235 47.98C207.555 47.98 206.942 48.1333 206.395 48.44C205.862 48.7467 205.435 49.1867 205.115 49.76C204.808 50.32 204.655 50.9667 204.655 51.7C204.655 52.4333 204.808 53.0867 205.115 53.66C205.435 54.22 205.862 54.66 206.395 54.98C206.942 55.2867 207.555 55.44 208.235 55.44ZM227.328 42.16V57H225.488V55.32C225.061 55.9067 224.521 56.3533 223.868 56.66C223.214 56.9667 222.494 57.12 221.708 57.12C220.681 57.12 219.761 56.8933 218.948 56.44C218.134 55.9867 217.494 55.3533 217.028 54.54C216.574 53.7133 216.348 52.7667 216.348 51.7C216.348 50.6333 216.574 49.6933 217.028 48.88C217.494 48.0667 218.134 47.4333 218.948 46.98C219.761 46.5267 220.681 46.3 221.708 46.3C222.468 46.3 223.168 46.4467 223.808 46.74C224.448 47.02 224.981 47.44 225.408 48V42.16H227.328ZM221.868 55.44C222.534 55.44 223.141 55.2867 223.688 54.98C224.234 54.66 224.661 54.22 224.968 53.66C225.274 53.0867 225.428 52.4333 225.428 51.7C225.428 50.9667 225.274 50.32 224.968 49.76C224.661 49.1867 224.234 48.7467 223.688 48.44C223.141 48.1333 222.534 47.98 221.868 47.98C221.188 47.98 220.574 48.1333 220.028 48.44C219.494 48.7467 219.068 49.1867 218.748 49.76C218.441 50.32 218.288 50.9667 218.288 51.7C218.288 52.4333 218.441 53.0867 218.748 53.66C219.068 54.22 219.494 54.66 220.028 54.98C220.574 55.2867 221.188 55.44 221.868 55.44ZM232.801 48.18C233.134 47.5667 233.627 47.1 234.281 46.78C234.934 46.46 235.727 46.3 236.661 46.3V48.16C236.554 48.1467 236.407 48.14 236.221 48.14C235.181 48.14 234.361 48.4533 233.761 49.08C233.174 49.6933 232.881 50.5733 232.881 51.72V57H230.961V46.4H232.801V48.18ZM248.509 51.76C248.509 51.9067 248.496 52.1 248.469 52.34H239.869C239.989 53.2733 240.396 54.0267 241.089 54.6C241.796 55.16 242.669 55.44 243.709 55.44C244.976 55.44 245.996 55.0133 246.769 54.16L247.829 55.4C247.349 55.96 246.749 56.3867 246.029 56.68C245.323 56.9733 244.529 57.12 243.649 57.12C242.529 57.12 241.536 56.8933 240.669 56.44C239.803 55.9733 239.129 55.3267 238.649 54.5C238.183 53.6733 237.949 52.74 237.949 51.7C237.949 50.6733 238.176 49.7467 238.629 48.92C239.096 48.0933 239.729 47.4533 240.529 47C241.343 46.5333 242.256 46.3 243.269 46.3C244.283 46.3 245.183 46.5333 245.969 47C246.769 47.4533 247.389 48.0933 247.829 48.92C248.283 49.7467 248.509 50.6933 248.509 51.76ZM243.269 47.92C242.349 47.92 241.576 48.2 240.949 48.76C240.336 49.32 239.976 50.0533 239.869 50.96H246.669C246.563 50.0667 246.196 49.34 245.569 48.78C244.956 48.2067 244.189 47.92 243.269 47.92ZM254.215 57.12C253.349 57.12 252.515 57.0067 251.715 56.78C250.915 56.54 250.289 56.24 249.835 55.88L250.635 54.36C251.102 54.6933 251.669 54.96 252.335 55.16C253.002 55.36 253.675 55.46 254.355 55.46C256.035 55.46 256.875 54.98 256.875 54.02C256.875 53.7 256.762 53.4467 256.535 53.26C256.309 53.0733 256.022 52.94 255.675 52.86C255.342 52.7667 254.862 52.6667 254.235 52.56C253.382 52.4267 252.682 52.2733 252.135 52.1C251.602 51.9267 251.142 51.6333 250.755 51.22C250.369 50.8067 250.175 50.2267 250.175 49.48C250.175 48.52 250.575 47.7533 251.375 47.18C252.175 46.5933 253.249 46.3 254.595 46.3C255.302 46.3 256.009 46.3867 256.715 46.56C257.422 46.7333 258.002 46.9667 258.455 47.26L257.635 48.78C256.769 48.22 255.749 47.94 254.575 47.94C253.762 47.94 253.142 48.0733 252.715 48.34C252.289 48.6067 252.075 48.96 252.075 49.4C252.075 49.7467 252.195 50.02 252.435 50.22C252.675 50.42 252.969 50.5667 253.315 50.66C253.675 50.7533 254.175 50.86 254.815 50.98C255.669 51.1267 256.355 51.2867 256.875 51.46C257.409 51.62 257.862 51.9 258.235 52.3C258.609 52.7 258.795 53.26 258.795 53.98C258.795 54.94 258.382 55.7067 257.555 56.28C256.742 56.84 255.629 57.12 254.215 57.12ZM264.235 57.12C263.368 57.12 262.535 57.0067 261.735 56.78C260.935 56.54 260.308 56.24 259.855 55.88L260.655 54.36C261.122 54.6933 261.688 54.96 262.355 55.16C263.022 55.36 263.695 55.46 264.375 55.46C266.055 55.46 266.895 54.98 266.895 54.02C266.895 53.7 266.782 53.4467 266.555 53.26C266.328 53.0733 266.042 52.94 265.695 52.86C265.362 52.7667 264.882 52.6667 264.255 52.56C263.402 52.4267 262.702 52.2733 262.155 52.1C261.622 51.9267 261.162 51.6333 260.775 51.22C260.388 50.8067 260.195 50.2267 260.195 49.48C260.195 48.52 260.595 47.7533 261.395 47.18C262.195 46.5933 263.268 46.3 264.615 46.3C265.322 46.3 266.028 46.3867 266.735 46.56C267.442 46.7333 268.022 46.9667 268.475 47.26L267.655 48.78C266.788 48.22 265.768 47.94 264.595 47.94C263.782 47.94 263.162 48.0733 262.735 48.34C262.308 48.6067 262.095 48.96 262.095 49.4C262.095 49.7467 262.215 50.02 262.455 50.22C262.695 50.42 262.988 50.5667 263.335 50.66C263.695 50.7533 264.195 50.86 264.835 50.98C265.688 51.1267 266.375 51.2867 266.895 51.46C267.428 51.62 267.882 51.9 268.255 52.3C268.628 52.7 268.815 53.26 268.815 53.98C268.815 54.94 268.402 55.7067 267.575 56.28C266.762 56.84 265.648 57.12 264.235 57.12Z" fill="white"/>
<path opacity="0.4" d="M67.959 43.125C65.7924 33.4791 57.3757 29.1666 50.0007 29.1666C50.0007 29.1666 50.0007 29.1666 49.9799 29.1666C42.6257 29.1666 34.2299 33.4791 32.0424 43.1041C29.584 53.8541 36.1674 62.9583 42.1257 68.7083C44.334 70.8333 47.1674 71.8958 50.0007 71.8958C52.834 71.8958 55.6674 70.8333 57.8549 68.7083C63.8132 62.9583 70.3965 53.875 67.959 43.125Z" fill="white"/>
<path d="M47.3952 53.6459C46.9993 53.6459 46.6035 53.5 46.291 53.1875L43.166 50.0625C42.5618 49.4584 42.5618 48.4584 43.166 47.8542C43.7702 47.25 44.7702 47.25 45.3743 47.8542L47.3952 49.875L54.6244 42.6459C55.2285 42.0417 56.2285 42.0417 56.8327 42.6459C57.4369 43.25 57.4369 44.25 56.8327 44.8542L48.4993 53.1875C48.1868 53.5 47.791 53.6459 47.3952 53.6459Z" fill="white"/>
</svg>
