<svg width="55" height="56" viewBox="0 0 55 56" fill="none" xmlns="http://www.w3.org/2000/svg">
<path d="M38.1454 50.7754C37.5773 50.2648 38.8908 47.7693 39.6514 46.5673C41.0177 44.4086 42.1352 43.7994 42.3136 43.8229C42.4251 43.8382 42.2537 44.4662 41.8007 45.7092C39.4765 51.7614 38.6161 51.1968 38.1454 50.7742V50.7754Z" fill="white"/>
<path d="M37.6852 53.3392C34.5652 54.5611 31.1729 55.2396 27.6198 55.2396C12.3661 55.2396 0 42.8746 0 27.6198C0 12.3661 12.3661 0 27.6198 0C40.1009 0 50.6488 8.28007 54.0716 19.6461L48.8705 19.5287C45.5838 26.7476 40.9402 33.4266 39.9706 33.8891C39.4225 34.1497 39.2405 33.5241 39.4236 32.011C39.6783 29.5261 40.8252 25.1536 42.8664 18.8937L37.9564 19.5287C36.6264 25.1243 35.9022 28.3123 35.7848 29.0953C35.7308 29.4533 35.5688 30.1681 35.4562 31.0191L33.7224 29.1504C30.8043 32.2223 29.2326 33.5792 29.0096 33.2224C28.8018 32.8914 29.3699 31.2516 29.8101 30.0754C30.7879 27.4543 31.4182 25.3508 31.6988 23.7662C31.9723 20.8516 30.9029 19.443 28.4896 19.5404C25.6724 19.247 22.347 24.6172 21.9855 24.4317C21.9115 24.3942 21.9186 24.1723 22.0043 23.7662C22.4938 20.949 21.496 19.5404 19.0111 19.5404C16.1939 19.247 13.4261 22.3811 12.7218 23.218C11.9095 24.184 11.4623 24.8954 11.3813 25.3508L12.1583 20.0499L7.8305 20.7436L3.98626 36.6781H7.88919C11.1536 29.9463 14.1926 25.5703 17.0062 23.5514C17.3125 23.2638 17.5731 23.2192 17.7879 23.414C18.1107 23.7075 17.8654 24.3237 17.572 25.1454C17.3759 25.6936 16.026 29.5378 13.5223 36.6781H13.6702L18.0391 36.6546C21.057 29.6517 23.9728 25.1395 26.7864 23.1206C27.1585 22.9245 27.4519 22.9245 27.6667 23.1206C27.9895 23.414 27.5505 24.3237 27.2571 25.1454C25.0726 30.2186 24.1007 33.6062 24.3413 35.3083C24.5996 37.1312 26.7805 37.5092 28.6844 36.7955C30.8466 35.9855 34.1955 32.9278 35.3763 31.8091C35.2413 33.625 35.489 35.7343 37.3695 36.4609C40.4801 37.6641 43.647 34.3187 44.3724 33.4384C44.8572 32.8515 45.1448 32.3819 45.234 32.0298L44.3173 37.1605C39.6596 40.6209 36.7955 43.9299 35.7261 47.0863C33.875 52.5504 37.4364 53.2946 37.6864 53.3392H37.6852Z" fill="white"/>
</svg>
