<svg width="283" height="289" viewBox="0 0 243 247" fill="none" xmlns="http://www.w3.org/2000/svg">
<line x1="51.2679" y1="156.52" x2="104.107" y2="64.999" stroke="#E2E7EE" stroke-width="4" stroke-dasharray="8 8"/>
<path d="M21.2188 241.773V243H15.5312V241.773H21.2188ZM15.8281 231.625V243H14.3203V231.625H15.8281ZM26.2344 243.156C25.6458 243.156 25.112 243.057 24.6328 242.859C24.1589 242.656 23.75 242.372 23.4062 242.008C23.0677 241.643 22.8073 241.211 22.625 240.711C22.4427 240.211 22.3516 239.664 22.3516 239.07V238.742C22.3516 238.055 22.4531 237.443 22.6562 236.906C22.8594 236.365 23.1354 235.906 23.4844 235.531C23.8333 235.156 24.2292 234.872 24.6719 234.68C25.1146 234.487 25.5729 234.391 26.0469 234.391C26.651 234.391 27.1719 234.495 27.6094 234.703C28.0521 234.911 28.4141 235.203 28.6953 235.578C28.9766 235.948 29.1849 236.385 29.3203 236.891C29.4557 237.391 29.5234 237.938 29.5234 238.531V239.18H23.2109V238H28.0781V237.891C28.0573 237.516 27.9792 237.151 27.8438 236.797C27.7135 236.443 27.5052 236.151 27.2188 235.922C26.9323 235.693 26.5417 235.578 26.0469 235.578C25.7188 235.578 25.4167 235.648 25.1406 235.789C24.8646 235.924 24.6276 236.128 24.4297 236.398C24.2318 236.669 24.0781 237 23.9688 237.391C23.8594 237.781 23.8047 238.232 23.8047 238.742V239.07C23.8047 239.471 23.8594 239.849 23.9688 240.203C24.0833 240.552 24.2474 240.859 24.4609 241.125C24.6797 241.391 24.9427 241.599 25.25 241.75C25.5625 241.901 25.9167 241.977 26.3125 241.977C26.8229 241.977 27.2552 241.872 27.6094 241.664C27.9635 241.456 28.2734 241.177 28.5391 240.828L29.4141 241.523C29.2318 241.799 29 242.062 28.7188 242.312C28.4375 242.562 28.0911 242.766 27.6797 242.922C27.2734 243.078 26.7917 243.156 26.2344 243.156ZM33.3672 243H31.9219V233.656C31.9219 233.047 32.0312 232.534 32.25 232.117C32.474 231.695 32.7943 231.378 33.2109 231.164C33.6276 230.945 34.1224 230.836 34.6953 230.836C34.862 230.836 35.0286 230.846 35.1953 230.867C35.3672 230.888 35.5339 230.919 35.6953 230.961L35.6172 232.141C35.5078 232.115 35.3828 232.096 35.2422 232.086C35.1068 232.076 34.9714 232.07 34.8359 232.07C34.5286 232.07 34.263 232.133 34.0391 232.258C33.8203 232.378 33.6536 232.555 33.5391 232.789C33.4245 233.023 33.3672 233.312 33.3672 233.656V243ZM35.1641 234.547V235.656H30.5859V234.547H35.1641ZM40.3125 234.547V235.656H35.7422V234.547H40.3125ZM37.2891 232.492H38.7344V240.906C38.7344 241.193 38.7786 241.409 38.8672 241.555C38.9557 241.701 39.0703 241.797 39.2109 241.844C39.3516 241.891 39.5026 241.914 39.6641 241.914C39.7839 241.914 39.9089 241.904 40.0391 241.883C40.1745 241.857 40.276 241.836 40.3438 241.82L40.3516 243C40.237 243.036 40.0859 243.07 39.8984 243.102C39.7161 243.138 39.4948 243.156 39.2344 243.156C38.8802 243.156 38.5547 243.086 38.2578 242.945C37.9609 242.805 37.724 242.57 37.5469 242.242C37.375 241.909 37.2891 241.461 37.2891 240.898V232.492ZM53.0938 241.773V243H47.4062V241.773H53.0938ZM47.7031 231.625V243H46.1953V231.625H47.7031ZM58.1094 243.156C57.5208 243.156 56.987 243.057 56.5078 242.859C56.0339 242.656 55.625 242.372 55.2812 242.008C54.9427 241.643 54.6823 241.211 54.5 240.711C54.3177 240.211 54.2266 239.664 54.2266 239.07V238.742C54.2266 238.055 54.3281 237.443 54.5312 236.906C54.7344 236.365 55.0104 235.906 55.3594 235.531C55.7083 235.156 56.1042 234.872 56.5469 234.68C56.9896 234.487 57.4479 234.391 57.9219 234.391C58.526 234.391 59.0469 234.495 59.4844 234.703C59.9271 234.911 60.2891 235.203 60.5703 235.578C60.8516 235.948 61.0599 236.385 61.1953 236.891C61.3307 237.391 61.3984 237.938 61.3984 238.531V239.18H55.0859V238H59.9531V237.891C59.9323 237.516 59.8542 237.151 59.7188 236.797C59.5885 236.443 59.3802 236.151 59.0938 235.922C58.8073 235.693 58.4167 235.578 57.9219 235.578C57.5938 235.578 57.2917 235.648 57.0156 235.789C56.7396 235.924 56.5026 236.128 56.3047 236.398C56.1068 236.669 55.9531 237 55.8438 237.391C55.7344 237.781 55.6797 238.232 55.6797 238.742V239.07C55.6797 239.471 55.7344 239.849 55.8438 240.203C55.9583 240.552 56.1224 240.859 56.3359 241.125C56.5547 241.391 56.8177 241.599 57.125 241.75C57.4375 241.901 57.7917 241.977 58.1875 241.977C58.6979 241.977 59.1302 241.872 59.4844 241.664C59.8385 241.456 60.1484 241.177 60.4141 240.828L61.2891 241.523C61.1068 241.799 60.875 242.062 60.5938 242.312C60.3125 242.562 59.9661 242.766 59.5547 242.922C59.1484 243.078 58.6667 243.156 58.1094 243.156ZM68.5625 234.547H69.875V242.82C69.875 243.565 69.724 244.201 69.4219 244.727C69.1198 245.253 68.6979 245.651 68.1562 245.922C67.6198 246.198 67 246.336 66.2969 246.336C66.0052 246.336 65.6615 246.289 65.2656 246.195C64.875 246.107 64.4896 245.953 64.1094 245.734C63.7344 245.521 63.4193 245.232 63.1641 244.867L63.9219 244.008C64.276 244.435 64.6458 244.732 65.0312 244.898C65.4219 245.065 65.8073 245.148 66.1875 245.148C66.6458 245.148 67.0417 245.062 67.375 244.891C67.7083 244.719 67.9661 244.464 68.1484 244.125C68.3359 243.792 68.4297 243.38 68.4297 242.891V236.406L68.5625 234.547ZM62.7422 238.867V238.703C62.7422 238.057 62.8177 237.471 62.9688 236.945C63.125 236.414 63.3464 235.958 63.6328 235.578C63.9245 235.198 64.276 234.906 64.6875 234.703C65.099 234.495 65.5625 234.391 66.0781 234.391C66.6094 234.391 67.0729 234.484 67.4688 234.672C67.8698 234.854 68.2083 235.122 68.4844 235.477C68.7656 235.826 68.987 236.247 69.1484 236.742C69.3099 237.237 69.4219 237.797 69.4844 238.422V239.141C69.4271 239.76 69.3151 240.318 69.1484 240.812C68.987 241.307 68.7656 241.729 68.4844 242.078C68.2083 242.427 67.8698 242.695 67.4688 242.883C67.0677 243.065 66.599 243.156 66.0625 243.156C65.5573 243.156 65.099 243.049 64.6875 242.836C64.2812 242.622 63.9323 242.323 63.6406 241.938C63.349 241.552 63.125 241.099 62.9688 240.578C62.8177 240.052 62.7422 239.482 62.7422 238.867ZM64.1875 238.703V238.867C64.1875 239.289 64.2292 239.685 64.3125 240.055C64.401 240.424 64.5339 240.75 64.7109 241.031C64.8932 241.312 65.125 241.534 65.4062 241.695C65.6875 241.852 66.0234 241.93 66.4141 241.93C66.8932 241.93 67.2891 241.828 67.6016 241.625C67.9141 241.422 68.1615 241.154 68.3438 240.82C68.5312 240.487 68.6771 240.125 68.7812 239.734V237.852C68.724 237.565 68.6354 237.289 68.5156 237.023C68.401 236.753 68.25 236.513 68.0625 236.305C67.8802 236.091 67.6536 235.922 67.3828 235.797C67.112 235.672 66.7943 235.609 66.4297 235.609C66.0339 235.609 65.6927 235.693 65.4062 235.859C65.125 236.021 64.8932 236.245 64.7109 236.531C64.5339 236.812 64.401 237.141 64.3125 237.516C64.2292 237.885 64.1875 238.281 64.1875 238.703Z" fill="#212529"/>
<path d="M168.32 231.625H172.086C172.94 231.625 173.661 231.755 174.25 232.016C174.844 232.276 175.294 232.661 175.602 233.172C175.914 233.677 176.07 234.299 176.07 235.039C176.07 235.56 175.964 236.036 175.75 236.469C175.542 236.896 175.24 237.26 174.844 237.562C174.453 237.859 173.984 238.081 173.438 238.227L173.016 238.391H169.477L169.461 237.164H172.133C172.674 237.164 173.125 237.07 173.484 236.883C173.844 236.69 174.115 236.432 174.297 236.109C174.479 235.786 174.57 235.43 174.57 235.039C174.57 234.602 174.484 234.219 174.312 233.891C174.141 233.562 173.87 233.31 173.5 233.133C173.135 232.951 172.664 232.859 172.086 232.859H169.828V243H168.32V231.625ZM174.969 243L172.203 237.844L173.773 237.836L176.578 242.906V243H174.969ZM179.531 234.547V243H178.078V234.547H179.531ZM177.969 232.305C177.969 232.07 178.039 231.872 178.18 231.711C178.326 231.549 178.539 231.469 178.82 231.469C179.096 231.469 179.307 231.549 179.453 231.711C179.604 231.872 179.68 232.07 179.68 232.305C179.68 232.529 179.604 232.721 179.453 232.883C179.307 233.039 179.096 233.117 178.82 233.117C178.539 233.117 178.326 233.039 178.18 232.883C178.039 232.721 177.969 232.529 177.969 232.305ZM187.328 234.547H188.641V242.82C188.641 243.565 188.49 244.201 188.188 244.727C187.885 245.253 187.464 245.651 186.922 245.922C186.385 246.198 185.766 246.336 185.062 246.336C184.771 246.336 184.427 246.289 184.031 246.195C183.641 246.107 183.255 245.953 182.875 245.734C182.5 245.521 182.185 245.232 181.93 244.867L182.688 244.008C183.042 244.435 183.411 244.732 183.797 244.898C184.188 245.065 184.573 245.148 184.953 245.148C185.411 245.148 185.807 245.062 186.141 244.891C186.474 244.719 186.732 244.464 186.914 244.125C187.102 243.792 187.195 243.38 187.195 242.891V236.406L187.328 234.547ZM181.508 238.867V238.703C181.508 238.057 181.583 237.471 181.734 236.945C181.891 236.414 182.112 235.958 182.398 235.578C182.69 235.198 183.042 234.906 183.453 234.703C183.865 234.495 184.328 234.391 184.844 234.391C185.375 234.391 185.839 234.484 186.234 234.672C186.635 234.854 186.974 235.122 187.25 235.477C187.531 235.826 187.753 236.247 187.914 236.742C188.076 237.237 188.188 237.797 188.25 238.422V239.141C188.193 239.76 188.081 240.318 187.914 240.812C187.753 241.307 187.531 241.729 187.25 242.078C186.974 242.427 186.635 242.695 186.234 242.883C185.833 243.065 185.365 243.156 184.828 243.156C184.323 243.156 183.865 243.049 183.453 242.836C183.047 242.622 182.698 242.323 182.406 241.938C182.115 241.552 181.891 241.099 181.734 240.578C181.583 240.052 181.508 239.482 181.508 238.867ZM182.953 238.703V238.867C182.953 239.289 182.995 239.685 183.078 240.055C183.167 240.424 183.299 240.75 183.477 241.031C183.659 241.312 183.891 241.534 184.172 241.695C184.453 241.852 184.789 241.93 185.18 241.93C185.659 241.93 186.055 241.828 186.367 241.625C186.68 241.422 186.927 241.154 187.109 240.82C187.297 240.487 187.443 240.125 187.547 239.734V237.852C187.49 237.565 187.401 237.289 187.281 237.023C187.167 236.753 187.016 236.513 186.828 236.305C186.646 236.091 186.419 235.922 186.148 235.797C185.878 235.672 185.56 235.609 185.195 235.609C184.799 235.609 184.458 235.693 184.172 235.859C183.891 236.021 183.659 236.245 183.477 236.531C183.299 236.812 183.167 237.141 183.078 237.516C182.995 237.885 182.953 238.281 182.953 238.703ZM192.281 231V243H190.836V231H192.281ZM191.938 238.453L191.336 238.43C191.341 237.852 191.427 237.318 191.594 236.828C191.76 236.333 191.995 235.904 192.297 235.539C192.599 235.174 192.958 234.893 193.375 234.695C193.797 234.492 194.263 234.391 194.773 234.391C195.19 234.391 195.565 234.448 195.898 234.562C196.232 234.672 196.516 234.849 196.75 235.094C196.99 235.339 197.172 235.656 197.297 236.047C197.422 236.432 197.484 236.904 197.484 237.461V243H196.031V237.445C196.031 237.003 195.966 236.648 195.836 236.383C195.706 236.112 195.516 235.917 195.266 235.797C195.016 235.672 194.708 235.609 194.344 235.609C193.984 235.609 193.656 235.685 193.359 235.836C193.068 235.987 192.815 236.195 192.602 236.461C192.393 236.727 192.229 237.031 192.109 237.375C191.995 237.714 191.938 238.073 191.938 238.453ZM203.188 234.547V235.656H198.617V234.547H203.188ZM200.164 232.492H201.609V240.906C201.609 241.193 201.654 241.409 201.742 241.555C201.831 241.701 201.945 241.797 202.086 241.844C202.227 241.891 202.378 241.914 202.539 241.914C202.659 241.914 202.784 241.904 202.914 241.883C203.049 241.857 203.151 241.836 203.219 241.82L203.227 243C203.112 243.036 202.961 243.07 202.773 243.102C202.591 243.138 202.37 243.156 202.109 243.156C201.755 243.156 201.43 243.086 201.133 242.945C200.836 242.805 200.599 242.57 200.422 242.242C200.25 241.909 200.164 241.461 200.164 240.898V232.492ZM215.969 241.773V243H210.281V241.773H215.969ZM210.578 231.625V243H209.07V231.625H210.578ZM220.984 243.156C220.396 243.156 219.862 243.057 219.383 242.859C218.909 242.656 218.5 242.372 218.156 242.008C217.818 241.643 217.557 241.211 217.375 240.711C217.193 240.211 217.102 239.664 217.102 239.07V238.742C217.102 238.055 217.203 237.443 217.406 236.906C217.609 236.365 217.885 235.906 218.234 235.531C218.583 235.156 218.979 234.872 219.422 234.68C219.865 234.487 220.323 234.391 220.797 234.391C221.401 234.391 221.922 234.495 222.359 234.703C222.802 234.911 223.164 235.203 223.445 235.578C223.727 235.948 223.935 236.385 224.07 236.891C224.206 237.391 224.273 237.938 224.273 238.531V239.18H217.961V238H222.828V237.891C222.807 237.516 222.729 237.151 222.594 236.797C222.464 236.443 222.255 236.151 221.969 235.922C221.682 235.693 221.292 235.578 220.797 235.578C220.469 235.578 220.167 235.648 219.891 235.789C219.615 235.924 219.378 236.128 219.18 236.398C218.982 236.669 218.828 237 218.719 237.391C218.609 237.781 218.555 238.232 218.555 238.742V239.07C218.555 239.471 218.609 239.849 218.719 240.203C218.833 240.552 218.997 240.859 219.211 241.125C219.43 241.391 219.693 241.599 220 241.75C220.312 241.901 220.667 241.977 221.062 241.977C221.573 241.977 222.005 241.872 222.359 241.664C222.714 241.456 223.023 241.177 223.289 240.828L224.164 241.523C223.982 241.799 223.75 242.062 223.469 242.312C223.188 242.562 222.841 242.766 222.43 242.922C222.023 243.078 221.542 243.156 220.984 243.156ZM231.438 234.547H232.75V242.82C232.75 243.565 232.599 244.201 232.297 244.727C231.995 245.253 231.573 245.651 231.031 245.922C230.495 246.198 229.875 246.336 229.172 246.336C228.88 246.336 228.536 246.289 228.141 246.195C227.75 246.107 227.365 245.953 226.984 245.734C226.609 245.521 226.294 245.232 226.039 244.867L226.797 244.008C227.151 244.435 227.521 244.732 227.906 244.898C228.297 245.065 228.682 245.148 229.062 245.148C229.521 245.148 229.917 245.062 230.25 244.891C230.583 244.719 230.841 244.464 231.023 244.125C231.211 243.792 231.305 243.38 231.305 242.891V236.406L231.438 234.547ZM225.617 238.867V238.703C225.617 238.057 225.693 237.471 225.844 236.945C226 236.414 226.221 235.958 226.508 235.578C226.799 235.198 227.151 234.906 227.562 234.703C227.974 234.495 228.438 234.391 228.953 234.391C229.484 234.391 229.948 234.484 230.344 234.672C230.745 234.854 231.083 235.122 231.359 235.477C231.641 235.826 231.862 236.247 232.023 236.742C232.185 237.237 232.297 237.797 232.359 238.422V239.141C232.302 239.76 232.19 240.318 232.023 240.812C231.862 241.307 231.641 241.729 231.359 242.078C231.083 242.427 230.745 242.695 230.344 242.883C229.943 243.065 229.474 243.156 228.938 243.156C228.432 243.156 227.974 243.049 227.562 242.836C227.156 242.622 226.807 242.323 226.516 241.938C226.224 241.552 226 241.099 225.844 240.578C225.693 240.052 225.617 239.482 225.617 238.867ZM227.062 238.703V238.867C227.062 239.289 227.104 239.685 227.188 240.055C227.276 240.424 227.409 240.75 227.586 241.031C227.768 241.312 228 241.534 228.281 241.695C228.562 241.852 228.898 241.93 229.289 241.93C229.768 241.93 230.164 241.828 230.477 241.625C230.789 241.422 231.036 241.154 231.219 240.82C231.406 240.487 231.552 240.125 231.656 239.734V237.852C231.599 237.565 231.51 237.289 231.391 237.023C231.276 236.753 231.125 236.513 230.938 236.305C230.755 236.091 230.529 235.922 230.258 235.797C229.987 235.672 229.669 235.609 229.305 235.609C228.909 235.609 228.568 235.693 228.281 235.859C228 236.021 227.768 236.245 227.586 236.531C227.409 236.812 227.276 237.141 227.188 237.516C227.104 237.885 227.062 238.281 227.062 238.703Z" fill="#212529"/>
<circle cx="42.5" cy="176.5" r="42.5" fill="#F1FCFF"/>
<line x1="140.732" y1="65" x2="193.571" y2="156.52" stroke="#E2E7EE" stroke-width="4" stroke-dasharray="8 8"/>
<circle cx="200.5" cy="176.5" r="42.5" fill="#F1FCFF"/>
<circle cx="122.5" cy="42.5" r="42.5" fill="#F1FCFF"/>
<circle cx="42.5" cy="176.5" r="32.5" stroke="#00B4EE" stroke-width="10"/>
<circle cx="200.5" cy="176.5" r="32.5" stroke="#00B4EE" stroke-width="10"/>
<circle cx="122.5" cy="42.5" r="32.5" stroke="#00B4EE" stroke-width="10"/>
</svg>
