<svg width="48" height="48" viewBox="0 0 48 48" fill="none" xmlns="http://www.w3.org/2000/svg">
<path d="M24 42C33.9411 42 42 33.9411 42 24C42 14.0589 33.9411 6 24 6C14.0589 6 6 14.0589 6 24C6 33.9411 14.0589 42 24 42Z" fill="url(#paint0_linear_1_927)"/>
<path d="M20.7 32.25C20.1169 32.25 20.216 32.0298 20.0149 31.4746L18.3 25.8309L31.5 18" fill="#C8DAEA"/>
<path d="M20.7 32.25C21.15 32.25 21.3488 32.0442 21.6 31.8L24 29.4663L21.0063 27.6611" fill="#A9C9DD"/>
<path d="M21.0061 27.6615L28.2601 33.0208C29.0878 33.4776 29.6853 33.2411 29.8915 32.2523L32.8442 18.3379C33.1465 17.1258 32.3822 16.5761 31.5903 16.9356L14.2518 23.6213C13.0683 24.096 13.0752 24.7563 14.0361 25.0505L18.4855 26.4392L28.7865 19.9405C29.2728 19.6456 29.7191 19.8041 29.3528 20.1292" fill="url(#paint1_linear_1_927)"/>
<defs>
<linearGradient id="paint0_linear_1_927" x1="30.0012" y1="12.0012" x2="21.0012" y2="33" gradientUnits="userSpaceOnUse">
<stop stop-color="#37AEE2"/>
<stop offset="1" stop-color="#1E96C8"/>
</linearGradient>
<linearGradient id="paint1_linear_1_927" x1="26.2508" y1="23.9998" x2="29.0676" y2="30.4098" gradientUnits="userSpaceOnUse">
<stop stop-color="#EFF7FC"/>
<stop offset="1" stop-color="white"/>
</linearGradient>
</defs>
</svg>
