<?xml version="1.0" encoding="UTF-8"?>
<svg width="32px" height="32px" viewBox="0 0 32 32" version="1.1" xmlns="http://www.w3.org/2000/svg" xmlns:xlink="http://www.w3.org/1999/xlink">
    <!-- Generator: Sketch 56 (81588) - https://sketch.com -->
    <title>Twitter icon</title>
    <desc>Created with Sketch.</desc>
    <g id="Page-1" stroke="none" stroke-width="1" fill="none" fill-rule="evenodd">
        <g id="8.-My-Website" transform="translate(-421.000000, -452.000000)">
            <g id="Twitter-icon" transform="translate(421.000000, 452.000000)">
                <path d="M19.359375,9.35546875 C18.3697867,9.35546875 17.523441,9.69400703 16.8203125,10.3710938 C16.117184,11.0481805 15.765625,11.8684848 15.765625,12.8320312 C15.765625,12.9622402 15.7753905,13.0957024 15.7949219,13.2324219 C15.8144532,13.3691413 15.8372395,13.5026035 15.8632813,13.6328125 C15.12109,13.5937498 14.4016962,13.4798187 13.7050781,13.2910156 C13.0084601,13.1022126 12.3444042,12.8515641 11.7128906,12.5390625 C11.0813771,12.2265609 10.4921902,11.8554688 9.9453125,11.4257812 C9.39843477,10.9960916 8.90364805,10.5143256 8.4609375,9.98046875 C8.30468672,10.2408867 8.18424521,10.5175767 8.09960938,10.8105469 C8.01497354,11.1035171 7.97265625,11.4127588 7.97265625,11.7382812 C7.97265625,12.3372426 8.11913916,12.8906225 8.41210938,13.3984375 C8.70507959,13.9062525 9.09244551,14.3164047 9.57421875,14.6289062 C9.27473809,14.6289062 8.98828262,14.5898441 8.71484375,14.5117188 C8.44140488,14.4335934 8.18750117,14.3294277 7.953125,14.1992188 L7.953125,14.2382812 C7.953125,15.0846396 8.22655977,15.8268197 8.7734375,16.4648438 C9.32031523,17.1028678 10.0039021,17.4999992 10.8242188,17.65625 C10.6809889,17.6953127 10.5279956,17.7278645 10.3652344,17.7539062 C10.2024731,17.779948 10.0429695,17.7929688 9.88671875,17.7929688 C9.76953066,17.7929688 9.65559951,17.7864584 9.54492188,17.7734375 C9.43424424,17.7604166 9.32031309,17.7408855 9.203125,17.7148438 C9.43750117,18.4049514 9.86067402,18.9778623 10.4726563,19.4335938 C11.0846385,19.8893252 11.7812461,20.1236979 12.5625,20.1367188 C11.9505178,20.6054711 11.2636757,20.973306 10.5019531,21.2402344 C9.74023057,21.5071628 8.9427125,21.640625 8.109375,21.640625 C7.95312422,21.640625 7.80664131,21.6341146 7.66992188,21.6210938 C7.53320244,21.6080729 7.39322988,21.5950521 7.25,21.5820312 C8.0442748,22.0768254 8.90689639,22.4609361 9.83789063,22.734375 C10.7688849,23.0078139 11.7421824,23.1445312 12.7578125,23.1445312 C14.3984457,23.1445312 15.8567645,22.8450551 17.1328125,22.2460938 C18.4088605,21.6471324 19.4798134,20.8724006 20.3457031,19.921875 C21.2115929,18.9713494 21.8658832,17.9069069 22.3085938,16.7285156 C22.7513043,15.5501243 22.9726563,14.3880266 22.9726563,13.2421875 L22.9726563,13.0078125 C22.9726563,12.9296871 22.9661459,12.8580732 22.953125,12.7929688 C23.3046893,12.5455717 23.633462,12.2688817 23.9394531,11.9628906 C24.2454442,11.6568995 24.5156238,11.3281268 24.75,10.9765625 C24.4244775,11.1197924 24.0891944,11.2369787 23.7441406,11.328125 C23.3990868,11.4192713 23.050783,11.4843748 22.6992188,11.5234375 C23.0638039,11.3151031 23.3828111,11.0449235 23.65625,10.7128906 C23.9296889,10.3808577 24.1315098,10.0130229 24.2617188,9.609375 C23.9231754,9.80468848 23.5618509,9.97395762 23.1777344,10.1171875 C22.7936179,10.2604174 22.3997416,10.3710934 21.9960938,10.4492188 C21.6575504,10.1106754 21.2636741,9.84375098 20.8144531,9.6484375 C20.3652321,9.45312402 19.8802109,9.35546875 19.359375,9.35546875 Z M19.359375,8.10546875 C19.9062527,8.10546875 20.430336,8.19010332 20.9316406,8.359375 C21.4329452,8.52864668 21.8984354,8.76952969 22.328125,9.08203125 C22.5625012,9.01692676 22.7903635,8.93880254 23.0117188,8.84765625 C23.233074,8.75650996 23.4414053,8.64583398 23.6367188,8.515625 C23.7408859,8.46354141 23.8450516,8.4244793 23.9492188,8.3984375 C24.0533859,8.3723957 24.1575516,8.359375 24.2617188,8.359375 C24.4049486,8.359375 24.5449212,8.38216123 24.6816406,8.42773438 C24.8183601,8.47330752 24.9453119,8.54166621 25.0625,8.6328125 C25.2578135,8.78906328 25.3912757,8.987629 25.4628906,9.22851562 C25.5345056,9.46940225 25.5377607,9.71354043 25.4726563,9.9609375 C25.628907,10.0651047 25.7558589,10.2083324 25.8535156,10.390625 C25.9511724,10.5729176 26,10.7682281 26,10.9765625 C26,11.1197924 25.9772138,11.2565098 25.9316406,11.3867188 C25.8860675,11.5169277 25.8242191,11.6341141 25.7460938,11.7382812 C25.5377594,12.0507828 25.3033867,12.3437486 25.0429688,12.6171875 C24.7825508,12.8906264 24.509116,13.1510404 24.2226563,13.3984375 C24.1966145,14.7526109 23.9199245,16.0904882 23.3925781,17.4121094 C22.8652317,18.7337306 22.110031,19.9121042 21.1269531,20.9472656 C20.1438753,21.9824271 18.9459706,22.8157521 17.5332031,23.4472656 C16.1204356,24.0787792 14.5286547,24.3945312 12.7578125,24.3945312 C12.2109348,24.3945312 11.6673204,24.3587243 11.1269531,24.2871094 C10.5865858,24.2154944 10.0559922,24.1048185 9.53515625,23.9550781 C9.01432031,23.8053378 8.50651289,23.6230479 8.01171875,23.4082031 C7.51692461,23.1933583 7.04166895,22.9361994 6.5859375,22.6367188 C6.33854043,22.4934889 6.16601611,22.2819024 6.06835938,22.0019531 C5.97070264,21.7220038 5.96744746,21.4453139 6.05859375,21.171875 C6.14974004,20.9244779 6.30598848,20.722657 6.52734375,20.5664062 C6.74869902,20.4101555 6.98958203,20.3320312 7.25,20.3320312 C7.2760418,20.3320312 7.29882803,20.3320312 7.31835938,20.3320312 C7.33789072,20.3320312 7.36067695,20.3385416 7.38671875,20.3515625 C7.50390684,20.3645834 7.62109316,20.3743489 7.73828125,20.3808594 C7.85546934,20.3873698 7.97916602,20.390625 8.109375,20.390625 C8.33073027,20.390625 8.5553374,20.3776043 8.78320313,20.3515625 C9.01106885,20.3255207 9.23567598,20.2864586 9.45703125,20.234375 C9.13150879,19.9609361 8.84505332,19.6451841 8.59765625,19.2871094 C8.35025918,18.9290347 8.15494863,18.5351584 8.01171875,18.1054688 C7.98567695,18.0013016 7.96940107,17.8938808 7.96289063,17.7832031 C7.95638018,17.6725255 7.9661457,17.5651047 7.9921875,17.4609375 C7.58853965,17.0312479 7.2727876,16.5397163 7.04492188,15.9863281 C6.81705615,15.4329399 6.703125,14.8502635 6.703125,14.2382812 L6.703125,14.1992188 C6.703125,14.042968 6.72916641,13.8932299 6.78125,13.75 C6.83333359,13.6067701 6.91145781,13.4765631 7.015625,13.359375 C6.92447871,13.1119779 6.85286484,12.8515639 6.80078125,12.578125 C6.74869766,12.3046861 6.72265625,12.024741 6.72265625,11.7382812 C6.72265625,11.3216125 6.78124941,10.9082052 6.8984375,10.4980469 C7.01562559,10.0878886 7.17838438,9.70052266 7.38671875,9.3359375 C7.49088594,9.16666582 7.6308585,9.02994844 7.80664063,8.92578125 C7.98242275,8.82161406 8.16796777,8.7630209 8.36328125,8.75 C8.37630215,8.7369791 8.39257803,8.73046875 8.41210938,8.73046875 C8.43164072,8.73046875 8.4479166,8.73046875 8.4609375,8.73046875 C8.64323008,8.73046875 8.81900957,8.76953086 8.98828125,8.84765625 C9.15755293,8.92578164 9.30078066,9.03645762 9.41796875,9.1796875 C10.0690137,9.96094141 10.8372352,10.6119766 11.7226563,11.1328125 C12.6080773,11.6536484 13.5585887,12.0117178 14.5742188,12.2070312 C14.6523441,11.6341117 14.8313788,11.0970077 15.1113281,10.5957031 C15.3912774,10.0943985 15.7428364,9.65820498 16.1660156,9.28710938 C16.5891948,8.91601377 17.074216,8.62630312 17.6210938,8.41796875 C18.1679715,8.20963438 18.7473928,8.10546875 19.359375,8.10546875 Z" id="" fill="#1C67FF" fill-rule="nonzero"></path>
                <rect id="Rectangle" stroke="#246CFF" x="0.5" y="0.5" width="31" height="31" rx="5"></rect>
            </g>
        </g>
    </g>
</svg>