<svg width="20" height="20" viewBox="0 0 20 20" fill="none" xmlns="http://www.w3.org/2000/svg">
<path d="M15.0002 13.9579C14.8669 13.9579 14.7419 13.9162 14.6252 13.8329C14.3502 13.6246 14.2919 13.2329 14.5002 12.9579C15.8086 11.2162 15.8086 8.78291 14.5002 7.04124C14.2919 6.76624 14.3502 6.37458 14.6252 6.16624C14.9002 5.95791 15.2919 6.01624 15.5002 6.29124C17.1336 8.47458 17.1336 11.5246 15.5002 13.7079C15.3752 13.8746 15.1919 13.9579 15.0002 13.9579Z" fill="white"/>
<path d="M16.5251 16.0425C16.3918 16.0425 16.2668 16.0009 16.1501 15.9175C15.8751 15.7092 15.8168 15.3175 16.0251 15.0425C18.2501 12.0759 18.2501 7.92588 16.0251 4.95921C15.8168 4.68421 15.8751 4.29255 16.1501 4.08421C16.4251 3.87588 16.8168 3.93421 17.0251 4.20921C19.5835 7.61755 19.5835 12.3842 17.0251 15.7925C16.9085 15.9592 16.7168 16.0425 16.5251 16.0425Z" fill="white"/>
<path d="M11.6832 3.14944C10.7498 2.63278 9.55817 2.76611 8.3415 3.52444L5.90817 5.04944C5.7415 5.14944 5.54984 5.20778 5.35817 5.20778H4.58317H4.1665C2.14984 5.20778 1.0415 6.31611 1.0415 8.33278V11.6661C1.0415 13.6828 2.14984 14.7911 4.1665 14.7911H4.58317H5.35817C5.54984 14.7911 5.7415 14.8494 5.90817 14.9494L8.3415 16.4744C9.07484 16.9328 9.7915 17.1578 10.4582 17.1578C10.8915 17.1578 11.3082 17.0578 11.6832 16.8494C12.6082 16.3328 13.1248 15.2578 13.1248 13.8244V6.17444C13.1248 4.74111 12.6082 3.66611 11.6832 3.14944Z" fill="white"/>
</svg>
